%TF.GenerationSoftware,KiCad,Pcbnew,(5.1.10)-1*%
%TF.CreationDate,2021-07-29T09:59:01+03:00*%
%TF.ProjectId,YevgeniK,59657667-656e-4694-9b2e-6b696361645f,rev?*%
%TF.SameCoordinates,Original*%
%TF.FileFunction,Copper,L2,Bot*%
%TF.FilePolarity,Positive*%
%FSLAX46Y46*%
G04 Gerber Fmt 4.6, Leading zero omitted, Abs format (unit mm)*
G04 Created by KiCad (PCBNEW (5.1.10)-1) date 2021-07-29 09:59:01*
%MOMM*%
%LPD*%
G01*
G04 APERTURE LIST*
%TA.AperFunction,ComponentPad*%
%ADD10R,1.600000X1.600000*%
%TD*%
%TA.AperFunction,ComponentPad*%
%ADD11O,1.600000X1.600000*%
%TD*%
%TA.AperFunction,ComponentPad*%
%ADD12R,3.000000X3.000000*%
%TD*%
%TA.AperFunction,ComponentPad*%
%ADD13C,3.000000*%
%TD*%
%TA.AperFunction,ComponentPad*%
%ADD14R,1.700000X1.700000*%
%TD*%
%TA.AperFunction,ComponentPad*%
%ADD15O,1.700000X1.700000*%
%TD*%
%TA.AperFunction,SMDPad,CuDef*%
%ADD16C,2.000000*%
%TD*%
%TA.AperFunction,ViaPad*%
%ADD17C,0.800000*%
%TD*%
%TA.AperFunction,Conductor*%
%ADD18C,0.250000*%
%TD*%
%TA.AperFunction,Conductor*%
%ADD19C,0.450000*%
%TD*%
%TA.AperFunction,Conductor*%
%ADD20C,0.254000*%
%TD*%
%TA.AperFunction,Conductor*%
%ADD21C,0.100000*%
%TD*%
G04 APERTURE END LIST*
D10*
%TO.P,A1,1*%
%TO.N,/D1*%
X158750000Y-88900000D03*
D11*
%TO.P,A1,17*%
%TO.N,+3V3*%
X173990000Y-121920000D03*
%TO.P,A1,2*%
%TO.N,/DO*%
X158750000Y-91440000D03*
%TO.P,A1,18*%
%TO.N,Net-(A1-Pad18)*%
X173990000Y-119380000D03*
%TO.P,A1,3*%
%TO.N,Net-(A1-Pad3)*%
X158750000Y-93980000D03*
%TO.P,A1,19*%
%TO.N,/A0*%
X173990000Y-116840000D03*
%TO.P,A1,4*%
%TO.N,GND*%
X158750000Y-96520000D03*
%TO.P,A1,20*%
%TO.N,/A1*%
X173990000Y-114300000D03*
%TO.P,A1,5*%
%TO.N,/D2*%
X158750000Y-99060000D03*
%TO.P,A1,21*%
%TO.N,/A2*%
X173990000Y-111760000D03*
%TO.P,A1,6*%
%TO.N,/D3*%
X158750000Y-101600000D03*
%TO.P,A1,22*%
%TO.N,/A3*%
X173990000Y-109220000D03*
%TO.P,A1,7*%
%TO.N,/D4*%
X158750000Y-104140000D03*
%TO.P,A1,23*%
%TO.N,/A4*%
X173990000Y-106680000D03*
%TO.P,A1,8*%
%TO.N,/D5*%
X158750000Y-106680000D03*
%TO.P,A1,24*%
%TO.N,/A5*%
X173990000Y-104140000D03*
%TO.P,A1,9*%
%TO.N,/D6*%
X158750000Y-109220000D03*
%TO.P,A1,25*%
%TO.N,/A6*%
X173990000Y-101600000D03*
%TO.P,A1,10*%
%TO.N,/CE*%
X158750000Y-111760000D03*
%TO.P,A1,26*%
%TO.N,/A7*%
X173990000Y-99060000D03*
%TO.P,A1,11*%
%TO.N,/CSN*%
X158750000Y-114300000D03*
%TO.P,A1,27*%
%TO.N,+5V*%
X173990000Y-96520000D03*
%TO.P,A1,12*%
%TO.N,/D9*%
X158750000Y-116840000D03*
%TO.P,A1,28*%
%TO.N,Net-(A1-Pad28)*%
X173990000Y-93980000D03*
%TO.P,A1,13*%
%TO.N,/D10*%
X158750000Y-119380000D03*
%TO.P,A1,29*%
%TO.N,GND*%
X173990000Y-91440000D03*
%TO.P,A1,14*%
%TO.N,/MOSI*%
X158750000Y-121920000D03*
%TO.P,A1,30*%
%TO.N,VS*%
X173990000Y-88900000D03*
%TO.P,A1,15*%
%TO.N,/MISO*%
X158750000Y-124460000D03*
%TO.P,A1,16*%
%TO.N,/SCK*%
X173990000Y-124460000D03*
%TD*%
D12*
%TO.P,J1,1*%
%TO.N,GND*%
X147320000Y-77470000D03*
D13*
%TO.P,J1,2*%
%TO.N,VS*%
X142240000Y-77470000D03*
%TD*%
D14*
%TO.P,J2,1*%
%TO.N,GND*%
X191770000Y-76200000D03*
D15*
%TO.P,J2,2*%
%TO.N,/D1*%
X191770000Y-78740000D03*
%TO.P,J2,3*%
%TO.N,/DO*%
X191770000Y-81280000D03*
%TO.P,J2,4*%
%TO.N,/D2*%
X191770000Y-83820000D03*
%TO.P,J2,5*%
%TO.N,/D3*%
X191770000Y-86360000D03*
%TO.P,J2,6*%
%TO.N,/D4*%
X191770000Y-88900000D03*
%TO.P,J2,7*%
%TO.N,/D5*%
X191770000Y-91440000D03*
%TO.P,J2,8*%
%TO.N,/D6*%
X191770000Y-93980000D03*
%TO.P,J2,9*%
%TO.N,/D9*%
X191770000Y-96520000D03*
%TO.P,J2,10*%
%TO.N,/D10*%
X191770000Y-99060000D03*
%TO.P,J2,11*%
%TO.N,/A7*%
X191770000Y-101600000D03*
%TO.P,J2,12*%
%TO.N,/A6*%
X191770000Y-104140000D03*
%TO.P,J2,13*%
%TO.N,/A5*%
X191770000Y-106680000D03*
%TO.P,J2,14*%
%TO.N,/A4*%
X191770000Y-109220000D03*
%TO.P,J2,15*%
%TO.N,/A3*%
X191770000Y-111760000D03*
%TO.P,J2,16*%
%TO.N,/A2*%
X191770000Y-114300000D03*
%TO.P,J2,17*%
%TO.N,/A1*%
X191770000Y-116840000D03*
%TO.P,J2,18*%
%TO.N,/A0*%
X191770000Y-119380000D03*
%TO.P,J2,19*%
%TO.N,+5V*%
X191770000Y-121920000D03*
%TO.P,J2,20*%
%TO.N,+3V3*%
X191770000Y-124460000D03*
%TD*%
D14*
%TO.P,J3,1*%
%TO.N,GND*%
X144780000Y-99060000D03*
D15*
%TO.P,J3,2*%
%TO.N,+3V3*%
X142240000Y-99060000D03*
%TO.P,J3,3*%
%TO.N,/CE*%
X144780000Y-96520000D03*
%TO.P,J3,4*%
%TO.N,/CSN*%
X142240000Y-96520000D03*
%TO.P,J3,5*%
%TO.N,/SCK*%
X144780000Y-93980000D03*
%TO.P,J3,6*%
%TO.N,/MOSI*%
X142240000Y-93980000D03*
%TO.P,J3,7*%
%TO.N,/MISO*%
X144780000Y-91440000D03*
%TO.P,J3,8*%
%TO.N,/IRQ*%
X142240000Y-91440000D03*
%TD*%
D14*
%TO.P,J4,1*%
%TO.N,GND*%
X142240000Y-111760000D03*
D15*
%TO.P,J4,2*%
%TO.N,+3V3*%
X142240000Y-114300000D03*
%TO.P,J4,3*%
%TO.N,/SCK*%
X142240000Y-116840000D03*
%TO.P,J4,4*%
%TO.N,/MOSI*%
X142240000Y-119380000D03*
%TO.P,J4,5*%
%TO.N,/MISO*%
X142240000Y-121920000D03*
%TO.P,J4,6*%
%TO.N,Net-(J4-Pad6)*%
X142240000Y-124460000D03*
%TD*%
D16*
%TO.P,TP1,1*%
%TO.N,/IRQ*%
X153670000Y-91440000D03*
%TD*%
D17*
%TO.N,+3V3*%
X148590000Y-111760000D03*
%TO.N,+5V*%
X179070000Y-120650000D03*
%TO.N,/D9*%
X180340000Y-129540000D03*
%TO.N,/D10*%
X180340000Y-130810000D03*
%TO.N,VS*%
X154940000Y-86360000D03*
X162560000Y-86360000D03*
%TO.N,/SCK*%
X147320000Y-93980000D03*
X149860000Y-115570000D03*
X147320000Y-118110000D03*
%TD*%
D18*
%TO.N,+3V3*%
X146050000Y-114300000D02*
X142240000Y-114300000D01*
X152400000Y-124460000D02*
X152400000Y-120650000D01*
X154940000Y-127000000D02*
X152400000Y-124460000D01*
X168910000Y-127000000D02*
X154940000Y-127000000D01*
X173990000Y-121920000D02*
X168910000Y-127000000D01*
X142240000Y-114300000D02*
X140970000Y-114300000D01*
X140970000Y-114300000D02*
X138430000Y-111760000D01*
X138430000Y-102870000D02*
X142240000Y-99060000D01*
X138430000Y-111760000D02*
X138430000Y-102870000D01*
X147320000Y-115570000D02*
X147320000Y-114300000D01*
X152400000Y-120650000D02*
X147320000Y-115570000D01*
X147320000Y-115570000D02*
X146050000Y-114300000D01*
X147320000Y-114300000D02*
X148590000Y-113030000D01*
X148590000Y-113030000D02*
X148590000Y-111760000D01*
%TO.N,/D2*%
X158750000Y-99060000D02*
X163830000Y-93980000D01*
X163830000Y-93980000D02*
X163830000Y-83820000D01*
X163830000Y-83820000D02*
X165100000Y-82550000D01*
X190500000Y-82550000D02*
X191770000Y-83820000D01*
X165100000Y-82550000D02*
X190500000Y-82550000D01*
%TO.N,/D3*%
X158750000Y-101600000D02*
X165100000Y-95250000D01*
X165100000Y-95250000D02*
X165100000Y-85090000D01*
X165100000Y-85090000D02*
X166370000Y-83820000D01*
X189230000Y-83820000D02*
X191770000Y-86360000D01*
X166370000Y-83820000D02*
X189230000Y-83820000D01*
%TO.N,/D4*%
X158750000Y-104140000D02*
X166370000Y-96520000D01*
X166370000Y-96520000D02*
X166370000Y-86360000D01*
X166370000Y-86360000D02*
X167640000Y-85090000D01*
X167640000Y-85090000D02*
X187960000Y-85090000D01*
X187960000Y-85090000D02*
X191770000Y-88900000D01*
%TO.N,/D5*%
X158750000Y-106680000D02*
X167640000Y-97790000D01*
X167640000Y-97790000D02*
X167640000Y-87630000D01*
X167640000Y-87630000D02*
X168910000Y-86360000D01*
X168910000Y-86360000D02*
X186690000Y-86360000D01*
X186690000Y-86360000D02*
X191770000Y-91440000D01*
%TO.N,/D6*%
X158750000Y-109220000D02*
X168910000Y-99060000D01*
X168910000Y-99060000D02*
X168910000Y-88900000D01*
X168910000Y-88900000D02*
X170180000Y-87630000D01*
X170180000Y-87630000D02*
X185420000Y-87630000D01*
X185420000Y-87630000D02*
X191770000Y-93980000D01*
%TO.N,+5V*%
X173990000Y-96520000D02*
X175260000Y-96520000D01*
X175260000Y-96520000D02*
X179070000Y-100330000D01*
X179070000Y-100330000D02*
X179070000Y-120650000D01*
%TO.N,/D9*%
X182880000Y-96520000D02*
X191770000Y-96520000D01*
X180340000Y-99060000D02*
X182880000Y-96520000D01*
X180340000Y-129540000D02*
X180340000Y-99060000D01*
%TO.N,/D10*%
X180340000Y-130810000D02*
X181610000Y-129540000D01*
X181610000Y-129540000D02*
X181610000Y-100330000D01*
X182880000Y-99060000D02*
X191770000Y-99060000D01*
X181610000Y-100330000D02*
X182880000Y-99060000D01*
D19*
%TO.N,VS*%
X154940000Y-86360000D02*
X162560000Y-86360000D01*
D18*
%TO.N,/SCK*%
X144780000Y-118110000D02*
X143510000Y-116840000D01*
X144780000Y-124460000D02*
X144780000Y-118110000D01*
X149860000Y-129540000D02*
X144780000Y-124460000D01*
X170180000Y-129540000D02*
X149860000Y-129540000D01*
X173990000Y-125730000D02*
X170180000Y-129540000D01*
X143510000Y-116840000D02*
X142240000Y-116840000D01*
X173990000Y-124460000D02*
X173990000Y-125730000D01*
X147320000Y-93980000D02*
X149860000Y-96520000D01*
X149860000Y-96520000D02*
X149860000Y-115570000D01*
X147320000Y-118110000D02*
X144780000Y-118110000D01*
%TO.N,/IRQ*%
X142240000Y-91440000D02*
X142240000Y-90170000D01*
X142240000Y-90170000D02*
X144780000Y-87630000D01*
X149860000Y-87630000D02*
X153670000Y-91440000D01*
X144780000Y-87630000D02*
X149860000Y-87630000D01*
%TD*%
D20*
%TO.N,GND*%
X195453000Y-130683000D02*
X181541801Y-130683000D01*
X182121004Y-130103798D01*
X182150001Y-130080001D01*
X182244974Y-129964276D01*
X182315546Y-129832247D01*
X182359003Y-129688986D01*
X182370000Y-129577333D01*
X182370000Y-129577324D01*
X182373676Y-129540001D01*
X182370000Y-129502678D01*
X182370000Y-100644801D01*
X183194802Y-99820000D01*
X190491822Y-99820000D01*
X190616525Y-100006632D01*
X190823368Y-100213475D01*
X190997760Y-100330000D01*
X190823368Y-100446525D01*
X190616525Y-100653368D01*
X190454010Y-100896589D01*
X190342068Y-101166842D01*
X190285000Y-101453740D01*
X190285000Y-101746260D01*
X190342068Y-102033158D01*
X190454010Y-102303411D01*
X190616525Y-102546632D01*
X190823368Y-102753475D01*
X190997760Y-102870000D01*
X190823368Y-102986525D01*
X190616525Y-103193368D01*
X190454010Y-103436589D01*
X190342068Y-103706842D01*
X190285000Y-103993740D01*
X190285000Y-104286260D01*
X190342068Y-104573158D01*
X190454010Y-104843411D01*
X190616525Y-105086632D01*
X190823368Y-105293475D01*
X190997760Y-105410000D01*
X190823368Y-105526525D01*
X190616525Y-105733368D01*
X190454010Y-105976589D01*
X190342068Y-106246842D01*
X190285000Y-106533740D01*
X190285000Y-106826260D01*
X190342068Y-107113158D01*
X190454010Y-107383411D01*
X190616525Y-107626632D01*
X190823368Y-107833475D01*
X190997760Y-107950000D01*
X190823368Y-108066525D01*
X190616525Y-108273368D01*
X190454010Y-108516589D01*
X190342068Y-108786842D01*
X190285000Y-109073740D01*
X190285000Y-109366260D01*
X190342068Y-109653158D01*
X190454010Y-109923411D01*
X190616525Y-110166632D01*
X190823368Y-110373475D01*
X190997760Y-110490000D01*
X190823368Y-110606525D01*
X190616525Y-110813368D01*
X190454010Y-111056589D01*
X190342068Y-111326842D01*
X190285000Y-111613740D01*
X190285000Y-111906260D01*
X190342068Y-112193158D01*
X190454010Y-112463411D01*
X190616525Y-112706632D01*
X190823368Y-112913475D01*
X190997760Y-113030000D01*
X190823368Y-113146525D01*
X190616525Y-113353368D01*
X190454010Y-113596589D01*
X190342068Y-113866842D01*
X190285000Y-114153740D01*
X190285000Y-114446260D01*
X190342068Y-114733158D01*
X190454010Y-115003411D01*
X190616525Y-115246632D01*
X190823368Y-115453475D01*
X190997760Y-115570000D01*
X190823368Y-115686525D01*
X190616525Y-115893368D01*
X190454010Y-116136589D01*
X190342068Y-116406842D01*
X190285000Y-116693740D01*
X190285000Y-116986260D01*
X190342068Y-117273158D01*
X190454010Y-117543411D01*
X190616525Y-117786632D01*
X190823368Y-117993475D01*
X190997760Y-118110000D01*
X190823368Y-118226525D01*
X190616525Y-118433368D01*
X190454010Y-118676589D01*
X190342068Y-118946842D01*
X190285000Y-119233740D01*
X190285000Y-119526260D01*
X190342068Y-119813158D01*
X190454010Y-120083411D01*
X190616525Y-120326632D01*
X190823368Y-120533475D01*
X190997760Y-120650000D01*
X190823368Y-120766525D01*
X190616525Y-120973368D01*
X190454010Y-121216589D01*
X190342068Y-121486842D01*
X190285000Y-121773740D01*
X190285000Y-122066260D01*
X190342068Y-122353158D01*
X190454010Y-122623411D01*
X190616525Y-122866632D01*
X190823368Y-123073475D01*
X190997760Y-123190000D01*
X190823368Y-123306525D01*
X190616525Y-123513368D01*
X190454010Y-123756589D01*
X190342068Y-124026842D01*
X190285000Y-124313740D01*
X190285000Y-124606260D01*
X190342068Y-124893158D01*
X190454010Y-125163411D01*
X190616525Y-125406632D01*
X190823368Y-125613475D01*
X191066589Y-125775990D01*
X191336842Y-125887932D01*
X191623740Y-125945000D01*
X191916260Y-125945000D01*
X192203158Y-125887932D01*
X192473411Y-125775990D01*
X192716632Y-125613475D01*
X192923475Y-125406632D01*
X193085990Y-125163411D01*
X193197932Y-124893158D01*
X193255000Y-124606260D01*
X193255000Y-124313740D01*
X193197932Y-124026842D01*
X193085990Y-123756589D01*
X192923475Y-123513368D01*
X192716632Y-123306525D01*
X192542240Y-123190000D01*
X192716632Y-123073475D01*
X192923475Y-122866632D01*
X193085990Y-122623411D01*
X193197932Y-122353158D01*
X193255000Y-122066260D01*
X193255000Y-121773740D01*
X193197932Y-121486842D01*
X193085990Y-121216589D01*
X192923475Y-120973368D01*
X192716632Y-120766525D01*
X192542240Y-120650000D01*
X192716632Y-120533475D01*
X192923475Y-120326632D01*
X193085990Y-120083411D01*
X193197932Y-119813158D01*
X193255000Y-119526260D01*
X193255000Y-119233740D01*
X193197932Y-118946842D01*
X193085990Y-118676589D01*
X192923475Y-118433368D01*
X192716632Y-118226525D01*
X192542240Y-118110000D01*
X192716632Y-117993475D01*
X192923475Y-117786632D01*
X193085990Y-117543411D01*
X193197932Y-117273158D01*
X193255000Y-116986260D01*
X193255000Y-116693740D01*
X193197932Y-116406842D01*
X193085990Y-116136589D01*
X192923475Y-115893368D01*
X192716632Y-115686525D01*
X192542240Y-115570000D01*
X192716632Y-115453475D01*
X192923475Y-115246632D01*
X193085990Y-115003411D01*
X193197932Y-114733158D01*
X193255000Y-114446260D01*
X193255000Y-114153740D01*
X193197932Y-113866842D01*
X193085990Y-113596589D01*
X192923475Y-113353368D01*
X192716632Y-113146525D01*
X192542240Y-113030000D01*
X192716632Y-112913475D01*
X192923475Y-112706632D01*
X193085990Y-112463411D01*
X193197932Y-112193158D01*
X193255000Y-111906260D01*
X193255000Y-111613740D01*
X193197932Y-111326842D01*
X193085990Y-111056589D01*
X192923475Y-110813368D01*
X192716632Y-110606525D01*
X192542240Y-110490000D01*
X192716632Y-110373475D01*
X192923475Y-110166632D01*
X193085990Y-109923411D01*
X193197932Y-109653158D01*
X193255000Y-109366260D01*
X193255000Y-109073740D01*
X193197932Y-108786842D01*
X193085990Y-108516589D01*
X192923475Y-108273368D01*
X192716632Y-108066525D01*
X192542240Y-107950000D01*
X192716632Y-107833475D01*
X192923475Y-107626632D01*
X193085990Y-107383411D01*
X193197932Y-107113158D01*
X193255000Y-106826260D01*
X193255000Y-106533740D01*
X193197932Y-106246842D01*
X193085990Y-105976589D01*
X192923475Y-105733368D01*
X192716632Y-105526525D01*
X192542240Y-105410000D01*
X192716632Y-105293475D01*
X192923475Y-105086632D01*
X193085990Y-104843411D01*
X193197932Y-104573158D01*
X193255000Y-104286260D01*
X193255000Y-103993740D01*
X193197932Y-103706842D01*
X193085990Y-103436589D01*
X192923475Y-103193368D01*
X192716632Y-102986525D01*
X192542240Y-102870000D01*
X192716632Y-102753475D01*
X192923475Y-102546632D01*
X193085990Y-102303411D01*
X193197932Y-102033158D01*
X193255000Y-101746260D01*
X193255000Y-101453740D01*
X193197932Y-101166842D01*
X193085990Y-100896589D01*
X192923475Y-100653368D01*
X192716632Y-100446525D01*
X192542240Y-100330000D01*
X192716632Y-100213475D01*
X192923475Y-100006632D01*
X193085990Y-99763411D01*
X193197932Y-99493158D01*
X193255000Y-99206260D01*
X193255000Y-98913740D01*
X193197932Y-98626842D01*
X193085990Y-98356589D01*
X192923475Y-98113368D01*
X192716632Y-97906525D01*
X192542240Y-97790000D01*
X192716632Y-97673475D01*
X192923475Y-97466632D01*
X193085990Y-97223411D01*
X193197932Y-96953158D01*
X193255000Y-96666260D01*
X193255000Y-96373740D01*
X193197932Y-96086842D01*
X193085990Y-95816589D01*
X192923475Y-95573368D01*
X192716632Y-95366525D01*
X192542240Y-95250000D01*
X192716632Y-95133475D01*
X192923475Y-94926632D01*
X193085990Y-94683411D01*
X193197932Y-94413158D01*
X193255000Y-94126260D01*
X193255000Y-93833740D01*
X193197932Y-93546842D01*
X193085990Y-93276589D01*
X192923475Y-93033368D01*
X192716632Y-92826525D01*
X192542240Y-92710000D01*
X192716632Y-92593475D01*
X192923475Y-92386632D01*
X193085990Y-92143411D01*
X193197932Y-91873158D01*
X193255000Y-91586260D01*
X193255000Y-91293740D01*
X193197932Y-91006842D01*
X193085990Y-90736589D01*
X192923475Y-90493368D01*
X192716632Y-90286525D01*
X192542240Y-90170000D01*
X192716632Y-90053475D01*
X192923475Y-89846632D01*
X193085990Y-89603411D01*
X193197932Y-89333158D01*
X193255000Y-89046260D01*
X193255000Y-88753740D01*
X193197932Y-88466842D01*
X193085990Y-88196589D01*
X192923475Y-87953368D01*
X192716632Y-87746525D01*
X192542240Y-87630000D01*
X192716632Y-87513475D01*
X192923475Y-87306632D01*
X193085990Y-87063411D01*
X193197932Y-86793158D01*
X193255000Y-86506260D01*
X193255000Y-86213740D01*
X193197932Y-85926842D01*
X193085990Y-85656589D01*
X192923475Y-85413368D01*
X192716632Y-85206525D01*
X192542240Y-85090000D01*
X192716632Y-84973475D01*
X192923475Y-84766632D01*
X193085990Y-84523411D01*
X193197932Y-84253158D01*
X193255000Y-83966260D01*
X193255000Y-83673740D01*
X193197932Y-83386842D01*
X193085990Y-83116589D01*
X192923475Y-82873368D01*
X192716632Y-82666525D01*
X192542240Y-82550000D01*
X192716632Y-82433475D01*
X192923475Y-82226632D01*
X193085990Y-81983411D01*
X193197932Y-81713158D01*
X193255000Y-81426260D01*
X193255000Y-81133740D01*
X193197932Y-80846842D01*
X193085990Y-80576589D01*
X192923475Y-80333368D01*
X192716632Y-80126525D01*
X192542240Y-80010000D01*
X192716632Y-79893475D01*
X192923475Y-79686632D01*
X193085990Y-79443411D01*
X193197932Y-79173158D01*
X193255000Y-78886260D01*
X193255000Y-78593740D01*
X193197932Y-78306842D01*
X193085990Y-78036589D01*
X192923475Y-77793368D01*
X192791620Y-77661513D01*
X192864180Y-77639502D01*
X192974494Y-77580537D01*
X193071185Y-77501185D01*
X193150537Y-77404494D01*
X193209502Y-77294180D01*
X193245812Y-77174482D01*
X193258072Y-77050000D01*
X193255000Y-76485750D01*
X193096250Y-76327000D01*
X191897000Y-76327000D01*
X191897000Y-76347000D01*
X191643000Y-76347000D01*
X191643000Y-76327000D01*
X190443750Y-76327000D01*
X190285000Y-76485750D01*
X190281928Y-77050000D01*
X190294188Y-77174482D01*
X190330498Y-77294180D01*
X190389463Y-77404494D01*
X190468815Y-77501185D01*
X190565506Y-77580537D01*
X190675820Y-77639502D01*
X190748380Y-77661513D01*
X190616525Y-77793368D01*
X190454010Y-78036589D01*
X190342068Y-78306842D01*
X190285000Y-78593740D01*
X190285000Y-78886260D01*
X190342068Y-79173158D01*
X190454010Y-79443411D01*
X190616525Y-79686632D01*
X190823368Y-79893475D01*
X190997760Y-80010000D01*
X190823368Y-80126525D01*
X190616525Y-80333368D01*
X190454010Y-80576589D01*
X190342068Y-80846842D01*
X190285000Y-81133740D01*
X190285000Y-81426260D01*
X190342068Y-81713158D01*
X190373897Y-81790000D01*
X165137322Y-81790000D01*
X165099999Y-81786324D01*
X165062676Y-81790000D01*
X165062667Y-81790000D01*
X164951014Y-81800997D01*
X164807753Y-81844454D01*
X164675724Y-81915026D01*
X164559999Y-82009999D01*
X164536201Y-82038997D01*
X163318998Y-83256201D01*
X163290000Y-83279999D01*
X163266202Y-83308997D01*
X163266201Y-83308998D01*
X163195026Y-83395724D01*
X163124454Y-83527754D01*
X163094180Y-83627558D01*
X163080999Y-83671013D01*
X163080998Y-83671015D01*
X163066324Y-83820000D01*
X163070001Y-83857332D01*
X163070001Y-85455988D01*
X163050256Y-85442795D01*
X162861898Y-85364774D01*
X162661939Y-85325000D01*
X162458061Y-85325000D01*
X162258102Y-85364774D01*
X162069744Y-85442795D01*
X161984130Y-85500000D01*
X155515870Y-85500000D01*
X155430256Y-85442795D01*
X155241898Y-85364774D01*
X155041939Y-85325000D01*
X154838061Y-85325000D01*
X154638102Y-85364774D01*
X154449744Y-85442795D01*
X154280226Y-85556063D01*
X154136063Y-85700226D01*
X154022795Y-85869744D01*
X153944774Y-86058102D01*
X153905000Y-86258061D01*
X153905000Y-86461939D01*
X153944774Y-86661898D01*
X154022795Y-86850256D01*
X154136063Y-87019774D01*
X154280226Y-87163937D01*
X154449744Y-87277205D01*
X154638102Y-87355226D01*
X154838061Y-87395000D01*
X155041939Y-87395000D01*
X155241898Y-87355226D01*
X155430256Y-87277205D01*
X155515870Y-87220000D01*
X161984130Y-87220000D01*
X162069744Y-87277205D01*
X162258102Y-87355226D01*
X162458061Y-87395000D01*
X162661939Y-87395000D01*
X162861898Y-87355226D01*
X163050256Y-87277205D01*
X163070001Y-87264012D01*
X163070000Y-93665198D01*
X160044128Y-96691071D01*
X160019915Y-96647000D01*
X158877000Y-96647000D01*
X158877000Y-96667000D01*
X158623000Y-96667000D01*
X158623000Y-96647000D01*
X157480085Y-96647000D01*
X157358096Y-96869039D01*
X157398754Y-97003087D01*
X157518963Y-97257420D01*
X157686481Y-97483414D01*
X157894869Y-97672385D01*
X158080865Y-97783933D01*
X158070273Y-97788320D01*
X157835241Y-97945363D01*
X157635363Y-98145241D01*
X157478320Y-98380273D01*
X157370147Y-98641426D01*
X157315000Y-98918665D01*
X157315000Y-99201335D01*
X157370147Y-99478574D01*
X157478320Y-99739727D01*
X157635363Y-99974759D01*
X157835241Y-100174637D01*
X158067759Y-100330000D01*
X157835241Y-100485363D01*
X157635363Y-100685241D01*
X157478320Y-100920273D01*
X157370147Y-101181426D01*
X157315000Y-101458665D01*
X157315000Y-101741335D01*
X157370147Y-102018574D01*
X157478320Y-102279727D01*
X157635363Y-102514759D01*
X157835241Y-102714637D01*
X158067759Y-102870000D01*
X157835241Y-103025363D01*
X157635363Y-103225241D01*
X157478320Y-103460273D01*
X157370147Y-103721426D01*
X157315000Y-103998665D01*
X157315000Y-104281335D01*
X157370147Y-104558574D01*
X157478320Y-104819727D01*
X157635363Y-105054759D01*
X157835241Y-105254637D01*
X158067759Y-105410000D01*
X157835241Y-105565363D01*
X157635363Y-105765241D01*
X157478320Y-106000273D01*
X157370147Y-106261426D01*
X157315000Y-106538665D01*
X157315000Y-106821335D01*
X157370147Y-107098574D01*
X157478320Y-107359727D01*
X157635363Y-107594759D01*
X157835241Y-107794637D01*
X158067759Y-107950000D01*
X157835241Y-108105363D01*
X157635363Y-108305241D01*
X157478320Y-108540273D01*
X157370147Y-108801426D01*
X157315000Y-109078665D01*
X157315000Y-109361335D01*
X157370147Y-109638574D01*
X157478320Y-109899727D01*
X157635363Y-110134759D01*
X157835241Y-110334637D01*
X158067759Y-110490000D01*
X157835241Y-110645363D01*
X157635363Y-110845241D01*
X157478320Y-111080273D01*
X157370147Y-111341426D01*
X157315000Y-111618665D01*
X157315000Y-111901335D01*
X157370147Y-112178574D01*
X157478320Y-112439727D01*
X157635363Y-112674759D01*
X157835241Y-112874637D01*
X158067759Y-113030000D01*
X157835241Y-113185363D01*
X157635363Y-113385241D01*
X157478320Y-113620273D01*
X157370147Y-113881426D01*
X157315000Y-114158665D01*
X157315000Y-114441335D01*
X157370147Y-114718574D01*
X157478320Y-114979727D01*
X157635363Y-115214759D01*
X157835241Y-115414637D01*
X158067759Y-115570000D01*
X157835241Y-115725363D01*
X157635363Y-115925241D01*
X157478320Y-116160273D01*
X157370147Y-116421426D01*
X157315000Y-116698665D01*
X157315000Y-116981335D01*
X157370147Y-117258574D01*
X157478320Y-117519727D01*
X157635363Y-117754759D01*
X157835241Y-117954637D01*
X158067759Y-118110000D01*
X157835241Y-118265363D01*
X157635363Y-118465241D01*
X157478320Y-118700273D01*
X157370147Y-118961426D01*
X157315000Y-119238665D01*
X157315000Y-119521335D01*
X157370147Y-119798574D01*
X157478320Y-120059727D01*
X157635363Y-120294759D01*
X157835241Y-120494637D01*
X158067759Y-120650000D01*
X157835241Y-120805363D01*
X157635363Y-121005241D01*
X157478320Y-121240273D01*
X157370147Y-121501426D01*
X157315000Y-121778665D01*
X157315000Y-122061335D01*
X157370147Y-122338574D01*
X157478320Y-122599727D01*
X157635363Y-122834759D01*
X157835241Y-123034637D01*
X158067759Y-123190000D01*
X157835241Y-123345363D01*
X157635363Y-123545241D01*
X157478320Y-123780273D01*
X157370147Y-124041426D01*
X157315000Y-124318665D01*
X157315000Y-124601335D01*
X157370147Y-124878574D01*
X157478320Y-125139727D01*
X157635363Y-125374759D01*
X157835241Y-125574637D01*
X158070273Y-125731680D01*
X158331426Y-125839853D01*
X158608665Y-125895000D01*
X158891335Y-125895000D01*
X159168574Y-125839853D01*
X159429727Y-125731680D01*
X159664759Y-125574637D01*
X159864637Y-125374759D01*
X160021680Y-125139727D01*
X160129853Y-124878574D01*
X160185000Y-124601335D01*
X160185000Y-124318665D01*
X160129853Y-124041426D01*
X160021680Y-123780273D01*
X159864637Y-123545241D01*
X159664759Y-123345363D01*
X159432241Y-123190000D01*
X159664759Y-123034637D01*
X159864637Y-122834759D01*
X160021680Y-122599727D01*
X160129853Y-122338574D01*
X160185000Y-122061335D01*
X160185000Y-121778665D01*
X160129853Y-121501426D01*
X160021680Y-121240273D01*
X159864637Y-121005241D01*
X159664759Y-120805363D01*
X159432241Y-120650000D01*
X159664759Y-120494637D01*
X159864637Y-120294759D01*
X160021680Y-120059727D01*
X160129853Y-119798574D01*
X160185000Y-119521335D01*
X160185000Y-119238665D01*
X160129853Y-118961426D01*
X160021680Y-118700273D01*
X159864637Y-118465241D01*
X159664759Y-118265363D01*
X159432241Y-118110000D01*
X159664759Y-117954637D01*
X159864637Y-117754759D01*
X160021680Y-117519727D01*
X160129853Y-117258574D01*
X160185000Y-116981335D01*
X160185000Y-116698665D01*
X160129853Y-116421426D01*
X160021680Y-116160273D01*
X159864637Y-115925241D01*
X159664759Y-115725363D01*
X159432241Y-115570000D01*
X159664759Y-115414637D01*
X159864637Y-115214759D01*
X160021680Y-114979727D01*
X160129853Y-114718574D01*
X160185000Y-114441335D01*
X160185000Y-114158665D01*
X160129853Y-113881426D01*
X160021680Y-113620273D01*
X159864637Y-113385241D01*
X159664759Y-113185363D01*
X159432241Y-113030000D01*
X159664759Y-112874637D01*
X159864637Y-112674759D01*
X160021680Y-112439727D01*
X160129853Y-112178574D01*
X160185000Y-111901335D01*
X160185000Y-111618665D01*
X160129853Y-111341426D01*
X160021680Y-111080273D01*
X159864637Y-110845241D01*
X159664759Y-110645363D01*
X159432241Y-110490000D01*
X159664759Y-110334637D01*
X159864637Y-110134759D01*
X160021680Y-109899727D01*
X160129853Y-109638574D01*
X160185000Y-109361335D01*
X160185000Y-109078665D01*
X160148688Y-108896113D01*
X169421004Y-99623798D01*
X169450001Y-99600001D01*
X169544974Y-99484276D01*
X169615546Y-99352247D01*
X169659003Y-99208986D01*
X169670000Y-99097333D01*
X169670000Y-99097325D01*
X169673676Y-99060000D01*
X169670000Y-99022675D01*
X169670000Y-89214801D01*
X170494802Y-88390000D01*
X172648017Y-88390000D01*
X172610147Y-88481426D01*
X172555000Y-88758665D01*
X172555000Y-89041335D01*
X172610147Y-89318574D01*
X172718320Y-89579727D01*
X172875363Y-89814759D01*
X173075241Y-90014637D01*
X173310273Y-90171680D01*
X173320865Y-90176067D01*
X173134869Y-90287615D01*
X172926481Y-90476586D01*
X172758963Y-90702580D01*
X172638754Y-90956913D01*
X172598096Y-91090961D01*
X172720085Y-91313000D01*
X173863000Y-91313000D01*
X173863000Y-91293000D01*
X174117000Y-91293000D01*
X174117000Y-91313000D01*
X175259915Y-91313000D01*
X175381904Y-91090961D01*
X175341246Y-90956913D01*
X175221037Y-90702580D01*
X175053519Y-90476586D01*
X174845131Y-90287615D01*
X174659135Y-90176067D01*
X174669727Y-90171680D01*
X174904759Y-90014637D01*
X175104637Y-89814759D01*
X175261680Y-89579727D01*
X175369853Y-89318574D01*
X175425000Y-89041335D01*
X175425000Y-88758665D01*
X175369853Y-88481426D01*
X175331983Y-88390000D01*
X185105199Y-88390000D01*
X190328790Y-93613592D01*
X190285000Y-93833740D01*
X190285000Y-94126260D01*
X190342068Y-94413158D01*
X190454010Y-94683411D01*
X190616525Y-94926632D01*
X190823368Y-95133475D01*
X190997760Y-95250000D01*
X190823368Y-95366525D01*
X190616525Y-95573368D01*
X190491822Y-95760000D01*
X182917322Y-95760000D01*
X182879999Y-95756324D01*
X182842676Y-95760000D01*
X182842667Y-95760000D01*
X182731014Y-95770997D01*
X182587753Y-95814454D01*
X182455724Y-95885026D01*
X182455722Y-95885027D01*
X182455723Y-95885027D01*
X182368996Y-95956201D01*
X182368992Y-95956205D01*
X182339999Y-95979999D01*
X182316205Y-96008992D01*
X179828998Y-98496201D01*
X179800000Y-98519999D01*
X179776202Y-98548997D01*
X179776201Y-98548998D01*
X179705026Y-98635724D01*
X179634454Y-98767754D01*
X179632484Y-98774250D01*
X179590998Y-98911014D01*
X179588833Y-98933000D01*
X179576324Y-99060000D01*
X179580001Y-99097332D01*
X179580001Y-99765199D01*
X175823804Y-96009003D01*
X175800001Y-95979999D01*
X175684276Y-95885026D01*
X175552247Y-95814454D01*
X175408986Y-95770997D01*
X175297333Y-95760000D01*
X175297322Y-95760000D01*
X175260000Y-95756324D01*
X175222678Y-95760000D01*
X175208043Y-95760000D01*
X175104637Y-95605241D01*
X174904759Y-95405363D01*
X174672241Y-95250000D01*
X174904759Y-95094637D01*
X175104637Y-94894759D01*
X175261680Y-94659727D01*
X175369853Y-94398574D01*
X175425000Y-94121335D01*
X175425000Y-93838665D01*
X175369853Y-93561426D01*
X175261680Y-93300273D01*
X175104637Y-93065241D01*
X174904759Y-92865363D01*
X174669727Y-92708320D01*
X174659135Y-92703933D01*
X174845131Y-92592385D01*
X175053519Y-92403414D01*
X175221037Y-92177420D01*
X175341246Y-91923087D01*
X175381904Y-91789039D01*
X175259915Y-91567000D01*
X174117000Y-91567000D01*
X174117000Y-91587000D01*
X173863000Y-91587000D01*
X173863000Y-91567000D01*
X172720085Y-91567000D01*
X172598096Y-91789039D01*
X172638754Y-91923087D01*
X172758963Y-92177420D01*
X172926481Y-92403414D01*
X173134869Y-92592385D01*
X173320865Y-92703933D01*
X173310273Y-92708320D01*
X173075241Y-92865363D01*
X172875363Y-93065241D01*
X172718320Y-93300273D01*
X172610147Y-93561426D01*
X172555000Y-93838665D01*
X172555000Y-94121335D01*
X172610147Y-94398574D01*
X172718320Y-94659727D01*
X172875363Y-94894759D01*
X173075241Y-95094637D01*
X173307759Y-95250000D01*
X173075241Y-95405363D01*
X172875363Y-95605241D01*
X172718320Y-95840273D01*
X172610147Y-96101426D01*
X172555000Y-96378665D01*
X172555000Y-96661335D01*
X172610147Y-96938574D01*
X172718320Y-97199727D01*
X172875363Y-97434759D01*
X173075241Y-97634637D01*
X173307759Y-97790000D01*
X173075241Y-97945363D01*
X172875363Y-98145241D01*
X172718320Y-98380273D01*
X172610147Y-98641426D01*
X172555000Y-98918665D01*
X172555000Y-99201335D01*
X172610147Y-99478574D01*
X172718320Y-99739727D01*
X172875363Y-99974759D01*
X173075241Y-100174637D01*
X173307759Y-100330000D01*
X173075241Y-100485363D01*
X172875363Y-100685241D01*
X172718320Y-100920273D01*
X172610147Y-101181426D01*
X172555000Y-101458665D01*
X172555000Y-101741335D01*
X172610147Y-102018574D01*
X172718320Y-102279727D01*
X172875363Y-102514759D01*
X173075241Y-102714637D01*
X173307759Y-102870000D01*
X173075241Y-103025363D01*
X172875363Y-103225241D01*
X172718320Y-103460273D01*
X172610147Y-103721426D01*
X172555000Y-103998665D01*
X172555000Y-104281335D01*
X172610147Y-104558574D01*
X172718320Y-104819727D01*
X172875363Y-105054759D01*
X173075241Y-105254637D01*
X173307759Y-105410000D01*
X173075241Y-105565363D01*
X172875363Y-105765241D01*
X172718320Y-106000273D01*
X172610147Y-106261426D01*
X172555000Y-106538665D01*
X172555000Y-106821335D01*
X172610147Y-107098574D01*
X172718320Y-107359727D01*
X172875363Y-107594759D01*
X173075241Y-107794637D01*
X173307759Y-107950000D01*
X173075241Y-108105363D01*
X172875363Y-108305241D01*
X172718320Y-108540273D01*
X172610147Y-108801426D01*
X172555000Y-109078665D01*
X172555000Y-109361335D01*
X172610147Y-109638574D01*
X172718320Y-109899727D01*
X172875363Y-110134759D01*
X173075241Y-110334637D01*
X173307759Y-110490000D01*
X173075241Y-110645363D01*
X172875363Y-110845241D01*
X172718320Y-111080273D01*
X172610147Y-111341426D01*
X172555000Y-111618665D01*
X172555000Y-111901335D01*
X172610147Y-112178574D01*
X172718320Y-112439727D01*
X172875363Y-112674759D01*
X173075241Y-112874637D01*
X173307759Y-113030000D01*
X173075241Y-113185363D01*
X172875363Y-113385241D01*
X172718320Y-113620273D01*
X172610147Y-113881426D01*
X172555000Y-114158665D01*
X172555000Y-114441335D01*
X172610147Y-114718574D01*
X172718320Y-114979727D01*
X172875363Y-115214759D01*
X173075241Y-115414637D01*
X173307759Y-115570000D01*
X173075241Y-115725363D01*
X172875363Y-115925241D01*
X172718320Y-116160273D01*
X172610147Y-116421426D01*
X172555000Y-116698665D01*
X172555000Y-116981335D01*
X172610147Y-117258574D01*
X172718320Y-117519727D01*
X172875363Y-117754759D01*
X173075241Y-117954637D01*
X173307759Y-118110000D01*
X173075241Y-118265363D01*
X172875363Y-118465241D01*
X172718320Y-118700273D01*
X172610147Y-118961426D01*
X172555000Y-119238665D01*
X172555000Y-119521335D01*
X172610147Y-119798574D01*
X172718320Y-120059727D01*
X172875363Y-120294759D01*
X173075241Y-120494637D01*
X173307759Y-120650000D01*
X173075241Y-120805363D01*
X172875363Y-121005241D01*
X172718320Y-121240273D01*
X172610147Y-121501426D01*
X172555000Y-121778665D01*
X172555000Y-122061335D01*
X172591312Y-122243886D01*
X168595199Y-126240000D01*
X155254803Y-126240000D01*
X153160000Y-124145199D01*
X153160000Y-120687323D01*
X153163676Y-120650000D01*
X153160000Y-120612677D01*
X153160000Y-120612667D01*
X153149003Y-120501014D01*
X153105546Y-120357753D01*
X153071875Y-120294759D01*
X153034974Y-120225723D01*
X152963799Y-120138997D01*
X152940001Y-120109999D01*
X152911003Y-120086201D01*
X148080000Y-115255199D01*
X148080000Y-114614801D01*
X149100001Y-113594801D01*
X149100001Y-114866288D01*
X149056063Y-114910226D01*
X148942795Y-115079744D01*
X148864774Y-115268102D01*
X148825000Y-115468061D01*
X148825000Y-115671939D01*
X148864774Y-115871898D01*
X148942795Y-116060256D01*
X149056063Y-116229774D01*
X149200226Y-116373937D01*
X149369744Y-116487205D01*
X149558102Y-116565226D01*
X149758061Y-116605000D01*
X149961939Y-116605000D01*
X150161898Y-116565226D01*
X150350256Y-116487205D01*
X150519774Y-116373937D01*
X150663937Y-116229774D01*
X150777205Y-116060256D01*
X150855226Y-115871898D01*
X150895000Y-115671939D01*
X150895000Y-115468061D01*
X150855226Y-115268102D01*
X150777205Y-115079744D01*
X150663937Y-114910226D01*
X150620000Y-114866289D01*
X150620000Y-96557322D01*
X150623676Y-96519999D01*
X150620000Y-96482676D01*
X150620000Y-96482667D01*
X150609003Y-96371014D01*
X150565546Y-96227753D01*
X150494974Y-96095724D01*
X150481811Y-96079685D01*
X150423799Y-96008996D01*
X150423795Y-96008992D01*
X150400001Y-95979999D01*
X150371009Y-95956206D01*
X148355000Y-93940199D01*
X148355000Y-93878061D01*
X148315226Y-93678102D01*
X148237205Y-93489744D01*
X148123937Y-93320226D01*
X147979774Y-93176063D01*
X147810256Y-93062795D01*
X147621898Y-92984774D01*
X147421939Y-92945000D01*
X147218061Y-92945000D01*
X147018102Y-92984774D01*
X146829744Y-93062795D01*
X146660226Y-93176063D01*
X146516063Y-93320226D01*
X146402795Y-93489744D01*
X146324774Y-93678102D01*
X146285000Y-93878061D01*
X146285000Y-94081939D01*
X146324774Y-94281898D01*
X146402795Y-94470256D01*
X146516063Y-94639774D01*
X146660226Y-94783937D01*
X146829744Y-94897205D01*
X147018102Y-94975226D01*
X147218061Y-95015000D01*
X147280199Y-95015000D01*
X149100000Y-96834803D01*
X149100001Y-110855988D01*
X149080256Y-110842795D01*
X148891898Y-110764774D01*
X148691939Y-110725000D01*
X148488061Y-110725000D01*
X148288102Y-110764774D01*
X148099744Y-110842795D01*
X147930226Y-110956063D01*
X147786063Y-111100226D01*
X147672795Y-111269744D01*
X147594774Y-111458102D01*
X147555000Y-111658061D01*
X147555000Y-111861939D01*
X147594774Y-112061898D01*
X147672795Y-112250256D01*
X147786063Y-112419774D01*
X147830000Y-112463711D01*
X147830000Y-112715198D01*
X146808998Y-113736201D01*
X146780000Y-113759999D01*
X146756203Y-113788996D01*
X146756201Y-113788998D01*
X146692012Y-113867211D01*
X146613804Y-113789003D01*
X146590001Y-113759999D01*
X146474276Y-113665026D01*
X146342247Y-113594454D01*
X146198986Y-113550997D01*
X146087333Y-113540000D01*
X146087322Y-113540000D01*
X146050000Y-113536324D01*
X146012678Y-113540000D01*
X143518178Y-113540000D01*
X143393475Y-113353368D01*
X143261620Y-113221513D01*
X143334180Y-113199502D01*
X143444494Y-113140537D01*
X143541185Y-113061185D01*
X143620537Y-112964494D01*
X143679502Y-112854180D01*
X143715812Y-112734482D01*
X143728072Y-112610000D01*
X143725000Y-112045750D01*
X143566250Y-111887000D01*
X142367000Y-111887000D01*
X142367000Y-111907000D01*
X142113000Y-111907000D01*
X142113000Y-111887000D01*
X140913750Y-111887000D01*
X140755000Y-112045750D01*
X140751928Y-112610000D01*
X140764188Y-112734482D01*
X140800498Y-112854180D01*
X140859463Y-112964494D01*
X140938815Y-113061185D01*
X141035506Y-113140537D01*
X141145820Y-113199502D01*
X141218380Y-113221513D01*
X141092348Y-113347545D01*
X139190000Y-111445199D01*
X139190000Y-110910000D01*
X140751928Y-110910000D01*
X140755000Y-111474250D01*
X140913750Y-111633000D01*
X142113000Y-111633000D01*
X142113000Y-110433750D01*
X142367000Y-110433750D01*
X142367000Y-111633000D01*
X143566250Y-111633000D01*
X143725000Y-111474250D01*
X143728072Y-110910000D01*
X143715812Y-110785518D01*
X143679502Y-110665820D01*
X143620537Y-110555506D01*
X143541185Y-110458815D01*
X143444494Y-110379463D01*
X143334180Y-110320498D01*
X143214482Y-110284188D01*
X143090000Y-110271928D01*
X142525750Y-110275000D01*
X142367000Y-110433750D01*
X142113000Y-110433750D01*
X141954250Y-110275000D01*
X141390000Y-110271928D01*
X141265518Y-110284188D01*
X141145820Y-110320498D01*
X141035506Y-110379463D01*
X140938815Y-110458815D01*
X140859463Y-110555506D01*
X140800498Y-110665820D01*
X140764188Y-110785518D01*
X140751928Y-110910000D01*
X139190000Y-110910000D01*
X139190000Y-103184801D01*
X141873592Y-100501210D01*
X142093740Y-100545000D01*
X142386260Y-100545000D01*
X142673158Y-100487932D01*
X142943411Y-100375990D01*
X143186632Y-100213475D01*
X143318487Y-100081620D01*
X143340498Y-100154180D01*
X143399463Y-100264494D01*
X143478815Y-100361185D01*
X143575506Y-100440537D01*
X143685820Y-100499502D01*
X143805518Y-100535812D01*
X143930000Y-100548072D01*
X144494250Y-100545000D01*
X144653000Y-100386250D01*
X144653000Y-99187000D01*
X144907000Y-99187000D01*
X144907000Y-100386250D01*
X145065750Y-100545000D01*
X145630000Y-100548072D01*
X145754482Y-100535812D01*
X145874180Y-100499502D01*
X145984494Y-100440537D01*
X146081185Y-100361185D01*
X146160537Y-100264494D01*
X146219502Y-100154180D01*
X146255812Y-100034482D01*
X146268072Y-99910000D01*
X146265000Y-99345750D01*
X146106250Y-99187000D01*
X144907000Y-99187000D01*
X144653000Y-99187000D01*
X144633000Y-99187000D01*
X144633000Y-98933000D01*
X144653000Y-98933000D01*
X144653000Y-98913000D01*
X144907000Y-98913000D01*
X144907000Y-98933000D01*
X146106250Y-98933000D01*
X146265000Y-98774250D01*
X146268072Y-98210000D01*
X146255812Y-98085518D01*
X146219502Y-97965820D01*
X146160537Y-97855506D01*
X146081185Y-97758815D01*
X145984494Y-97679463D01*
X145874180Y-97620498D01*
X145801620Y-97598487D01*
X145933475Y-97466632D01*
X146095990Y-97223411D01*
X146207932Y-96953158D01*
X146265000Y-96666260D01*
X146265000Y-96373740D01*
X146207932Y-96086842D01*
X146095990Y-95816589D01*
X145933475Y-95573368D01*
X145726632Y-95366525D01*
X145552240Y-95250000D01*
X145726632Y-95133475D01*
X145933475Y-94926632D01*
X146095990Y-94683411D01*
X146207932Y-94413158D01*
X146265000Y-94126260D01*
X146265000Y-93833740D01*
X146207932Y-93546842D01*
X146095990Y-93276589D01*
X145933475Y-93033368D01*
X145726632Y-92826525D01*
X145552240Y-92710000D01*
X145726632Y-92593475D01*
X145933475Y-92386632D01*
X146095990Y-92143411D01*
X146207932Y-91873158D01*
X146265000Y-91586260D01*
X146265000Y-91293740D01*
X146207932Y-91006842D01*
X146095990Y-90736589D01*
X145933475Y-90493368D01*
X145726632Y-90286525D01*
X145483411Y-90124010D01*
X145213158Y-90012068D01*
X144926260Y-89955000D01*
X144633740Y-89955000D01*
X144346842Y-90012068D01*
X144076589Y-90124010D01*
X143833368Y-90286525D01*
X143626525Y-90493368D01*
X143510000Y-90667760D01*
X143393475Y-90493368D01*
X143192454Y-90292347D01*
X145094803Y-88390000D01*
X149545199Y-88390000D01*
X152103823Y-90948625D01*
X152097832Y-90963088D01*
X152035000Y-91278967D01*
X152035000Y-91601033D01*
X152097832Y-91916912D01*
X152221082Y-92214463D01*
X152400013Y-92482252D01*
X152627748Y-92709987D01*
X152895537Y-92888918D01*
X153193088Y-93012168D01*
X153508967Y-93075000D01*
X153831033Y-93075000D01*
X154146912Y-93012168D01*
X154444463Y-92888918D01*
X154712252Y-92709987D01*
X154939987Y-92482252D01*
X155118918Y-92214463D01*
X155242168Y-91916912D01*
X155305000Y-91601033D01*
X155305000Y-91278967D01*
X155242168Y-90963088D01*
X155118918Y-90665537D01*
X154939987Y-90397748D01*
X154712252Y-90170013D01*
X154444463Y-89991082D01*
X154146912Y-89867832D01*
X153831033Y-89805000D01*
X153508967Y-89805000D01*
X153193088Y-89867832D01*
X153178625Y-89873823D01*
X151404802Y-88100000D01*
X157311928Y-88100000D01*
X157311928Y-89700000D01*
X157324188Y-89824482D01*
X157360498Y-89944180D01*
X157419463Y-90054494D01*
X157498815Y-90151185D01*
X157595506Y-90230537D01*
X157705820Y-90289502D01*
X157825518Y-90325812D01*
X157833961Y-90326643D01*
X157635363Y-90525241D01*
X157478320Y-90760273D01*
X157370147Y-91021426D01*
X157315000Y-91298665D01*
X157315000Y-91581335D01*
X157370147Y-91858574D01*
X157478320Y-92119727D01*
X157635363Y-92354759D01*
X157835241Y-92554637D01*
X158067759Y-92710000D01*
X157835241Y-92865363D01*
X157635363Y-93065241D01*
X157478320Y-93300273D01*
X157370147Y-93561426D01*
X157315000Y-93838665D01*
X157315000Y-94121335D01*
X157370147Y-94398574D01*
X157478320Y-94659727D01*
X157635363Y-94894759D01*
X157835241Y-95094637D01*
X158070273Y-95251680D01*
X158080865Y-95256067D01*
X157894869Y-95367615D01*
X157686481Y-95556586D01*
X157518963Y-95782580D01*
X157398754Y-96036913D01*
X157358096Y-96170961D01*
X157480085Y-96393000D01*
X158623000Y-96393000D01*
X158623000Y-96373000D01*
X158877000Y-96373000D01*
X158877000Y-96393000D01*
X160019915Y-96393000D01*
X160141904Y-96170961D01*
X160101246Y-96036913D01*
X159981037Y-95782580D01*
X159813519Y-95556586D01*
X159605131Y-95367615D01*
X159419135Y-95256067D01*
X159429727Y-95251680D01*
X159664759Y-95094637D01*
X159864637Y-94894759D01*
X160021680Y-94659727D01*
X160129853Y-94398574D01*
X160185000Y-94121335D01*
X160185000Y-93838665D01*
X160129853Y-93561426D01*
X160021680Y-93300273D01*
X159864637Y-93065241D01*
X159664759Y-92865363D01*
X159432241Y-92710000D01*
X159664759Y-92554637D01*
X159864637Y-92354759D01*
X160021680Y-92119727D01*
X160129853Y-91858574D01*
X160185000Y-91581335D01*
X160185000Y-91298665D01*
X160129853Y-91021426D01*
X160021680Y-90760273D01*
X159864637Y-90525241D01*
X159666039Y-90326643D01*
X159674482Y-90325812D01*
X159794180Y-90289502D01*
X159904494Y-90230537D01*
X160001185Y-90151185D01*
X160080537Y-90054494D01*
X160139502Y-89944180D01*
X160175812Y-89824482D01*
X160188072Y-89700000D01*
X160188072Y-88100000D01*
X160175812Y-87975518D01*
X160139502Y-87855820D01*
X160080537Y-87745506D01*
X160001185Y-87648815D01*
X159904494Y-87569463D01*
X159794180Y-87510498D01*
X159674482Y-87474188D01*
X159550000Y-87461928D01*
X157950000Y-87461928D01*
X157825518Y-87474188D01*
X157705820Y-87510498D01*
X157595506Y-87569463D01*
X157498815Y-87648815D01*
X157419463Y-87745506D01*
X157360498Y-87855820D01*
X157324188Y-87975518D01*
X157311928Y-88100000D01*
X151404802Y-88100000D01*
X150423804Y-87119003D01*
X150400001Y-87089999D01*
X150284276Y-86995026D01*
X150152247Y-86924454D01*
X150008986Y-86880997D01*
X149897333Y-86870000D01*
X149897322Y-86870000D01*
X149860000Y-86866324D01*
X149822678Y-86870000D01*
X144817322Y-86870000D01*
X144779999Y-86866324D01*
X144742676Y-86870000D01*
X144742667Y-86870000D01*
X144631014Y-86880997D01*
X144487753Y-86924454D01*
X144355724Y-86995026D01*
X144355722Y-86995027D01*
X144355723Y-86995027D01*
X144268996Y-87066201D01*
X144268992Y-87066205D01*
X144239999Y-87089999D01*
X144216205Y-87118992D01*
X141728998Y-89606201D01*
X141700000Y-89629999D01*
X141676202Y-89658997D01*
X141676201Y-89658998D01*
X141605026Y-89745724D01*
X141534454Y-89877754D01*
X141514305Y-89944180D01*
X141490998Y-90021014D01*
X141487144Y-90060147D01*
X141476927Y-90163875D01*
X141293368Y-90286525D01*
X141086525Y-90493368D01*
X140924010Y-90736589D01*
X140812068Y-91006842D01*
X140755000Y-91293740D01*
X140755000Y-91586260D01*
X140812068Y-91873158D01*
X140924010Y-92143411D01*
X141086525Y-92386632D01*
X141293368Y-92593475D01*
X141467760Y-92710000D01*
X141293368Y-92826525D01*
X141086525Y-93033368D01*
X140924010Y-93276589D01*
X140812068Y-93546842D01*
X140755000Y-93833740D01*
X140755000Y-94126260D01*
X140812068Y-94413158D01*
X140924010Y-94683411D01*
X141086525Y-94926632D01*
X141293368Y-95133475D01*
X141467760Y-95250000D01*
X141293368Y-95366525D01*
X141086525Y-95573368D01*
X140924010Y-95816589D01*
X140812068Y-96086842D01*
X140755000Y-96373740D01*
X140755000Y-96666260D01*
X140812068Y-96953158D01*
X140924010Y-97223411D01*
X141086525Y-97466632D01*
X141293368Y-97673475D01*
X141467760Y-97790000D01*
X141293368Y-97906525D01*
X141086525Y-98113368D01*
X140924010Y-98356589D01*
X140812068Y-98626842D01*
X140755000Y-98913740D01*
X140755000Y-99206260D01*
X140798790Y-99426408D01*
X138557000Y-101668199D01*
X138557000Y-77259721D01*
X140105000Y-77259721D01*
X140105000Y-77680279D01*
X140187047Y-78092756D01*
X140347988Y-78481302D01*
X140581637Y-78830983D01*
X140879017Y-79128363D01*
X141228698Y-79362012D01*
X141617244Y-79522953D01*
X142029721Y-79605000D01*
X142450279Y-79605000D01*
X142862756Y-79522953D01*
X143251302Y-79362012D01*
X143600983Y-79128363D01*
X143759346Y-78970000D01*
X145181928Y-78970000D01*
X145194188Y-79094482D01*
X145230498Y-79214180D01*
X145289463Y-79324494D01*
X145368815Y-79421185D01*
X145465506Y-79500537D01*
X145575820Y-79559502D01*
X145695518Y-79595812D01*
X145820000Y-79608072D01*
X147034250Y-79605000D01*
X147193000Y-79446250D01*
X147193000Y-77597000D01*
X147447000Y-77597000D01*
X147447000Y-79446250D01*
X147605750Y-79605000D01*
X148820000Y-79608072D01*
X148944482Y-79595812D01*
X149064180Y-79559502D01*
X149174494Y-79500537D01*
X149271185Y-79421185D01*
X149350537Y-79324494D01*
X149409502Y-79214180D01*
X149445812Y-79094482D01*
X149458072Y-78970000D01*
X149455000Y-77755750D01*
X149296250Y-77597000D01*
X147447000Y-77597000D01*
X147193000Y-77597000D01*
X145343750Y-77597000D01*
X145185000Y-77755750D01*
X145181928Y-78970000D01*
X143759346Y-78970000D01*
X143898363Y-78830983D01*
X144132012Y-78481302D01*
X144292953Y-78092756D01*
X144375000Y-77680279D01*
X144375000Y-77259721D01*
X144292953Y-76847244D01*
X144132012Y-76458698D01*
X143898363Y-76109017D01*
X143759346Y-75970000D01*
X145181928Y-75970000D01*
X145185000Y-77184250D01*
X145343750Y-77343000D01*
X147193000Y-77343000D01*
X147193000Y-75493750D01*
X147447000Y-75493750D01*
X147447000Y-77343000D01*
X149296250Y-77343000D01*
X149455000Y-77184250D01*
X149458072Y-75970000D01*
X149445812Y-75845518D01*
X149409502Y-75725820D01*
X149350537Y-75615506D01*
X149271185Y-75518815D01*
X149174494Y-75439463D01*
X149064180Y-75380498D01*
X148963642Y-75350000D01*
X190281928Y-75350000D01*
X190285000Y-75914250D01*
X190443750Y-76073000D01*
X191643000Y-76073000D01*
X191643000Y-74873750D01*
X191897000Y-74873750D01*
X191897000Y-76073000D01*
X193096250Y-76073000D01*
X193255000Y-75914250D01*
X193258072Y-75350000D01*
X193245812Y-75225518D01*
X193209502Y-75105820D01*
X193150537Y-74995506D01*
X193071185Y-74898815D01*
X192974494Y-74819463D01*
X192864180Y-74760498D01*
X192744482Y-74724188D01*
X192620000Y-74711928D01*
X192055750Y-74715000D01*
X191897000Y-74873750D01*
X191643000Y-74873750D01*
X191484250Y-74715000D01*
X190920000Y-74711928D01*
X190795518Y-74724188D01*
X190675820Y-74760498D01*
X190565506Y-74819463D01*
X190468815Y-74898815D01*
X190389463Y-74995506D01*
X190330498Y-75105820D01*
X190294188Y-75225518D01*
X190281928Y-75350000D01*
X148963642Y-75350000D01*
X148944482Y-75344188D01*
X148820000Y-75331928D01*
X147605750Y-75335000D01*
X147447000Y-75493750D01*
X147193000Y-75493750D01*
X147034250Y-75335000D01*
X145820000Y-75331928D01*
X145695518Y-75344188D01*
X145575820Y-75380498D01*
X145465506Y-75439463D01*
X145368815Y-75518815D01*
X145289463Y-75615506D01*
X145230498Y-75725820D01*
X145194188Y-75845518D01*
X145181928Y-75970000D01*
X143759346Y-75970000D01*
X143600983Y-75811637D01*
X143251302Y-75577988D01*
X142862756Y-75417047D01*
X142450279Y-75335000D01*
X142029721Y-75335000D01*
X141617244Y-75417047D01*
X141228698Y-75577988D01*
X140879017Y-75811637D01*
X140581637Y-76109017D01*
X140347988Y-76458698D01*
X140187047Y-76847244D01*
X140105000Y-77259721D01*
X138557000Y-77259721D01*
X138557000Y-73787000D01*
X195453000Y-73787000D01*
X195453000Y-130683000D01*
%TA.AperFunction,Conductor*%
D21*
G36*
X195453000Y-130683000D02*
G01*
X181541801Y-130683000D01*
X182121004Y-130103798D01*
X182150001Y-130080001D01*
X182244974Y-129964276D01*
X182315546Y-129832247D01*
X182359003Y-129688986D01*
X182370000Y-129577333D01*
X182370000Y-129577324D01*
X182373676Y-129540001D01*
X182370000Y-129502678D01*
X182370000Y-100644801D01*
X183194802Y-99820000D01*
X190491822Y-99820000D01*
X190616525Y-100006632D01*
X190823368Y-100213475D01*
X190997760Y-100330000D01*
X190823368Y-100446525D01*
X190616525Y-100653368D01*
X190454010Y-100896589D01*
X190342068Y-101166842D01*
X190285000Y-101453740D01*
X190285000Y-101746260D01*
X190342068Y-102033158D01*
X190454010Y-102303411D01*
X190616525Y-102546632D01*
X190823368Y-102753475D01*
X190997760Y-102870000D01*
X190823368Y-102986525D01*
X190616525Y-103193368D01*
X190454010Y-103436589D01*
X190342068Y-103706842D01*
X190285000Y-103993740D01*
X190285000Y-104286260D01*
X190342068Y-104573158D01*
X190454010Y-104843411D01*
X190616525Y-105086632D01*
X190823368Y-105293475D01*
X190997760Y-105410000D01*
X190823368Y-105526525D01*
X190616525Y-105733368D01*
X190454010Y-105976589D01*
X190342068Y-106246842D01*
X190285000Y-106533740D01*
X190285000Y-106826260D01*
X190342068Y-107113158D01*
X190454010Y-107383411D01*
X190616525Y-107626632D01*
X190823368Y-107833475D01*
X190997760Y-107950000D01*
X190823368Y-108066525D01*
X190616525Y-108273368D01*
X190454010Y-108516589D01*
X190342068Y-108786842D01*
X190285000Y-109073740D01*
X190285000Y-109366260D01*
X190342068Y-109653158D01*
X190454010Y-109923411D01*
X190616525Y-110166632D01*
X190823368Y-110373475D01*
X190997760Y-110490000D01*
X190823368Y-110606525D01*
X190616525Y-110813368D01*
X190454010Y-111056589D01*
X190342068Y-111326842D01*
X190285000Y-111613740D01*
X190285000Y-111906260D01*
X190342068Y-112193158D01*
X190454010Y-112463411D01*
X190616525Y-112706632D01*
X190823368Y-112913475D01*
X190997760Y-113030000D01*
X190823368Y-113146525D01*
X190616525Y-113353368D01*
X190454010Y-113596589D01*
X190342068Y-113866842D01*
X190285000Y-114153740D01*
X190285000Y-114446260D01*
X190342068Y-114733158D01*
X190454010Y-115003411D01*
X190616525Y-115246632D01*
X190823368Y-115453475D01*
X190997760Y-115570000D01*
X190823368Y-115686525D01*
X190616525Y-115893368D01*
X190454010Y-116136589D01*
X190342068Y-116406842D01*
X190285000Y-116693740D01*
X190285000Y-116986260D01*
X190342068Y-117273158D01*
X190454010Y-117543411D01*
X190616525Y-117786632D01*
X190823368Y-117993475D01*
X190997760Y-118110000D01*
X190823368Y-118226525D01*
X190616525Y-118433368D01*
X190454010Y-118676589D01*
X190342068Y-118946842D01*
X190285000Y-119233740D01*
X190285000Y-119526260D01*
X190342068Y-119813158D01*
X190454010Y-120083411D01*
X190616525Y-120326632D01*
X190823368Y-120533475D01*
X190997760Y-120650000D01*
X190823368Y-120766525D01*
X190616525Y-120973368D01*
X190454010Y-121216589D01*
X190342068Y-121486842D01*
X190285000Y-121773740D01*
X190285000Y-122066260D01*
X190342068Y-122353158D01*
X190454010Y-122623411D01*
X190616525Y-122866632D01*
X190823368Y-123073475D01*
X190997760Y-123190000D01*
X190823368Y-123306525D01*
X190616525Y-123513368D01*
X190454010Y-123756589D01*
X190342068Y-124026842D01*
X190285000Y-124313740D01*
X190285000Y-124606260D01*
X190342068Y-124893158D01*
X190454010Y-125163411D01*
X190616525Y-125406632D01*
X190823368Y-125613475D01*
X191066589Y-125775990D01*
X191336842Y-125887932D01*
X191623740Y-125945000D01*
X191916260Y-125945000D01*
X192203158Y-125887932D01*
X192473411Y-125775990D01*
X192716632Y-125613475D01*
X192923475Y-125406632D01*
X193085990Y-125163411D01*
X193197932Y-124893158D01*
X193255000Y-124606260D01*
X193255000Y-124313740D01*
X193197932Y-124026842D01*
X193085990Y-123756589D01*
X192923475Y-123513368D01*
X192716632Y-123306525D01*
X192542240Y-123190000D01*
X192716632Y-123073475D01*
X192923475Y-122866632D01*
X193085990Y-122623411D01*
X193197932Y-122353158D01*
X193255000Y-122066260D01*
X193255000Y-121773740D01*
X193197932Y-121486842D01*
X193085990Y-121216589D01*
X192923475Y-120973368D01*
X192716632Y-120766525D01*
X192542240Y-120650000D01*
X192716632Y-120533475D01*
X192923475Y-120326632D01*
X193085990Y-120083411D01*
X193197932Y-119813158D01*
X193255000Y-119526260D01*
X193255000Y-119233740D01*
X193197932Y-118946842D01*
X193085990Y-118676589D01*
X192923475Y-118433368D01*
X192716632Y-118226525D01*
X192542240Y-118110000D01*
X192716632Y-117993475D01*
X192923475Y-117786632D01*
X193085990Y-117543411D01*
X193197932Y-117273158D01*
X193255000Y-116986260D01*
X193255000Y-116693740D01*
X193197932Y-116406842D01*
X193085990Y-116136589D01*
X192923475Y-115893368D01*
X192716632Y-115686525D01*
X192542240Y-115570000D01*
X192716632Y-115453475D01*
X192923475Y-115246632D01*
X193085990Y-115003411D01*
X193197932Y-114733158D01*
X193255000Y-114446260D01*
X193255000Y-114153740D01*
X193197932Y-113866842D01*
X193085990Y-113596589D01*
X192923475Y-113353368D01*
X192716632Y-113146525D01*
X192542240Y-113030000D01*
X192716632Y-112913475D01*
X192923475Y-112706632D01*
X193085990Y-112463411D01*
X193197932Y-112193158D01*
X193255000Y-111906260D01*
X193255000Y-111613740D01*
X193197932Y-111326842D01*
X193085990Y-111056589D01*
X192923475Y-110813368D01*
X192716632Y-110606525D01*
X192542240Y-110490000D01*
X192716632Y-110373475D01*
X192923475Y-110166632D01*
X193085990Y-109923411D01*
X193197932Y-109653158D01*
X193255000Y-109366260D01*
X193255000Y-109073740D01*
X193197932Y-108786842D01*
X193085990Y-108516589D01*
X192923475Y-108273368D01*
X192716632Y-108066525D01*
X192542240Y-107950000D01*
X192716632Y-107833475D01*
X192923475Y-107626632D01*
X193085990Y-107383411D01*
X193197932Y-107113158D01*
X193255000Y-106826260D01*
X193255000Y-106533740D01*
X193197932Y-106246842D01*
X193085990Y-105976589D01*
X192923475Y-105733368D01*
X192716632Y-105526525D01*
X192542240Y-105410000D01*
X192716632Y-105293475D01*
X192923475Y-105086632D01*
X193085990Y-104843411D01*
X193197932Y-104573158D01*
X193255000Y-104286260D01*
X193255000Y-103993740D01*
X193197932Y-103706842D01*
X193085990Y-103436589D01*
X192923475Y-103193368D01*
X192716632Y-102986525D01*
X192542240Y-102870000D01*
X192716632Y-102753475D01*
X192923475Y-102546632D01*
X193085990Y-102303411D01*
X193197932Y-102033158D01*
X193255000Y-101746260D01*
X193255000Y-101453740D01*
X193197932Y-101166842D01*
X193085990Y-100896589D01*
X192923475Y-100653368D01*
X192716632Y-100446525D01*
X192542240Y-100330000D01*
X192716632Y-100213475D01*
X192923475Y-100006632D01*
X193085990Y-99763411D01*
X193197932Y-99493158D01*
X193255000Y-99206260D01*
X193255000Y-98913740D01*
X193197932Y-98626842D01*
X193085990Y-98356589D01*
X192923475Y-98113368D01*
X192716632Y-97906525D01*
X192542240Y-97790000D01*
X192716632Y-97673475D01*
X192923475Y-97466632D01*
X193085990Y-97223411D01*
X193197932Y-96953158D01*
X193255000Y-96666260D01*
X193255000Y-96373740D01*
X193197932Y-96086842D01*
X193085990Y-95816589D01*
X192923475Y-95573368D01*
X192716632Y-95366525D01*
X192542240Y-95250000D01*
X192716632Y-95133475D01*
X192923475Y-94926632D01*
X193085990Y-94683411D01*
X193197932Y-94413158D01*
X193255000Y-94126260D01*
X193255000Y-93833740D01*
X193197932Y-93546842D01*
X193085990Y-93276589D01*
X192923475Y-93033368D01*
X192716632Y-92826525D01*
X192542240Y-92710000D01*
X192716632Y-92593475D01*
X192923475Y-92386632D01*
X193085990Y-92143411D01*
X193197932Y-91873158D01*
X193255000Y-91586260D01*
X193255000Y-91293740D01*
X193197932Y-91006842D01*
X193085990Y-90736589D01*
X192923475Y-90493368D01*
X192716632Y-90286525D01*
X192542240Y-90170000D01*
X192716632Y-90053475D01*
X192923475Y-89846632D01*
X193085990Y-89603411D01*
X193197932Y-89333158D01*
X193255000Y-89046260D01*
X193255000Y-88753740D01*
X193197932Y-88466842D01*
X193085990Y-88196589D01*
X192923475Y-87953368D01*
X192716632Y-87746525D01*
X192542240Y-87630000D01*
X192716632Y-87513475D01*
X192923475Y-87306632D01*
X193085990Y-87063411D01*
X193197932Y-86793158D01*
X193255000Y-86506260D01*
X193255000Y-86213740D01*
X193197932Y-85926842D01*
X193085990Y-85656589D01*
X192923475Y-85413368D01*
X192716632Y-85206525D01*
X192542240Y-85090000D01*
X192716632Y-84973475D01*
X192923475Y-84766632D01*
X193085990Y-84523411D01*
X193197932Y-84253158D01*
X193255000Y-83966260D01*
X193255000Y-83673740D01*
X193197932Y-83386842D01*
X193085990Y-83116589D01*
X192923475Y-82873368D01*
X192716632Y-82666525D01*
X192542240Y-82550000D01*
X192716632Y-82433475D01*
X192923475Y-82226632D01*
X193085990Y-81983411D01*
X193197932Y-81713158D01*
X193255000Y-81426260D01*
X193255000Y-81133740D01*
X193197932Y-80846842D01*
X193085990Y-80576589D01*
X192923475Y-80333368D01*
X192716632Y-80126525D01*
X192542240Y-80010000D01*
X192716632Y-79893475D01*
X192923475Y-79686632D01*
X193085990Y-79443411D01*
X193197932Y-79173158D01*
X193255000Y-78886260D01*
X193255000Y-78593740D01*
X193197932Y-78306842D01*
X193085990Y-78036589D01*
X192923475Y-77793368D01*
X192791620Y-77661513D01*
X192864180Y-77639502D01*
X192974494Y-77580537D01*
X193071185Y-77501185D01*
X193150537Y-77404494D01*
X193209502Y-77294180D01*
X193245812Y-77174482D01*
X193258072Y-77050000D01*
X193255000Y-76485750D01*
X193096250Y-76327000D01*
X191897000Y-76327000D01*
X191897000Y-76347000D01*
X191643000Y-76347000D01*
X191643000Y-76327000D01*
X190443750Y-76327000D01*
X190285000Y-76485750D01*
X190281928Y-77050000D01*
X190294188Y-77174482D01*
X190330498Y-77294180D01*
X190389463Y-77404494D01*
X190468815Y-77501185D01*
X190565506Y-77580537D01*
X190675820Y-77639502D01*
X190748380Y-77661513D01*
X190616525Y-77793368D01*
X190454010Y-78036589D01*
X190342068Y-78306842D01*
X190285000Y-78593740D01*
X190285000Y-78886260D01*
X190342068Y-79173158D01*
X190454010Y-79443411D01*
X190616525Y-79686632D01*
X190823368Y-79893475D01*
X190997760Y-80010000D01*
X190823368Y-80126525D01*
X190616525Y-80333368D01*
X190454010Y-80576589D01*
X190342068Y-80846842D01*
X190285000Y-81133740D01*
X190285000Y-81426260D01*
X190342068Y-81713158D01*
X190373897Y-81790000D01*
X165137322Y-81790000D01*
X165099999Y-81786324D01*
X165062676Y-81790000D01*
X165062667Y-81790000D01*
X164951014Y-81800997D01*
X164807753Y-81844454D01*
X164675724Y-81915026D01*
X164559999Y-82009999D01*
X164536201Y-82038997D01*
X163318998Y-83256201D01*
X163290000Y-83279999D01*
X163266202Y-83308997D01*
X163266201Y-83308998D01*
X163195026Y-83395724D01*
X163124454Y-83527754D01*
X163094180Y-83627558D01*
X163080999Y-83671013D01*
X163080998Y-83671015D01*
X163066324Y-83820000D01*
X163070001Y-83857332D01*
X163070001Y-85455988D01*
X163050256Y-85442795D01*
X162861898Y-85364774D01*
X162661939Y-85325000D01*
X162458061Y-85325000D01*
X162258102Y-85364774D01*
X162069744Y-85442795D01*
X161984130Y-85500000D01*
X155515870Y-85500000D01*
X155430256Y-85442795D01*
X155241898Y-85364774D01*
X155041939Y-85325000D01*
X154838061Y-85325000D01*
X154638102Y-85364774D01*
X154449744Y-85442795D01*
X154280226Y-85556063D01*
X154136063Y-85700226D01*
X154022795Y-85869744D01*
X153944774Y-86058102D01*
X153905000Y-86258061D01*
X153905000Y-86461939D01*
X153944774Y-86661898D01*
X154022795Y-86850256D01*
X154136063Y-87019774D01*
X154280226Y-87163937D01*
X154449744Y-87277205D01*
X154638102Y-87355226D01*
X154838061Y-87395000D01*
X155041939Y-87395000D01*
X155241898Y-87355226D01*
X155430256Y-87277205D01*
X155515870Y-87220000D01*
X161984130Y-87220000D01*
X162069744Y-87277205D01*
X162258102Y-87355226D01*
X162458061Y-87395000D01*
X162661939Y-87395000D01*
X162861898Y-87355226D01*
X163050256Y-87277205D01*
X163070001Y-87264012D01*
X163070000Y-93665198D01*
X160044128Y-96691071D01*
X160019915Y-96647000D01*
X158877000Y-96647000D01*
X158877000Y-96667000D01*
X158623000Y-96667000D01*
X158623000Y-96647000D01*
X157480085Y-96647000D01*
X157358096Y-96869039D01*
X157398754Y-97003087D01*
X157518963Y-97257420D01*
X157686481Y-97483414D01*
X157894869Y-97672385D01*
X158080865Y-97783933D01*
X158070273Y-97788320D01*
X157835241Y-97945363D01*
X157635363Y-98145241D01*
X157478320Y-98380273D01*
X157370147Y-98641426D01*
X157315000Y-98918665D01*
X157315000Y-99201335D01*
X157370147Y-99478574D01*
X157478320Y-99739727D01*
X157635363Y-99974759D01*
X157835241Y-100174637D01*
X158067759Y-100330000D01*
X157835241Y-100485363D01*
X157635363Y-100685241D01*
X157478320Y-100920273D01*
X157370147Y-101181426D01*
X157315000Y-101458665D01*
X157315000Y-101741335D01*
X157370147Y-102018574D01*
X157478320Y-102279727D01*
X157635363Y-102514759D01*
X157835241Y-102714637D01*
X158067759Y-102870000D01*
X157835241Y-103025363D01*
X157635363Y-103225241D01*
X157478320Y-103460273D01*
X157370147Y-103721426D01*
X157315000Y-103998665D01*
X157315000Y-104281335D01*
X157370147Y-104558574D01*
X157478320Y-104819727D01*
X157635363Y-105054759D01*
X157835241Y-105254637D01*
X158067759Y-105410000D01*
X157835241Y-105565363D01*
X157635363Y-105765241D01*
X157478320Y-106000273D01*
X157370147Y-106261426D01*
X157315000Y-106538665D01*
X157315000Y-106821335D01*
X157370147Y-107098574D01*
X157478320Y-107359727D01*
X157635363Y-107594759D01*
X157835241Y-107794637D01*
X158067759Y-107950000D01*
X157835241Y-108105363D01*
X157635363Y-108305241D01*
X157478320Y-108540273D01*
X157370147Y-108801426D01*
X157315000Y-109078665D01*
X157315000Y-109361335D01*
X157370147Y-109638574D01*
X157478320Y-109899727D01*
X157635363Y-110134759D01*
X157835241Y-110334637D01*
X158067759Y-110490000D01*
X157835241Y-110645363D01*
X157635363Y-110845241D01*
X157478320Y-111080273D01*
X157370147Y-111341426D01*
X157315000Y-111618665D01*
X157315000Y-111901335D01*
X157370147Y-112178574D01*
X157478320Y-112439727D01*
X157635363Y-112674759D01*
X157835241Y-112874637D01*
X158067759Y-113030000D01*
X157835241Y-113185363D01*
X157635363Y-113385241D01*
X157478320Y-113620273D01*
X157370147Y-113881426D01*
X157315000Y-114158665D01*
X157315000Y-114441335D01*
X157370147Y-114718574D01*
X157478320Y-114979727D01*
X157635363Y-115214759D01*
X157835241Y-115414637D01*
X158067759Y-115570000D01*
X157835241Y-115725363D01*
X157635363Y-115925241D01*
X157478320Y-116160273D01*
X157370147Y-116421426D01*
X157315000Y-116698665D01*
X157315000Y-116981335D01*
X157370147Y-117258574D01*
X157478320Y-117519727D01*
X157635363Y-117754759D01*
X157835241Y-117954637D01*
X158067759Y-118110000D01*
X157835241Y-118265363D01*
X157635363Y-118465241D01*
X157478320Y-118700273D01*
X157370147Y-118961426D01*
X157315000Y-119238665D01*
X157315000Y-119521335D01*
X157370147Y-119798574D01*
X157478320Y-120059727D01*
X157635363Y-120294759D01*
X157835241Y-120494637D01*
X158067759Y-120650000D01*
X157835241Y-120805363D01*
X157635363Y-121005241D01*
X157478320Y-121240273D01*
X157370147Y-121501426D01*
X157315000Y-121778665D01*
X157315000Y-122061335D01*
X157370147Y-122338574D01*
X157478320Y-122599727D01*
X157635363Y-122834759D01*
X157835241Y-123034637D01*
X158067759Y-123190000D01*
X157835241Y-123345363D01*
X157635363Y-123545241D01*
X157478320Y-123780273D01*
X157370147Y-124041426D01*
X157315000Y-124318665D01*
X157315000Y-124601335D01*
X157370147Y-124878574D01*
X157478320Y-125139727D01*
X157635363Y-125374759D01*
X157835241Y-125574637D01*
X158070273Y-125731680D01*
X158331426Y-125839853D01*
X158608665Y-125895000D01*
X158891335Y-125895000D01*
X159168574Y-125839853D01*
X159429727Y-125731680D01*
X159664759Y-125574637D01*
X159864637Y-125374759D01*
X160021680Y-125139727D01*
X160129853Y-124878574D01*
X160185000Y-124601335D01*
X160185000Y-124318665D01*
X160129853Y-124041426D01*
X160021680Y-123780273D01*
X159864637Y-123545241D01*
X159664759Y-123345363D01*
X159432241Y-123190000D01*
X159664759Y-123034637D01*
X159864637Y-122834759D01*
X160021680Y-122599727D01*
X160129853Y-122338574D01*
X160185000Y-122061335D01*
X160185000Y-121778665D01*
X160129853Y-121501426D01*
X160021680Y-121240273D01*
X159864637Y-121005241D01*
X159664759Y-120805363D01*
X159432241Y-120650000D01*
X159664759Y-120494637D01*
X159864637Y-120294759D01*
X160021680Y-120059727D01*
X160129853Y-119798574D01*
X160185000Y-119521335D01*
X160185000Y-119238665D01*
X160129853Y-118961426D01*
X160021680Y-118700273D01*
X159864637Y-118465241D01*
X159664759Y-118265363D01*
X159432241Y-118110000D01*
X159664759Y-117954637D01*
X159864637Y-117754759D01*
X160021680Y-117519727D01*
X160129853Y-117258574D01*
X160185000Y-116981335D01*
X160185000Y-116698665D01*
X160129853Y-116421426D01*
X160021680Y-116160273D01*
X159864637Y-115925241D01*
X159664759Y-115725363D01*
X159432241Y-115570000D01*
X159664759Y-115414637D01*
X159864637Y-115214759D01*
X160021680Y-114979727D01*
X160129853Y-114718574D01*
X160185000Y-114441335D01*
X160185000Y-114158665D01*
X160129853Y-113881426D01*
X160021680Y-113620273D01*
X159864637Y-113385241D01*
X159664759Y-113185363D01*
X159432241Y-113030000D01*
X159664759Y-112874637D01*
X159864637Y-112674759D01*
X160021680Y-112439727D01*
X160129853Y-112178574D01*
X160185000Y-111901335D01*
X160185000Y-111618665D01*
X160129853Y-111341426D01*
X160021680Y-111080273D01*
X159864637Y-110845241D01*
X159664759Y-110645363D01*
X159432241Y-110490000D01*
X159664759Y-110334637D01*
X159864637Y-110134759D01*
X160021680Y-109899727D01*
X160129853Y-109638574D01*
X160185000Y-109361335D01*
X160185000Y-109078665D01*
X160148688Y-108896113D01*
X169421004Y-99623798D01*
X169450001Y-99600001D01*
X169544974Y-99484276D01*
X169615546Y-99352247D01*
X169659003Y-99208986D01*
X169670000Y-99097333D01*
X169670000Y-99097325D01*
X169673676Y-99060000D01*
X169670000Y-99022675D01*
X169670000Y-89214801D01*
X170494802Y-88390000D01*
X172648017Y-88390000D01*
X172610147Y-88481426D01*
X172555000Y-88758665D01*
X172555000Y-89041335D01*
X172610147Y-89318574D01*
X172718320Y-89579727D01*
X172875363Y-89814759D01*
X173075241Y-90014637D01*
X173310273Y-90171680D01*
X173320865Y-90176067D01*
X173134869Y-90287615D01*
X172926481Y-90476586D01*
X172758963Y-90702580D01*
X172638754Y-90956913D01*
X172598096Y-91090961D01*
X172720085Y-91313000D01*
X173863000Y-91313000D01*
X173863000Y-91293000D01*
X174117000Y-91293000D01*
X174117000Y-91313000D01*
X175259915Y-91313000D01*
X175381904Y-91090961D01*
X175341246Y-90956913D01*
X175221037Y-90702580D01*
X175053519Y-90476586D01*
X174845131Y-90287615D01*
X174659135Y-90176067D01*
X174669727Y-90171680D01*
X174904759Y-90014637D01*
X175104637Y-89814759D01*
X175261680Y-89579727D01*
X175369853Y-89318574D01*
X175425000Y-89041335D01*
X175425000Y-88758665D01*
X175369853Y-88481426D01*
X175331983Y-88390000D01*
X185105199Y-88390000D01*
X190328790Y-93613592D01*
X190285000Y-93833740D01*
X190285000Y-94126260D01*
X190342068Y-94413158D01*
X190454010Y-94683411D01*
X190616525Y-94926632D01*
X190823368Y-95133475D01*
X190997760Y-95250000D01*
X190823368Y-95366525D01*
X190616525Y-95573368D01*
X190491822Y-95760000D01*
X182917322Y-95760000D01*
X182879999Y-95756324D01*
X182842676Y-95760000D01*
X182842667Y-95760000D01*
X182731014Y-95770997D01*
X182587753Y-95814454D01*
X182455724Y-95885026D01*
X182455722Y-95885027D01*
X182455723Y-95885027D01*
X182368996Y-95956201D01*
X182368992Y-95956205D01*
X182339999Y-95979999D01*
X182316205Y-96008992D01*
X179828998Y-98496201D01*
X179800000Y-98519999D01*
X179776202Y-98548997D01*
X179776201Y-98548998D01*
X179705026Y-98635724D01*
X179634454Y-98767754D01*
X179632484Y-98774250D01*
X179590998Y-98911014D01*
X179588833Y-98933000D01*
X179576324Y-99060000D01*
X179580001Y-99097332D01*
X179580001Y-99765199D01*
X175823804Y-96009003D01*
X175800001Y-95979999D01*
X175684276Y-95885026D01*
X175552247Y-95814454D01*
X175408986Y-95770997D01*
X175297333Y-95760000D01*
X175297322Y-95760000D01*
X175260000Y-95756324D01*
X175222678Y-95760000D01*
X175208043Y-95760000D01*
X175104637Y-95605241D01*
X174904759Y-95405363D01*
X174672241Y-95250000D01*
X174904759Y-95094637D01*
X175104637Y-94894759D01*
X175261680Y-94659727D01*
X175369853Y-94398574D01*
X175425000Y-94121335D01*
X175425000Y-93838665D01*
X175369853Y-93561426D01*
X175261680Y-93300273D01*
X175104637Y-93065241D01*
X174904759Y-92865363D01*
X174669727Y-92708320D01*
X174659135Y-92703933D01*
X174845131Y-92592385D01*
X175053519Y-92403414D01*
X175221037Y-92177420D01*
X175341246Y-91923087D01*
X175381904Y-91789039D01*
X175259915Y-91567000D01*
X174117000Y-91567000D01*
X174117000Y-91587000D01*
X173863000Y-91587000D01*
X173863000Y-91567000D01*
X172720085Y-91567000D01*
X172598096Y-91789039D01*
X172638754Y-91923087D01*
X172758963Y-92177420D01*
X172926481Y-92403414D01*
X173134869Y-92592385D01*
X173320865Y-92703933D01*
X173310273Y-92708320D01*
X173075241Y-92865363D01*
X172875363Y-93065241D01*
X172718320Y-93300273D01*
X172610147Y-93561426D01*
X172555000Y-93838665D01*
X172555000Y-94121335D01*
X172610147Y-94398574D01*
X172718320Y-94659727D01*
X172875363Y-94894759D01*
X173075241Y-95094637D01*
X173307759Y-95250000D01*
X173075241Y-95405363D01*
X172875363Y-95605241D01*
X172718320Y-95840273D01*
X172610147Y-96101426D01*
X172555000Y-96378665D01*
X172555000Y-96661335D01*
X172610147Y-96938574D01*
X172718320Y-97199727D01*
X172875363Y-97434759D01*
X173075241Y-97634637D01*
X173307759Y-97790000D01*
X173075241Y-97945363D01*
X172875363Y-98145241D01*
X172718320Y-98380273D01*
X172610147Y-98641426D01*
X172555000Y-98918665D01*
X172555000Y-99201335D01*
X172610147Y-99478574D01*
X172718320Y-99739727D01*
X172875363Y-99974759D01*
X173075241Y-100174637D01*
X173307759Y-100330000D01*
X173075241Y-100485363D01*
X172875363Y-100685241D01*
X172718320Y-100920273D01*
X172610147Y-101181426D01*
X172555000Y-101458665D01*
X172555000Y-101741335D01*
X172610147Y-102018574D01*
X172718320Y-102279727D01*
X172875363Y-102514759D01*
X173075241Y-102714637D01*
X173307759Y-102870000D01*
X173075241Y-103025363D01*
X172875363Y-103225241D01*
X172718320Y-103460273D01*
X172610147Y-103721426D01*
X172555000Y-103998665D01*
X172555000Y-104281335D01*
X172610147Y-104558574D01*
X172718320Y-104819727D01*
X172875363Y-105054759D01*
X173075241Y-105254637D01*
X173307759Y-105410000D01*
X173075241Y-105565363D01*
X172875363Y-105765241D01*
X172718320Y-106000273D01*
X172610147Y-106261426D01*
X172555000Y-106538665D01*
X172555000Y-106821335D01*
X172610147Y-107098574D01*
X172718320Y-107359727D01*
X172875363Y-107594759D01*
X173075241Y-107794637D01*
X173307759Y-107950000D01*
X173075241Y-108105363D01*
X172875363Y-108305241D01*
X172718320Y-108540273D01*
X172610147Y-108801426D01*
X172555000Y-109078665D01*
X172555000Y-109361335D01*
X172610147Y-109638574D01*
X172718320Y-109899727D01*
X172875363Y-110134759D01*
X173075241Y-110334637D01*
X173307759Y-110490000D01*
X173075241Y-110645363D01*
X172875363Y-110845241D01*
X172718320Y-111080273D01*
X172610147Y-111341426D01*
X172555000Y-111618665D01*
X172555000Y-111901335D01*
X172610147Y-112178574D01*
X172718320Y-112439727D01*
X172875363Y-112674759D01*
X173075241Y-112874637D01*
X173307759Y-113030000D01*
X173075241Y-113185363D01*
X172875363Y-113385241D01*
X172718320Y-113620273D01*
X172610147Y-113881426D01*
X172555000Y-114158665D01*
X172555000Y-114441335D01*
X172610147Y-114718574D01*
X172718320Y-114979727D01*
X172875363Y-115214759D01*
X173075241Y-115414637D01*
X173307759Y-115570000D01*
X173075241Y-115725363D01*
X172875363Y-115925241D01*
X172718320Y-116160273D01*
X172610147Y-116421426D01*
X172555000Y-116698665D01*
X172555000Y-116981335D01*
X172610147Y-117258574D01*
X172718320Y-117519727D01*
X172875363Y-117754759D01*
X173075241Y-117954637D01*
X173307759Y-118110000D01*
X173075241Y-118265363D01*
X172875363Y-118465241D01*
X172718320Y-118700273D01*
X172610147Y-118961426D01*
X172555000Y-119238665D01*
X172555000Y-119521335D01*
X172610147Y-119798574D01*
X172718320Y-120059727D01*
X172875363Y-120294759D01*
X173075241Y-120494637D01*
X173307759Y-120650000D01*
X173075241Y-120805363D01*
X172875363Y-121005241D01*
X172718320Y-121240273D01*
X172610147Y-121501426D01*
X172555000Y-121778665D01*
X172555000Y-122061335D01*
X172591312Y-122243886D01*
X168595199Y-126240000D01*
X155254803Y-126240000D01*
X153160000Y-124145199D01*
X153160000Y-120687323D01*
X153163676Y-120650000D01*
X153160000Y-120612677D01*
X153160000Y-120612667D01*
X153149003Y-120501014D01*
X153105546Y-120357753D01*
X153071875Y-120294759D01*
X153034974Y-120225723D01*
X152963799Y-120138997D01*
X152940001Y-120109999D01*
X152911003Y-120086201D01*
X148080000Y-115255199D01*
X148080000Y-114614801D01*
X149100001Y-113594801D01*
X149100001Y-114866288D01*
X149056063Y-114910226D01*
X148942795Y-115079744D01*
X148864774Y-115268102D01*
X148825000Y-115468061D01*
X148825000Y-115671939D01*
X148864774Y-115871898D01*
X148942795Y-116060256D01*
X149056063Y-116229774D01*
X149200226Y-116373937D01*
X149369744Y-116487205D01*
X149558102Y-116565226D01*
X149758061Y-116605000D01*
X149961939Y-116605000D01*
X150161898Y-116565226D01*
X150350256Y-116487205D01*
X150519774Y-116373937D01*
X150663937Y-116229774D01*
X150777205Y-116060256D01*
X150855226Y-115871898D01*
X150895000Y-115671939D01*
X150895000Y-115468061D01*
X150855226Y-115268102D01*
X150777205Y-115079744D01*
X150663937Y-114910226D01*
X150620000Y-114866289D01*
X150620000Y-96557322D01*
X150623676Y-96519999D01*
X150620000Y-96482676D01*
X150620000Y-96482667D01*
X150609003Y-96371014D01*
X150565546Y-96227753D01*
X150494974Y-96095724D01*
X150481811Y-96079685D01*
X150423799Y-96008996D01*
X150423795Y-96008992D01*
X150400001Y-95979999D01*
X150371009Y-95956206D01*
X148355000Y-93940199D01*
X148355000Y-93878061D01*
X148315226Y-93678102D01*
X148237205Y-93489744D01*
X148123937Y-93320226D01*
X147979774Y-93176063D01*
X147810256Y-93062795D01*
X147621898Y-92984774D01*
X147421939Y-92945000D01*
X147218061Y-92945000D01*
X147018102Y-92984774D01*
X146829744Y-93062795D01*
X146660226Y-93176063D01*
X146516063Y-93320226D01*
X146402795Y-93489744D01*
X146324774Y-93678102D01*
X146285000Y-93878061D01*
X146285000Y-94081939D01*
X146324774Y-94281898D01*
X146402795Y-94470256D01*
X146516063Y-94639774D01*
X146660226Y-94783937D01*
X146829744Y-94897205D01*
X147018102Y-94975226D01*
X147218061Y-95015000D01*
X147280199Y-95015000D01*
X149100000Y-96834803D01*
X149100001Y-110855988D01*
X149080256Y-110842795D01*
X148891898Y-110764774D01*
X148691939Y-110725000D01*
X148488061Y-110725000D01*
X148288102Y-110764774D01*
X148099744Y-110842795D01*
X147930226Y-110956063D01*
X147786063Y-111100226D01*
X147672795Y-111269744D01*
X147594774Y-111458102D01*
X147555000Y-111658061D01*
X147555000Y-111861939D01*
X147594774Y-112061898D01*
X147672795Y-112250256D01*
X147786063Y-112419774D01*
X147830000Y-112463711D01*
X147830000Y-112715198D01*
X146808998Y-113736201D01*
X146780000Y-113759999D01*
X146756203Y-113788996D01*
X146756201Y-113788998D01*
X146692012Y-113867211D01*
X146613804Y-113789003D01*
X146590001Y-113759999D01*
X146474276Y-113665026D01*
X146342247Y-113594454D01*
X146198986Y-113550997D01*
X146087333Y-113540000D01*
X146087322Y-113540000D01*
X146050000Y-113536324D01*
X146012678Y-113540000D01*
X143518178Y-113540000D01*
X143393475Y-113353368D01*
X143261620Y-113221513D01*
X143334180Y-113199502D01*
X143444494Y-113140537D01*
X143541185Y-113061185D01*
X143620537Y-112964494D01*
X143679502Y-112854180D01*
X143715812Y-112734482D01*
X143728072Y-112610000D01*
X143725000Y-112045750D01*
X143566250Y-111887000D01*
X142367000Y-111887000D01*
X142367000Y-111907000D01*
X142113000Y-111907000D01*
X142113000Y-111887000D01*
X140913750Y-111887000D01*
X140755000Y-112045750D01*
X140751928Y-112610000D01*
X140764188Y-112734482D01*
X140800498Y-112854180D01*
X140859463Y-112964494D01*
X140938815Y-113061185D01*
X141035506Y-113140537D01*
X141145820Y-113199502D01*
X141218380Y-113221513D01*
X141092348Y-113347545D01*
X139190000Y-111445199D01*
X139190000Y-110910000D01*
X140751928Y-110910000D01*
X140755000Y-111474250D01*
X140913750Y-111633000D01*
X142113000Y-111633000D01*
X142113000Y-110433750D01*
X142367000Y-110433750D01*
X142367000Y-111633000D01*
X143566250Y-111633000D01*
X143725000Y-111474250D01*
X143728072Y-110910000D01*
X143715812Y-110785518D01*
X143679502Y-110665820D01*
X143620537Y-110555506D01*
X143541185Y-110458815D01*
X143444494Y-110379463D01*
X143334180Y-110320498D01*
X143214482Y-110284188D01*
X143090000Y-110271928D01*
X142525750Y-110275000D01*
X142367000Y-110433750D01*
X142113000Y-110433750D01*
X141954250Y-110275000D01*
X141390000Y-110271928D01*
X141265518Y-110284188D01*
X141145820Y-110320498D01*
X141035506Y-110379463D01*
X140938815Y-110458815D01*
X140859463Y-110555506D01*
X140800498Y-110665820D01*
X140764188Y-110785518D01*
X140751928Y-110910000D01*
X139190000Y-110910000D01*
X139190000Y-103184801D01*
X141873592Y-100501210D01*
X142093740Y-100545000D01*
X142386260Y-100545000D01*
X142673158Y-100487932D01*
X142943411Y-100375990D01*
X143186632Y-100213475D01*
X143318487Y-100081620D01*
X143340498Y-100154180D01*
X143399463Y-100264494D01*
X143478815Y-100361185D01*
X143575506Y-100440537D01*
X143685820Y-100499502D01*
X143805518Y-100535812D01*
X143930000Y-100548072D01*
X144494250Y-100545000D01*
X144653000Y-100386250D01*
X144653000Y-99187000D01*
X144907000Y-99187000D01*
X144907000Y-100386250D01*
X145065750Y-100545000D01*
X145630000Y-100548072D01*
X145754482Y-100535812D01*
X145874180Y-100499502D01*
X145984494Y-100440537D01*
X146081185Y-100361185D01*
X146160537Y-100264494D01*
X146219502Y-100154180D01*
X146255812Y-100034482D01*
X146268072Y-99910000D01*
X146265000Y-99345750D01*
X146106250Y-99187000D01*
X144907000Y-99187000D01*
X144653000Y-99187000D01*
X144633000Y-99187000D01*
X144633000Y-98933000D01*
X144653000Y-98933000D01*
X144653000Y-98913000D01*
X144907000Y-98913000D01*
X144907000Y-98933000D01*
X146106250Y-98933000D01*
X146265000Y-98774250D01*
X146268072Y-98210000D01*
X146255812Y-98085518D01*
X146219502Y-97965820D01*
X146160537Y-97855506D01*
X146081185Y-97758815D01*
X145984494Y-97679463D01*
X145874180Y-97620498D01*
X145801620Y-97598487D01*
X145933475Y-97466632D01*
X146095990Y-97223411D01*
X146207932Y-96953158D01*
X146265000Y-96666260D01*
X146265000Y-96373740D01*
X146207932Y-96086842D01*
X146095990Y-95816589D01*
X145933475Y-95573368D01*
X145726632Y-95366525D01*
X145552240Y-95250000D01*
X145726632Y-95133475D01*
X145933475Y-94926632D01*
X146095990Y-94683411D01*
X146207932Y-94413158D01*
X146265000Y-94126260D01*
X146265000Y-93833740D01*
X146207932Y-93546842D01*
X146095990Y-93276589D01*
X145933475Y-93033368D01*
X145726632Y-92826525D01*
X145552240Y-92710000D01*
X145726632Y-92593475D01*
X145933475Y-92386632D01*
X146095990Y-92143411D01*
X146207932Y-91873158D01*
X146265000Y-91586260D01*
X146265000Y-91293740D01*
X146207932Y-91006842D01*
X146095990Y-90736589D01*
X145933475Y-90493368D01*
X145726632Y-90286525D01*
X145483411Y-90124010D01*
X145213158Y-90012068D01*
X144926260Y-89955000D01*
X144633740Y-89955000D01*
X144346842Y-90012068D01*
X144076589Y-90124010D01*
X143833368Y-90286525D01*
X143626525Y-90493368D01*
X143510000Y-90667760D01*
X143393475Y-90493368D01*
X143192454Y-90292347D01*
X145094803Y-88390000D01*
X149545199Y-88390000D01*
X152103823Y-90948625D01*
X152097832Y-90963088D01*
X152035000Y-91278967D01*
X152035000Y-91601033D01*
X152097832Y-91916912D01*
X152221082Y-92214463D01*
X152400013Y-92482252D01*
X152627748Y-92709987D01*
X152895537Y-92888918D01*
X153193088Y-93012168D01*
X153508967Y-93075000D01*
X153831033Y-93075000D01*
X154146912Y-93012168D01*
X154444463Y-92888918D01*
X154712252Y-92709987D01*
X154939987Y-92482252D01*
X155118918Y-92214463D01*
X155242168Y-91916912D01*
X155305000Y-91601033D01*
X155305000Y-91278967D01*
X155242168Y-90963088D01*
X155118918Y-90665537D01*
X154939987Y-90397748D01*
X154712252Y-90170013D01*
X154444463Y-89991082D01*
X154146912Y-89867832D01*
X153831033Y-89805000D01*
X153508967Y-89805000D01*
X153193088Y-89867832D01*
X153178625Y-89873823D01*
X151404802Y-88100000D01*
X157311928Y-88100000D01*
X157311928Y-89700000D01*
X157324188Y-89824482D01*
X157360498Y-89944180D01*
X157419463Y-90054494D01*
X157498815Y-90151185D01*
X157595506Y-90230537D01*
X157705820Y-90289502D01*
X157825518Y-90325812D01*
X157833961Y-90326643D01*
X157635363Y-90525241D01*
X157478320Y-90760273D01*
X157370147Y-91021426D01*
X157315000Y-91298665D01*
X157315000Y-91581335D01*
X157370147Y-91858574D01*
X157478320Y-92119727D01*
X157635363Y-92354759D01*
X157835241Y-92554637D01*
X158067759Y-92710000D01*
X157835241Y-92865363D01*
X157635363Y-93065241D01*
X157478320Y-93300273D01*
X157370147Y-93561426D01*
X157315000Y-93838665D01*
X157315000Y-94121335D01*
X157370147Y-94398574D01*
X157478320Y-94659727D01*
X157635363Y-94894759D01*
X157835241Y-95094637D01*
X158070273Y-95251680D01*
X158080865Y-95256067D01*
X157894869Y-95367615D01*
X157686481Y-95556586D01*
X157518963Y-95782580D01*
X157398754Y-96036913D01*
X157358096Y-96170961D01*
X157480085Y-96393000D01*
X158623000Y-96393000D01*
X158623000Y-96373000D01*
X158877000Y-96373000D01*
X158877000Y-96393000D01*
X160019915Y-96393000D01*
X160141904Y-96170961D01*
X160101246Y-96036913D01*
X159981037Y-95782580D01*
X159813519Y-95556586D01*
X159605131Y-95367615D01*
X159419135Y-95256067D01*
X159429727Y-95251680D01*
X159664759Y-95094637D01*
X159864637Y-94894759D01*
X160021680Y-94659727D01*
X160129853Y-94398574D01*
X160185000Y-94121335D01*
X160185000Y-93838665D01*
X160129853Y-93561426D01*
X160021680Y-93300273D01*
X159864637Y-93065241D01*
X159664759Y-92865363D01*
X159432241Y-92710000D01*
X159664759Y-92554637D01*
X159864637Y-92354759D01*
X160021680Y-92119727D01*
X160129853Y-91858574D01*
X160185000Y-91581335D01*
X160185000Y-91298665D01*
X160129853Y-91021426D01*
X160021680Y-90760273D01*
X159864637Y-90525241D01*
X159666039Y-90326643D01*
X159674482Y-90325812D01*
X159794180Y-90289502D01*
X159904494Y-90230537D01*
X160001185Y-90151185D01*
X160080537Y-90054494D01*
X160139502Y-89944180D01*
X160175812Y-89824482D01*
X160188072Y-89700000D01*
X160188072Y-88100000D01*
X160175812Y-87975518D01*
X160139502Y-87855820D01*
X160080537Y-87745506D01*
X160001185Y-87648815D01*
X159904494Y-87569463D01*
X159794180Y-87510498D01*
X159674482Y-87474188D01*
X159550000Y-87461928D01*
X157950000Y-87461928D01*
X157825518Y-87474188D01*
X157705820Y-87510498D01*
X157595506Y-87569463D01*
X157498815Y-87648815D01*
X157419463Y-87745506D01*
X157360498Y-87855820D01*
X157324188Y-87975518D01*
X157311928Y-88100000D01*
X151404802Y-88100000D01*
X150423804Y-87119003D01*
X150400001Y-87089999D01*
X150284276Y-86995026D01*
X150152247Y-86924454D01*
X150008986Y-86880997D01*
X149897333Y-86870000D01*
X149897322Y-86870000D01*
X149860000Y-86866324D01*
X149822678Y-86870000D01*
X144817322Y-86870000D01*
X144779999Y-86866324D01*
X144742676Y-86870000D01*
X144742667Y-86870000D01*
X144631014Y-86880997D01*
X144487753Y-86924454D01*
X144355724Y-86995026D01*
X144355722Y-86995027D01*
X144355723Y-86995027D01*
X144268996Y-87066201D01*
X144268992Y-87066205D01*
X144239999Y-87089999D01*
X144216205Y-87118992D01*
X141728998Y-89606201D01*
X141700000Y-89629999D01*
X141676202Y-89658997D01*
X141676201Y-89658998D01*
X141605026Y-89745724D01*
X141534454Y-89877754D01*
X141514305Y-89944180D01*
X141490998Y-90021014D01*
X141487144Y-90060147D01*
X141476927Y-90163875D01*
X141293368Y-90286525D01*
X141086525Y-90493368D01*
X140924010Y-90736589D01*
X140812068Y-91006842D01*
X140755000Y-91293740D01*
X140755000Y-91586260D01*
X140812068Y-91873158D01*
X140924010Y-92143411D01*
X141086525Y-92386632D01*
X141293368Y-92593475D01*
X141467760Y-92710000D01*
X141293368Y-92826525D01*
X141086525Y-93033368D01*
X140924010Y-93276589D01*
X140812068Y-93546842D01*
X140755000Y-93833740D01*
X140755000Y-94126260D01*
X140812068Y-94413158D01*
X140924010Y-94683411D01*
X141086525Y-94926632D01*
X141293368Y-95133475D01*
X141467760Y-95250000D01*
X141293368Y-95366525D01*
X141086525Y-95573368D01*
X140924010Y-95816589D01*
X140812068Y-96086842D01*
X140755000Y-96373740D01*
X140755000Y-96666260D01*
X140812068Y-96953158D01*
X140924010Y-97223411D01*
X141086525Y-97466632D01*
X141293368Y-97673475D01*
X141467760Y-97790000D01*
X141293368Y-97906525D01*
X141086525Y-98113368D01*
X140924010Y-98356589D01*
X140812068Y-98626842D01*
X140755000Y-98913740D01*
X140755000Y-99206260D01*
X140798790Y-99426408D01*
X138557000Y-101668199D01*
X138557000Y-77259721D01*
X140105000Y-77259721D01*
X140105000Y-77680279D01*
X140187047Y-78092756D01*
X140347988Y-78481302D01*
X140581637Y-78830983D01*
X140879017Y-79128363D01*
X141228698Y-79362012D01*
X141617244Y-79522953D01*
X142029721Y-79605000D01*
X142450279Y-79605000D01*
X142862756Y-79522953D01*
X143251302Y-79362012D01*
X143600983Y-79128363D01*
X143759346Y-78970000D01*
X145181928Y-78970000D01*
X145194188Y-79094482D01*
X145230498Y-79214180D01*
X145289463Y-79324494D01*
X145368815Y-79421185D01*
X145465506Y-79500537D01*
X145575820Y-79559502D01*
X145695518Y-79595812D01*
X145820000Y-79608072D01*
X147034250Y-79605000D01*
X147193000Y-79446250D01*
X147193000Y-77597000D01*
X147447000Y-77597000D01*
X147447000Y-79446250D01*
X147605750Y-79605000D01*
X148820000Y-79608072D01*
X148944482Y-79595812D01*
X149064180Y-79559502D01*
X149174494Y-79500537D01*
X149271185Y-79421185D01*
X149350537Y-79324494D01*
X149409502Y-79214180D01*
X149445812Y-79094482D01*
X149458072Y-78970000D01*
X149455000Y-77755750D01*
X149296250Y-77597000D01*
X147447000Y-77597000D01*
X147193000Y-77597000D01*
X145343750Y-77597000D01*
X145185000Y-77755750D01*
X145181928Y-78970000D01*
X143759346Y-78970000D01*
X143898363Y-78830983D01*
X144132012Y-78481302D01*
X144292953Y-78092756D01*
X144375000Y-77680279D01*
X144375000Y-77259721D01*
X144292953Y-76847244D01*
X144132012Y-76458698D01*
X143898363Y-76109017D01*
X143759346Y-75970000D01*
X145181928Y-75970000D01*
X145185000Y-77184250D01*
X145343750Y-77343000D01*
X147193000Y-77343000D01*
X147193000Y-75493750D01*
X147447000Y-75493750D01*
X147447000Y-77343000D01*
X149296250Y-77343000D01*
X149455000Y-77184250D01*
X149458072Y-75970000D01*
X149445812Y-75845518D01*
X149409502Y-75725820D01*
X149350537Y-75615506D01*
X149271185Y-75518815D01*
X149174494Y-75439463D01*
X149064180Y-75380498D01*
X148963642Y-75350000D01*
X190281928Y-75350000D01*
X190285000Y-75914250D01*
X190443750Y-76073000D01*
X191643000Y-76073000D01*
X191643000Y-74873750D01*
X191897000Y-74873750D01*
X191897000Y-76073000D01*
X193096250Y-76073000D01*
X193255000Y-75914250D01*
X193258072Y-75350000D01*
X193245812Y-75225518D01*
X193209502Y-75105820D01*
X193150537Y-74995506D01*
X193071185Y-74898815D01*
X192974494Y-74819463D01*
X192864180Y-74760498D01*
X192744482Y-74724188D01*
X192620000Y-74711928D01*
X192055750Y-74715000D01*
X191897000Y-74873750D01*
X191643000Y-74873750D01*
X191484250Y-74715000D01*
X190920000Y-74711928D01*
X190795518Y-74724188D01*
X190675820Y-74760498D01*
X190565506Y-74819463D01*
X190468815Y-74898815D01*
X190389463Y-74995506D01*
X190330498Y-75105820D01*
X190294188Y-75225518D01*
X190281928Y-75350000D01*
X148963642Y-75350000D01*
X148944482Y-75344188D01*
X148820000Y-75331928D01*
X147605750Y-75335000D01*
X147447000Y-75493750D01*
X147193000Y-75493750D01*
X147034250Y-75335000D01*
X145820000Y-75331928D01*
X145695518Y-75344188D01*
X145575820Y-75380498D01*
X145465506Y-75439463D01*
X145368815Y-75518815D01*
X145289463Y-75615506D01*
X145230498Y-75725820D01*
X145194188Y-75845518D01*
X145181928Y-75970000D01*
X143759346Y-75970000D01*
X143600983Y-75811637D01*
X143251302Y-75577988D01*
X142862756Y-75417047D01*
X142450279Y-75335000D01*
X142029721Y-75335000D01*
X141617244Y-75417047D01*
X141228698Y-75577988D01*
X140879017Y-75811637D01*
X140581637Y-76109017D01*
X140347988Y-76458698D01*
X140187047Y-76847244D01*
X140105000Y-77259721D01*
X138557000Y-77259721D01*
X138557000Y-73787000D01*
X195453000Y-73787000D01*
X195453000Y-130683000D01*
G37*
%TD.AperFunction*%
%TD*%
M02*
