M48
; DRILL file {KiCad (5.1.10)-1} date 08/05/21 17:27:11
; FORMAT={-:-/ absolute / inch / decimal}
; #@! TF.CreationDate,2021-08-05T17:27:11+03:00
; #@! TF.GenerationSoftware,Kicad,Pcbnew,(5.1.10)-1
FMAT,2
INCH
T1C0.0157
T2C0.0295
T3C0.0354
T4C0.0394
T5C0.0433
T6C0.0598
T7C0.1378
%
G90
G05
T1
X6.32Y-3.32
X6.32Y-3.4
X6.32Y-3.48
X6.32Y-3.56
X6.32Y-3.64
X6.36Y-3.36
X6.36Y-3.44
X6.36Y-3.52
X6.36Y-3.6
X6.4Y-3.32
X6.4Y-3.4
X6.4Y-3.48
X6.4Y-3.56
X6.4Y-3.64
X6.44Y-3.36
X6.44Y-3.44
X6.44Y-3.52
X6.44Y-3.6
X6.48Y-3.32
X6.48Y-3.4
X6.48Y-3.48
X6.48Y-3.56
X6.48Y-3.64
X6.52Y-3.36
X6.52Y-3.44
X6.52Y-3.52
X6.52Y-3.6
X6.56Y-3.32
X6.56Y-3.4
X6.56Y-3.48
X6.56Y-3.56
X6.56Y-3.64
X7.06Y-4.9
X7.32Y-3.34
X7.4Y-3.76
X7.46Y-4.84
T2
X6.86Y-4.76
X6.91Y-4.76
X6.96Y-4.76
T3
X6.64Y-5.02
X6.74Y-5.02
X7.08Y-5.02
X7.18Y-5.02
T4
X5.56Y-4.14
X5.6Y-4.4
X5.6Y-4.5
X5.6Y-4.6
X5.6Y-4.7
X5.6Y-4.8
X5.6Y-4.9
X5.66Y-4.14
X5.76Y-4.14
X6.16Y-5.04
X6.26Y-5.04
X6.36Y-5.04
X7.26Y-3.5
X7.26Y-3.6
X7.26Y-3.7
X7.26Y-3.8
X7.26Y-3.9
X7.26Y-4.0
X7.26Y-4.1
X7.26Y-4.2
X7.26Y-4.3
X7.26Y-4.4
X7.26Y-4.5
X7.26Y-4.6
X7.26Y-4.7
X7.55Y-3.0
X7.55Y-3.1
X7.55Y-3.2
X7.55Y-3.3
X7.55Y-3.4
X7.55Y-3.5
X7.55Y-3.6
X7.55Y-3.7
X7.55Y-3.8
X7.55Y-3.9
X7.55Y-4.0
X7.55Y-4.1
X7.55Y-4.2
X7.55Y-4.3
X7.55Y-4.4
X7.55Y-4.5
X7.55Y-4.6
X7.55Y-4.7
X7.55Y-4.8
X7.55Y-4.9
T5
X6.8159Y-3.38
X6.8159Y-3.48
X6.8159Y-3.58
T6
X5.6Y-3.05
X5.66Y-3.54
X5.66Y-3.74
X5.66Y-3.94
X5.8Y-3.05
X7.04Y-3.06
X7.24Y-3.06
T7
X6.16Y-3.48
T0
M30
