%TF.GenerationSoftware,KiCad,Pcbnew,(5.1.10)-1*%
%TF.CreationDate,2021-08-05T17:27:16+03:00*%
%TF.ProjectId,YevgeniK,59657667-656e-4694-9b2e-6b696361645f,rev?*%
%TF.SameCoordinates,Original*%
%TF.FileFunction,Copper,L2,Bot*%
%TF.FilePolarity,Positive*%
%FSLAX46Y46*%
G04 Gerber Fmt 4.6, Leading zero omitted, Abs format (unit mm)*
G04 Created by KiCad (PCBNEW (5.1.10)-1) date 2021-08-05 17:27:16*
%MOMM*%
%LPD*%
G01*
G04 APERTURE LIST*
%TA.AperFunction,ComponentPad*%
%ADD10C,3.000000*%
%TD*%
%TA.AperFunction,ComponentPad*%
%ADD11R,3.000000X3.000000*%
%TD*%
%TA.AperFunction,ComponentPad*%
%ADD12O,2.000000X1.905000*%
%TD*%
%TA.AperFunction,ComponentPad*%
%ADD13R,2.000000X1.905000*%
%TD*%
%TA.AperFunction,ComponentPad*%
%ADD14R,1.050000X1.500000*%
%TD*%
%TA.AperFunction,ComponentPad*%
%ADD15O,1.050000X1.500000*%
%TD*%
%TA.AperFunction,ComponentPad*%
%ADD16O,1.700000X1.700000*%
%TD*%
%TA.AperFunction,ComponentPad*%
%ADD17R,1.700000X1.700000*%
%TD*%
%TA.AperFunction,ComponentPad*%
%ADD18C,1.800000*%
%TD*%
%TA.AperFunction,ComponentPad*%
%ADD19R,1.800000X1.800000*%
%TD*%
%TA.AperFunction,ViaPad*%
%ADD20C,0.800000*%
%TD*%
%TA.AperFunction,Conductor*%
%ADD21C,0.250000*%
%TD*%
%TA.AperFunction,Conductor*%
%ADD22C,1.000000*%
%TD*%
%TA.AperFunction,Conductor*%
%ADD23C,0.254000*%
%TD*%
%TA.AperFunction,Conductor*%
%ADD24C,0.100000*%
%TD*%
G04 APERTURE END LIST*
D10*
%TO.P,J6,3*%
%TO.N,GND*%
X143764000Y-100076000D03*
%TO.P,J6,2*%
%TO.N,/D3*%
X143764000Y-94996000D03*
D11*
%TO.P,J6,1*%
%TO.N,+5V*%
X143764000Y-89916000D03*
%TD*%
D10*
%TO.P,J3,2*%
%TO.N,GND*%
X178816000Y-77724000D03*
D11*
%TO.P,J3,1*%
%TO.N,Net-(J3-Pad1)*%
X183896000Y-77724000D03*
%TD*%
%TO.P,R3,2*%
%TO.N,Net-(Q1-Pad2)*%
%TA.AperFunction,SMDPad,CuDef*%
G36*
G01*
X178873999Y-118660500D02*
X179774001Y-118660500D01*
G75*
G02*
X180024000Y-118910499I0J-249999D01*
G01*
X180024000Y-119435501D01*
G75*
G02*
X179774001Y-119685500I-249999J0D01*
G01*
X178873999Y-119685500D01*
G75*
G02*
X178624000Y-119435501I0J249999D01*
G01*
X178624000Y-118910499D01*
G75*
G02*
X178873999Y-118660500I249999J0D01*
G01*
G37*
%TD.AperFunction*%
%TO.P,R3,1*%
%TO.N,/D6*%
%TA.AperFunction,SMDPad,CuDef*%
G36*
G01*
X178873999Y-116835500D02*
X179774001Y-116835500D01*
G75*
G02*
X180024000Y-117085499I0J-249999D01*
G01*
X180024000Y-117610501D01*
G75*
G02*
X179774001Y-117860500I-249999J0D01*
G01*
X178873999Y-117860500D01*
G75*
G02*
X178624000Y-117610501I0J249999D01*
G01*
X178624000Y-117085499D01*
G75*
G02*
X178873999Y-116835500I249999J0D01*
G01*
G37*
%TD.AperFunction*%
%TD*%
%TO.P,R2,2*%
%TO.N,Net-(D2-Pad2)*%
%TA.AperFunction,SMDPad,CuDef*%
G36*
G01*
X185810999Y-128469500D02*
X187061001Y-128469500D01*
G75*
G02*
X187311000Y-128719499I0J-249999D01*
G01*
X187311000Y-129344501D01*
G75*
G02*
X187061001Y-129594500I-249999J0D01*
G01*
X185810999Y-129594500D01*
G75*
G02*
X185561000Y-129344501I0J249999D01*
G01*
X185561000Y-128719499D01*
G75*
G02*
X185810999Y-128469500I249999J0D01*
G01*
G37*
%TD.AperFunction*%
%TO.P,R2,1*%
%TO.N,Net-(Q1-Pad3)*%
%TA.AperFunction,SMDPad,CuDef*%
G36*
G01*
X185810999Y-125544500D02*
X187061001Y-125544500D01*
G75*
G02*
X187311000Y-125794499I0J-249999D01*
G01*
X187311000Y-126419501D01*
G75*
G02*
X187061001Y-126669500I-249999J0D01*
G01*
X185810999Y-126669500D01*
G75*
G02*
X185561000Y-126419501I0J249999D01*
G01*
X185561000Y-125794499D01*
G75*
G02*
X185810999Y-125544500I249999J0D01*
G01*
G37*
%TD.AperFunction*%
%TD*%
%TO.P,R1,2*%
%TO.N,Net-(D1-Pad2)*%
%TA.AperFunction,SMDPad,CuDef*%
G36*
G01*
X175142999Y-128408000D02*
X176393001Y-128408000D01*
G75*
G02*
X176643000Y-128657999I0J-249999D01*
G01*
X176643000Y-129283001D01*
G75*
G02*
X176393001Y-129533000I-249999J0D01*
G01*
X175142999Y-129533000D01*
G75*
G02*
X174893000Y-129283001I0J249999D01*
G01*
X174893000Y-128657999D01*
G75*
G02*
X175142999Y-128408000I249999J0D01*
G01*
G37*
%TD.AperFunction*%
%TO.P,R1,1*%
%TO.N,/D5*%
%TA.AperFunction,SMDPad,CuDef*%
G36*
G01*
X175142999Y-125483000D02*
X176393001Y-125483000D01*
G75*
G02*
X176643000Y-125732999I0J-249999D01*
G01*
X176643000Y-126358001D01*
G75*
G02*
X176393001Y-126608000I-249999J0D01*
G01*
X175142999Y-126608000D01*
G75*
G02*
X174893000Y-126358001I0J249999D01*
G01*
X174893000Y-125732999D01*
G75*
G02*
X175142999Y-125483000I249999J0D01*
G01*
G37*
%TD.AperFunction*%
%TD*%
D12*
%TO.P,Q2,3*%
%TO.N,Net-(J3-Pad1)*%
X173124000Y-85852000D03*
%TO.P,Q2,2*%
%TO.N,VS*%
X173124000Y-88392000D03*
D13*
%TO.P,Q2,1*%
%TO.N,/D4*%
X173124000Y-90932000D03*
%TD*%
D14*
%TO.P,Q1,1*%
%TO.N,+5V*%
X174244000Y-120904000D03*
D15*
%TO.P,Q1,3*%
%TO.N,Net-(Q1-Pad3)*%
X176784000Y-120904000D03*
%TO.P,Q1,2*%
%TO.N,Net-(Q1-Pad2)*%
X175514000Y-120904000D03*
%TD*%
D16*
%TO.P,J8,13*%
%TO.N,/A0*%
X184404000Y-119380000D03*
%TO.P,J8,12*%
%TO.N,/A1*%
X184404000Y-116840000D03*
%TO.P,J8,11*%
%TO.N,/A2*%
X184404000Y-114300000D03*
%TO.P,J8,10*%
%TO.N,/A3*%
X184404000Y-111760000D03*
%TO.P,J8,9*%
%TO.N,/A4*%
X184404000Y-109220000D03*
%TO.P,J8,8*%
%TO.N,/A5*%
X184404000Y-106680000D03*
%TO.P,J8,7*%
%TO.N,/A6*%
X184404000Y-104140000D03*
%TO.P,J8,6*%
%TO.N,/A7*%
X184404000Y-101600000D03*
%TO.P,J8,5*%
%TO.N,/D10*%
X184404000Y-99060000D03*
%TO.P,J8,4*%
%TO.N,/D9*%
X184404000Y-96520000D03*
%TO.P,J8,3*%
%TO.N,/D3*%
X184404000Y-93980000D03*
%TO.P,J8,2*%
%TO.N,/DO*%
X184404000Y-91440000D03*
D17*
%TO.P,J8,1*%
%TO.N,/D1*%
X184404000Y-88900000D03*
%TD*%
D16*
%TO.P,J7,3*%
%TO.N,GND*%
X161544000Y-128016000D03*
%TO.P,J7,2*%
%TO.N,/D2*%
X159004000Y-128016000D03*
D17*
%TO.P,J7,1*%
%TO.N,+5V*%
X156464000Y-128016000D03*
%TD*%
D16*
%TO.P,J5,3*%
%TO.N,+5V*%
X141224000Y-105156000D03*
%TO.P,J5,2*%
%TO.N,/D3*%
X143764000Y-105156000D03*
D17*
%TO.P,J5,1*%
%TO.N,GND*%
X146304000Y-105156000D03*
%TD*%
D18*
%TO.P,D2,2*%
%TO.N,Net-(D2-Pad2)*%
X182372000Y-127508000D03*
D19*
%TO.P,D2,1*%
%TO.N,GND*%
X179832000Y-127508000D03*
%TD*%
D18*
%TO.P,D1,2*%
%TO.N,Net-(D1-Pad2)*%
X171196000Y-127508000D03*
D19*
%TO.P,D1,1*%
%TO.N,GND*%
X168656000Y-127508000D03*
%TD*%
D11*
%TO.P,J1,1*%
%TO.N,GND*%
X147320000Y-77470000D03*
D10*
%TO.P,J1,2*%
%TO.N,VS*%
X142240000Y-77470000D03*
%TD*%
D17*
%TO.P,J2,1*%
%TO.N,GND*%
X191770000Y-76200000D03*
D16*
%TO.P,J2,2*%
%TO.N,/D1*%
X191770000Y-78740000D03*
%TO.P,J2,3*%
%TO.N,/DO*%
X191770000Y-81280000D03*
%TO.P,J2,4*%
%TO.N,/D2*%
X191770000Y-83820000D03*
%TO.P,J2,5*%
%TO.N,/D3*%
X191770000Y-86360000D03*
%TO.P,J2,6*%
%TO.N,/D4*%
X191770000Y-88900000D03*
%TO.P,J2,7*%
%TO.N,/D5*%
X191770000Y-91440000D03*
%TO.P,J2,8*%
%TO.N,/D6*%
X191770000Y-93980000D03*
%TO.P,J2,9*%
%TO.N,/D9*%
X191770000Y-96520000D03*
%TO.P,J2,10*%
%TO.N,/D10*%
X191770000Y-99060000D03*
%TO.P,J2,11*%
%TO.N,/A7*%
X191770000Y-101600000D03*
%TO.P,J2,12*%
%TO.N,/A6*%
X191770000Y-104140000D03*
%TO.P,J2,13*%
%TO.N,/A5*%
X191770000Y-106680000D03*
%TO.P,J2,14*%
%TO.N,/A4*%
X191770000Y-109220000D03*
%TO.P,J2,15*%
%TO.N,/A3*%
X191770000Y-111760000D03*
%TO.P,J2,16*%
%TO.N,/A2*%
X191770000Y-114300000D03*
%TO.P,J2,17*%
%TO.N,/A1*%
X191770000Y-116840000D03*
%TO.P,J2,18*%
%TO.N,/A0*%
X191770000Y-119380000D03*
%TO.P,J2,19*%
%TO.N,+5V*%
X191770000Y-121920000D03*
%TO.P,J2,20*%
%TO.N,+3V3*%
X191770000Y-124460000D03*
%TD*%
D17*
%TO.P,J4,1*%
%TO.N,Net-(J4-Pad1)*%
X142240000Y-111760000D03*
D16*
%TO.P,J4,2*%
%TO.N,Net-(J4-Pad2)*%
X142240000Y-114300000D03*
%TO.P,J4,3*%
%TO.N,Net-(J4-Pad3)*%
X142240000Y-116840000D03*
%TO.P,J4,4*%
%TO.N,Net-(J4-Pad4)*%
X142240000Y-119380000D03*
%TO.P,J4,5*%
%TO.N,Net-(J4-Pad5)*%
X142240000Y-121920000D03*
%TO.P,J4,6*%
%TO.N,Net-(J4-Pad6)*%
X142240000Y-124460000D03*
%TD*%
D20*
%TO.N,GND*%
X160528000Y-84328000D03*
X160528000Y-86360000D03*
X160528000Y-88392000D03*
X160528000Y-90424000D03*
X160528000Y-92456000D03*
X161544000Y-87376000D03*
X161544000Y-85344000D03*
X161544000Y-89408000D03*
X162560000Y-86360000D03*
X162560000Y-90424000D03*
X162560000Y-84328000D03*
X162560000Y-88392000D03*
X162560000Y-92456000D03*
X163576000Y-87376000D03*
X163576000Y-85344000D03*
X163576000Y-89408000D03*
X163576000Y-91440000D03*
X164592000Y-84328000D03*
X164592000Y-88392000D03*
X164592000Y-86360000D03*
X164592000Y-92456000D03*
X164592000Y-90424000D03*
X165608000Y-89408000D03*
X165608000Y-91440000D03*
X165608000Y-87376000D03*
X165608000Y-85344000D03*
X166624000Y-92456000D03*
X166624000Y-86360000D03*
X166624000Y-90424000D03*
X166624000Y-88392000D03*
X166624000Y-84328000D03*
X161544000Y-91440000D03*
%TO.N,/D4*%
X185928000Y-84836000D03*
%TO.N,/D5*%
X179324000Y-124460000D03*
X189484000Y-122936000D03*
%TO.N,/D6*%
X187960000Y-95504000D03*
%TD*%
D21*
%TO.N,/D2*%
X159004000Y-128016000D02*
X159004000Y-123444000D01*
X159004000Y-123444000D02*
X161036000Y-121412000D01*
X161036000Y-121412000D02*
X167132000Y-121412000D01*
X167132000Y-121412000D02*
X180848000Y-107696000D01*
X180848000Y-107696000D02*
X180848000Y-87376000D01*
X184404000Y-83820000D02*
X191770000Y-83820000D01*
X180848000Y-87376000D02*
X184404000Y-83820000D01*
%TO.N,/D3*%
X141732000Y-94996000D02*
X143764000Y-94996000D01*
X140716000Y-96012000D02*
X141732000Y-94996000D01*
X140716000Y-102108000D02*
X140716000Y-96012000D01*
X143764000Y-105156000D02*
X140716000Y-102108000D01*
%TO.N,/D4*%
X189992000Y-88900000D02*
X191770000Y-88900000D01*
X185928000Y-84836000D02*
X189992000Y-88900000D01*
%TO.N,/D5*%
X175768000Y-126045500D02*
X177738500Y-126045500D01*
X177738500Y-126045500D02*
X179324000Y-124460000D01*
X189484000Y-122936000D02*
X189992000Y-122428000D01*
X189992000Y-122428000D02*
X189992000Y-91948000D01*
X190500000Y-91440000D02*
X191770000Y-91440000D01*
X189992000Y-91948000D02*
X190500000Y-91440000D01*
%TO.N,/D6*%
X179324000Y-117348000D02*
X184912000Y-122936000D01*
X184912000Y-122936000D02*
X185928000Y-122936000D01*
X187960000Y-120904000D02*
X187960000Y-95504000D01*
X185928000Y-122936000D02*
X187960000Y-120904000D01*
D22*
%TO.N,VS*%
X169164000Y-87376000D02*
X170180000Y-88392000D01*
X169164000Y-84328000D02*
X169164000Y-87376000D01*
X167132000Y-82296000D02*
X169164000Y-84328000D01*
X147066000Y-82296000D02*
X167132000Y-82296000D01*
X170180000Y-88392000D02*
X173124000Y-88392000D01*
X142240000Y-77470000D02*
X147066000Y-82296000D01*
D21*
%TO.N,Net-(D1-Pad2)*%
X172658500Y-128970500D02*
X171196000Y-127508000D01*
X175768000Y-128970500D02*
X172658500Y-128970500D01*
%TO.N,Net-(D2-Pad2)*%
X183896000Y-129032000D02*
X182372000Y-127508000D01*
X186436000Y-129032000D02*
X183896000Y-129032000D01*
D22*
%TO.N,Net-(J3-Pad1)*%
X175768000Y-85852000D02*
X183896000Y-77724000D01*
X173124000Y-85852000D02*
X175768000Y-85852000D01*
D21*
%TO.N,Net-(Q1-Pad3)*%
X183104810Y-126107000D02*
X179933810Y-122936000D01*
X186436000Y-126107000D02*
X183104810Y-126107000D01*
X178816000Y-122936000D02*
X176784000Y-120904000D01*
X179933810Y-122936000D02*
X178816000Y-122936000D01*
%TO.N,Net-(Q1-Pad2)*%
X176245000Y-119173000D02*
X179324000Y-119173000D01*
X175514000Y-119904000D02*
X176245000Y-119173000D01*
X175514000Y-120904000D02*
X175514000Y-119904000D01*
%TD*%
D23*
%TO.N,GND*%
X195453000Y-130683000D02*
X138557000Y-130683000D01*
X138557000Y-127166000D01*
X154975928Y-127166000D01*
X154975928Y-128866000D01*
X154988188Y-128990482D01*
X155024498Y-129110180D01*
X155083463Y-129220494D01*
X155162815Y-129317185D01*
X155259506Y-129396537D01*
X155369820Y-129455502D01*
X155489518Y-129491812D01*
X155614000Y-129504072D01*
X157314000Y-129504072D01*
X157438482Y-129491812D01*
X157558180Y-129455502D01*
X157668494Y-129396537D01*
X157765185Y-129317185D01*
X157844537Y-129220494D01*
X157903502Y-129110180D01*
X157925513Y-129037620D01*
X158057368Y-129169475D01*
X158300589Y-129331990D01*
X158570842Y-129443932D01*
X158857740Y-129501000D01*
X159150260Y-129501000D01*
X159437158Y-129443932D01*
X159707411Y-129331990D01*
X159950632Y-129169475D01*
X160157475Y-128962632D01*
X160279195Y-128780466D01*
X160348822Y-128897355D01*
X160543731Y-129113588D01*
X160777080Y-129287641D01*
X161039901Y-129412825D01*
X161187110Y-129457476D01*
X161417000Y-129336155D01*
X161417000Y-128143000D01*
X161671000Y-128143000D01*
X161671000Y-129336155D01*
X161900890Y-129457476D01*
X162048099Y-129412825D01*
X162310920Y-129287641D01*
X162544269Y-129113588D01*
X162739178Y-128897355D01*
X162888157Y-128647252D01*
X162973026Y-128408000D01*
X167117928Y-128408000D01*
X167130188Y-128532482D01*
X167166498Y-128652180D01*
X167225463Y-128762494D01*
X167304815Y-128859185D01*
X167401506Y-128938537D01*
X167511820Y-128997502D01*
X167631518Y-129033812D01*
X167756000Y-129046072D01*
X168370250Y-129043000D01*
X168529000Y-128884250D01*
X168529000Y-127635000D01*
X167279750Y-127635000D01*
X167121000Y-127793750D01*
X167117928Y-128408000D01*
X162973026Y-128408000D01*
X162985481Y-128372891D01*
X162864814Y-128143000D01*
X161671000Y-128143000D01*
X161417000Y-128143000D01*
X161397000Y-128143000D01*
X161397000Y-127889000D01*
X161417000Y-127889000D01*
X161417000Y-126695845D01*
X161671000Y-126695845D01*
X161671000Y-127889000D01*
X162864814Y-127889000D01*
X162985481Y-127659109D01*
X162888157Y-127384748D01*
X162739178Y-127134645D01*
X162544269Y-126918412D01*
X162310920Y-126744359D01*
X162048099Y-126619175D01*
X162011257Y-126608000D01*
X167117928Y-126608000D01*
X167121000Y-127222250D01*
X167279750Y-127381000D01*
X168529000Y-127381000D01*
X168529000Y-126131750D01*
X168783000Y-126131750D01*
X168783000Y-127381000D01*
X168803000Y-127381000D01*
X168803000Y-127635000D01*
X168783000Y-127635000D01*
X168783000Y-128884250D01*
X168941750Y-129043000D01*
X169556000Y-129046072D01*
X169680482Y-129033812D01*
X169800180Y-128997502D01*
X169910494Y-128938537D01*
X170007185Y-128859185D01*
X170086537Y-128762494D01*
X170145502Y-128652180D01*
X170151056Y-128633873D01*
X170217495Y-128700312D01*
X170468905Y-128868299D01*
X170748257Y-128984011D01*
X171044816Y-129043000D01*
X171347184Y-129043000D01*
X171604930Y-128991731D01*
X172094701Y-129481503D01*
X172118499Y-129510501D01*
X172234224Y-129605474D01*
X172366253Y-129676046D01*
X172509514Y-129719503D01*
X172621167Y-129730500D01*
X172621176Y-129730500D01*
X172658499Y-129734176D01*
X172695822Y-129730500D01*
X174380068Y-129730500D01*
X174404595Y-129776387D01*
X174515038Y-129910962D01*
X174649613Y-130021405D01*
X174803149Y-130103472D01*
X174969745Y-130154008D01*
X175142999Y-130171072D01*
X176393001Y-130171072D01*
X176566255Y-130154008D01*
X176732851Y-130103472D01*
X176886387Y-130021405D01*
X177020962Y-129910962D01*
X177131405Y-129776387D01*
X177213472Y-129622851D01*
X177264008Y-129456255D01*
X177281072Y-129283001D01*
X177281072Y-128657999D01*
X177264008Y-128484745D01*
X177240728Y-128408000D01*
X178293928Y-128408000D01*
X178306188Y-128532482D01*
X178342498Y-128652180D01*
X178401463Y-128762494D01*
X178480815Y-128859185D01*
X178577506Y-128938537D01*
X178687820Y-128997502D01*
X178807518Y-129033812D01*
X178932000Y-129046072D01*
X179546250Y-129043000D01*
X179705000Y-128884250D01*
X179705000Y-127635000D01*
X178455750Y-127635000D01*
X178297000Y-127793750D01*
X178293928Y-128408000D01*
X177240728Y-128408000D01*
X177213472Y-128318149D01*
X177131405Y-128164613D01*
X177020962Y-128030038D01*
X176886387Y-127919595D01*
X176732851Y-127837528D01*
X176566255Y-127786992D01*
X176393001Y-127769928D01*
X175142999Y-127769928D01*
X174969745Y-127786992D01*
X174803149Y-127837528D01*
X174649613Y-127919595D01*
X174515038Y-128030038D01*
X174404595Y-128164613D01*
X174380068Y-128210500D01*
X172973302Y-128210500D01*
X172679731Y-127916930D01*
X172731000Y-127659184D01*
X172731000Y-127356816D01*
X172672011Y-127060257D01*
X172556299Y-126780905D01*
X172388312Y-126529495D01*
X172174505Y-126315688D01*
X171923095Y-126147701D01*
X171643743Y-126031989D01*
X171347184Y-125973000D01*
X171044816Y-125973000D01*
X170748257Y-126031989D01*
X170468905Y-126147701D01*
X170217495Y-126315688D01*
X170151056Y-126382127D01*
X170145502Y-126363820D01*
X170086537Y-126253506D01*
X170007185Y-126156815D01*
X169910494Y-126077463D01*
X169800180Y-126018498D01*
X169680482Y-125982188D01*
X169556000Y-125969928D01*
X168941750Y-125973000D01*
X168783000Y-126131750D01*
X168529000Y-126131750D01*
X168370250Y-125973000D01*
X167756000Y-125969928D01*
X167631518Y-125982188D01*
X167511820Y-126018498D01*
X167401506Y-126077463D01*
X167304815Y-126156815D01*
X167225463Y-126253506D01*
X167166498Y-126363820D01*
X167130188Y-126483518D01*
X167117928Y-126608000D01*
X162011257Y-126608000D01*
X161900890Y-126574524D01*
X161671000Y-126695845D01*
X161417000Y-126695845D01*
X161187110Y-126574524D01*
X161039901Y-126619175D01*
X160777080Y-126744359D01*
X160543731Y-126918412D01*
X160348822Y-127134645D01*
X160279195Y-127251534D01*
X160157475Y-127069368D01*
X159950632Y-126862525D01*
X159764000Y-126737822D01*
X159764000Y-123758801D01*
X161350802Y-122172000D01*
X167094678Y-122172000D01*
X167132000Y-122175676D01*
X167169322Y-122172000D01*
X167169333Y-122172000D01*
X167280986Y-122161003D01*
X167424247Y-122117546D01*
X167556276Y-122046974D01*
X167672001Y-121952001D01*
X167695804Y-121922997D01*
X169464801Y-120154000D01*
X173080928Y-120154000D01*
X173080928Y-121654000D01*
X173093188Y-121778482D01*
X173129498Y-121898180D01*
X173188463Y-122008494D01*
X173267815Y-122105185D01*
X173364506Y-122184537D01*
X173474820Y-122243502D01*
X173594518Y-122279812D01*
X173719000Y-122292072D01*
X174769000Y-122292072D01*
X174893482Y-122279812D01*
X175013180Y-122243502D01*
X175077902Y-122208907D01*
X175286601Y-122272215D01*
X175514000Y-122294612D01*
X175741400Y-122272215D01*
X175960060Y-122205885D01*
X176149000Y-122104894D01*
X176337941Y-122205885D01*
X176556601Y-122272215D01*
X176784000Y-122294612D01*
X177011400Y-122272215D01*
X177062049Y-122256851D01*
X178252200Y-123447002D01*
X178275999Y-123476001D01*
X178304997Y-123499799D01*
X178391723Y-123570974D01*
X178523751Y-123641545D01*
X178523753Y-123641546D01*
X178642670Y-123677619D01*
X178520063Y-123800226D01*
X178406795Y-123969744D01*
X178328774Y-124158102D01*
X178289000Y-124358061D01*
X178289000Y-124420198D01*
X177423699Y-125285500D01*
X177155932Y-125285500D01*
X177131405Y-125239613D01*
X177020962Y-125105038D01*
X176886387Y-124994595D01*
X176732851Y-124912528D01*
X176566255Y-124861992D01*
X176393001Y-124844928D01*
X175142999Y-124844928D01*
X174969745Y-124861992D01*
X174803149Y-124912528D01*
X174649613Y-124994595D01*
X174515038Y-125105038D01*
X174404595Y-125239613D01*
X174322528Y-125393149D01*
X174271992Y-125559745D01*
X174254928Y-125732999D01*
X174254928Y-126358001D01*
X174271992Y-126531255D01*
X174322528Y-126697851D01*
X174404595Y-126851387D01*
X174515038Y-126985962D01*
X174649613Y-127096405D01*
X174803149Y-127178472D01*
X174969745Y-127229008D01*
X175142999Y-127246072D01*
X176393001Y-127246072D01*
X176566255Y-127229008D01*
X176732851Y-127178472D01*
X176886387Y-127096405D01*
X177020962Y-126985962D01*
X177131405Y-126851387D01*
X177155932Y-126805500D01*
X177701178Y-126805500D01*
X177738500Y-126809176D01*
X177775822Y-126805500D01*
X177775833Y-126805500D01*
X177887486Y-126794503D01*
X178030747Y-126751046D01*
X178162776Y-126680474D01*
X178278501Y-126585501D01*
X178298550Y-126561071D01*
X178293928Y-126608000D01*
X178297000Y-127222250D01*
X178455750Y-127381000D01*
X179705000Y-127381000D01*
X179705000Y-126131750D01*
X179546250Y-125973000D01*
X178932000Y-125969928D01*
X178884162Y-125974639D01*
X179363802Y-125495000D01*
X179425939Y-125495000D01*
X179625898Y-125455226D01*
X179814256Y-125377205D01*
X179983774Y-125263937D01*
X180127937Y-125119774D01*
X180241205Y-124950256D01*
X180319226Y-124761898D01*
X180359000Y-124561939D01*
X180359000Y-124435991D01*
X181949897Y-126026889D01*
X181924257Y-126031989D01*
X181644905Y-126147701D01*
X181393495Y-126315688D01*
X181327056Y-126382127D01*
X181321502Y-126363820D01*
X181262537Y-126253506D01*
X181183185Y-126156815D01*
X181086494Y-126077463D01*
X180976180Y-126018498D01*
X180856482Y-125982188D01*
X180732000Y-125969928D01*
X180117750Y-125973000D01*
X179959000Y-126131750D01*
X179959000Y-127381000D01*
X179979000Y-127381000D01*
X179979000Y-127635000D01*
X179959000Y-127635000D01*
X179959000Y-128884250D01*
X180117750Y-129043000D01*
X180732000Y-129046072D01*
X180856482Y-129033812D01*
X180976180Y-128997502D01*
X181086494Y-128938537D01*
X181183185Y-128859185D01*
X181262537Y-128762494D01*
X181321502Y-128652180D01*
X181327056Y-128633873D01*
X181393495Y-128700312D01*
X181644905Y-128868299D01*
X181924257Y-128984011D01*
X182220816Y-129043000D01*
X182523184Y-129043000D01*
X182780929Y-128991731D01*
X183332205Y-129543008D01*
X183355999Y-129572001D01*
X183384992Y-129595795D01*
X183384996Y-129595799D01*
X183455685Y-129653811D01*
X183471724Y-129666974D01*
X183603753Y-129737546D01*
X183747014Y-129781003D01*
X183858667Y-129792000D01*
X183858676Y-129792000D01*
X183895999Y-129795676D01*
X183933322Y-129792000D01*
X185048068Y-129792000D01*
X185072595Y-129837887D01*
X185183038Y-129972462D01*
X185317613Y-130082905D01*
X185471149Y-130164972D01*
X185637745Y-130215508D01*
X185810999Y-130232572D01*
X187061001Y-130232572D01*
X187234255Y-130215508D01*
X187400851Y-130164972D01*
X187554387Y-130082905D01*
X187688962Y-129972462D01*
X187799405Y-129837887D01*
X187881472Y-129684351D01*
X187932008Y-129517755D01*
X187949072Y-129344501D01*
X187949072Y-128719499D01*
X187932008Y-128546245D01*
X187881472Y-128379649D01*
X187799405Y-128226113D01*
X187688962Y-128091538D01*
X187554387Y-127981095D01*
X187400851Y-127899028D01*
X187234255Y-127848492D01*
X187061001Y-127831428D01*
X185810999Y-127831428D01*
X185637745Y-127848492D01*
X185471149Y-127899028D01*
X185317613Y-127981095D01*
X185183038Y-128091538D01*
X185072595Y-128226113D01*
X185048068Y-128272000D01*
X184210803Y-128272000D01*
X183855731Y-127916929D01*
X183907000Y-127659184D01*
X183907000Y-127356816D01*
X183848011Y-127060257D01*
X183767961Y-126867000D01*
X185048068Y-126867000D01*
X185072595Y-126912887D01*
X185183038Y-127047462D01*
X185317613Y-127157905D01*
X185471149Y-127239972D01*
X185637745Y-127290508D01*
X185810999Y-127307572D01*
X187061001Y-127307572D01*
X187234255Y-127290508D01*
X187400851Y-127239972D01*
X187554387Y-127157905D01*
X187688962Y-127047462D01*
X187799405Y-126912887D01*
X187881472Y-126759351D01*
X187932008Y-126592755D01*
X187949072Y-126419501D01*
X187949072Y-125794499D01*
X187932008Y-125621245D01*
X187881472Y-125454649D01*
X187799405Y-125301113D01*
X187688962Y-125166538D01*
X187554387Y-125056095D01*
X187400851Y-124974028D01*
X187234255Y-124923492D01*
X187061001Y-124906428D01*
X185810999Y-124906428D01*
X185637745Y-124923492D01*
X185471149Y-124974028D01*
X185317613Y-125056095D01*
X185183038Y-125166538D01*
X185072595Y-125301113D01*
X185048068Y-125347000D01*
X183419612Y-125347000D01*
X180497614Y-122425003D01*
X180473811Y-122395999D01*
X180358086Y-122301026D01*
X180226057Y-122230454D01*
X180082796Y-122186997D01*
X179971143Y-122176000D01*
X179971132Y-122176000D01*
X179933810Y-122172324D01*
X179896488Y-122176000D01*
X179130802Y-122176000D01*
X177944000Y-120989199D01*
X177944000Y-120622021D01*
X177927215Y-120451600D01*
X177860885Y-120232940D01*
X177753171Y-120031421D01*
X177672399Y-119933000D01*
X178138970Y-119933000D01*
X178246038Y-120063462D01*
X178380613Y-120173905D01*
X178534149Y-120255972D01*
X178700745Y-120306508D01*
X178873999Y-120323572D01*
X179774001Y-120323572D01*
X179947255Y-120306508D01*
X180113851Y-120255972D01*
X180267387Y-120173905D01*
X180401962Y-120063462D01*
X180512405Y-119928887D01*
X180594472Y-119775351D01*
X180613575Y-119712377D01*
X184348205Y-123447008D01*
X184371999Y-123476001D01*
X184400992Y-123499795D01*
X184400996Y-123499799D01*
X184453388Y-123542795D01*
X184487724Y-123570974D01*
X184619753Y-123641546D01*
X184763014Y-123685003D01*
X184874667Y-123696000D01*
X184874676Y-123696000D01*
X184911999Y-123699676D01*
X184949322Y-123696000D01*
X185890678Y-123696000D01*
X185928000Y-123699676D01*
X185965322Y-123696000D01*
X185965333Y-123696000D01*
X186076986Y-123685003D01*
X186220247Y-123641546D01*
X186352276Y-123570974D01*
X186468001Y-123476001D01*
X186491804Y-123446997D01*
X188471004Y-121467798D01*
X188500001Y-121444001D01*
X188526332Y-121411917D01*
X188594974Y-121328277D01*
X188665546Y-121196247D01*
X188688749Y-121119754D01*
X188709003Y-121052986D01*
X188720000Y-120941333D01*
X188720000Y-120941323D01*
X188723676Y-120904000D01*
X188720000Y-120866677D01*
X188720000Y-96207711D01*
X188763937Y-96163774D01*
X188877205Y-95994256D01*
X188955226Y-95805898D01*
X188995000Y-95605939D01*
X188995000Y-95402061D01*
X188955226Y-95202102D01*
X188877205Y-95013744D01*
X188763937Y-94844226D01*
X188619774Y-94700063D01*
X188450256Y-94586795D01*
X188261898Y-94508774D01*
X188061939Y-94469000D01*
X187858061Y-94469000D01*
X187658102Y-94508774D01*
X187469744Y-94586795D01*
X187300226Y-94700063D01*
X187156063Y-94844226D01*
X187042795Y-95013744D01*
X186964774Y-95202102D01*
X186925000Y-95402061D01*
X186925000Y-95605939D01*
X186964774Y-95805898D01*
X187042795Y-95994256D01*
X187156063Y-96163774D01*
X187200001Y-96207712D01*
X187200000Y-120589198D01*
X185613199Y-122176000D01*
X185226803Y-122176000D01*
X183779463Y-120728661D01*
X183970842Y-120807932D01*
X184257740Y-120865000D01*
X184550260Y-120865000D01*
X184837158Y-120807932D01*
X185107411Y-120695990D01*
X185350632Y-120533475D01*
X185557475Y-120326632D01*
X185719990Y-120083411D01*
X185831932Y-119813158D01*
X185889000Y-119526260D01*
X185889000Y-119233740D01*
X185831932Y-118946842D01*
X185719990Y-118676589D01*
X185557475Y-118433368D01*
X185350632Y-118226525D01*
X185176240Y-118110000D01*
X185350632Y-117993475D01*
X185557475Y-117786632D01*
X185719990Y-117543411D01*
X185831932Y-117273158D01*
X185889000Y-116986260D01*
X185889000Y-116693740D01*
X185831932Y-116406842D01*
X185719990Y-116136589D01*
X185557475Y-115893368D01*
X185350632Y-115686525D01*
X185176240Y-115570000D01*
X185350632Y-115453475D01*
X185557475Y-115246632D01*
X185719990Y-115003411D01*
X185831932Y-114733158D01*
X185889000Y-114446260D01*
X185889000Y-114153740D01*
X185831932Y-113866842D01*
X185719990Y-113596589D01*
X185557475Y-113353368D01*
X185350632Y-113146525D01*
X185176240Y-113030000D01*
X185350632Y-112913475D01*
X185557475Y-112706632D01*
X185719990Y-112463411D01*
X185831932Y-112193158D01*
X185889000Y-111906260D01*
X185889000Y-111613740D01*
X185831932Y-111326842D01*
X185719990Y-111056589D01*
X185557475Y-110813368D01*
X185350632Y-110606525D01*
X185176240Y-110490000D01*
X185350632Y-110373475D01*
X185557475Y-110166632D01*
X185719990Y-109923411D01*
X185831932Y-109653158D01*
X185889000Y-109366260D01*
X185889000Y-109073740D01*
X185831932Y-108786842D01*
X185719990Y-108516589D01*
X185557475Y-108273368D01*
X185350632Y-108066525D01*
X185176240Y-107950000D01*
X185350632Y-107833475D01*
X185557475Y-107626632D01*
X185719990Y-107383411D01*
X185831932Y-107113158D01*
X185889000Y-106826260D01*
X185889000Y-106533740D01*
X185831932Y-106246842D01*
X185719990Y-105976589D01*
X185557475Y-105733368D01*
X185350632Y-105526525D01*
X185176240Y-105410000D01*
X185350632Y-105293475D01*
X185557475Y-105086632D01*
X185719990Y-104843411D01*
X185831932Y-104573158D01*
X185889000Y-104286260D01*
X185889000Y-103993740D01*
X185831932Y-103706842D01*
X185719990Y-103436589D01*
X185557475Y-103193368D01*
X185350632Y-102986525D01*
X185176240Y-102870000D01*
X185350632Y-102753475D01*
X185557475Y-102546632D01*
X185719990Y-102303411D01*
X185831932Y-102033158D01*
X185889000Y-101746260D01*
X185889000Y-101453740D01*
X185831932Y-101166842D01*
X185719990Y-100896589D01*
X185557475Y-100653368D01*
X185350632Y-100446525D01*
X185176240Y-100330000D01*
X185350632Y-100213475D01*
X185557475Y-100006632D01*
X185719990Y-99763411D01*
X185831932Y-99493158D01*
X185889000Y-99206260D01*
X185889000Y-98913740D01*
X185831932Y-98626842D01*
X185719990Y-98356589D01*
X185557475Y-98113368D01*
X185350632Y-97906525D01*
X185176240Y-97790000D01*
X185350632Y-97673475D01*
X185557475Y-97466632D01*
X185719990Y-97223411D01*
X185831932Y-96953158D01*
X185889000Y-96666260D01*
X185889000Y-96373740D01*
X185831932Y-96086842D01*
X185719990Y-95816589D01*
X185557475Y-95573368D01*
X185350632Y-95366525D01*
X185176240Y-95250000D01*
X185350632Y-95133475D01*
X185557475Y-94926632D01*
X185719990Y-94683411D01*
X185831932Y-94413158D01*
X185889000Y-94126260D01*
X185889000Y-93833740D01*
X185831932Y-93546842D01*
X185719990Y-93276589D01*
X185557475Y-93033368D01*
X185350632Y-92826525D01*
X185176240Y-92710000D01*
X185350632Y-92593475D01*
X185557475Y-92386632D01*
X185719990Y-92143411D01*
X185831932Y-91873158D01*
X185889000Y-91586260D01*
X185889000Y-91293740D01*
X185831932Y-91006842D01*
X185719990Y-90736589D01*
X185557475Y-90493368D01*
X185425620Y-90361513D01*
X185498180Y-90339502D01*
X185608494Y-90280537D01*
X185705185Y-90201185D01*
X185784537Y-90104494D01*
X185843502Y-89994180D01*
X185879812Y-89874482D01*
X185892072Y-89750000D01*
X185892072Y-88050000D01*
X185879812Y-87925518D01*
X185843502Y-87805820D01*
X185784537Y-87695506D01*
X185705185Y-87598815D01*
X185608494Y-87519463D01*
X185498180Y-87460498D01*
X185378482Y-87424188D01*
X185254000Y-87411928D01*
X183554000Y-87411928D01*
X183429518Y-87424188D01*
X183309820Y-87460498D01*
X183199506Y-87519463D01*
X183102815Y-87598815D01*
X183023463Y-87695506D01*
X182964498Y-87805820D01*
X182928188Y-87925518D01*
X182915928Y-88050000D01*
X182915928Y-89750000D01*
X182928188Y-89874482D01*
X182964498Y-89994180D01*
X183023463Y-90104494D01*
X183102815Y-90201185D01*
X183199506Y-90280537D01*
X183309820Y-90339502D01*
X183382380Y-90361513D01*
X183250525Y-90493368D01*
X183088010Y-90736589D01*
X182976068Y-91006842D01*
X182919000Y-91293740D01*
X182919000Y-91586260D01*
X182976068Y-91873158D01*
X183088010Y-92143411D01*
X183250525Y-92386632D01*
X183457368Y-92593475D01*
X183631760Y-92710000D01*
X183457368Y-92826525D01*
X183250525Y-93033368D01*
X183088010Y-93276589D01*
X182976068Y-93546842D01*
X182919000Y-93833740D01*
X182919000Y-94126260D01*
X182976068Y-94413158D01*
X183088010Y-94683411D01*
X183250525Y-94926632D01*
X183457368Y-95133475D01*
X183631760Y-95250000D01*
X183457368Y-95366525D01*
X183250525Y-95573368D01*
X183088010Y-95816589D01*
X182976068Y-96086842D01*
X182919000Y-96373740D01*
X182919000Y-96666260D01*
X182976068Y-96953158D01*
X183088010Y-97223411D01*
X183250525Y-97466632D01*
X183457368Y-97673475D01*
X183631760Y-97790000D01*
X183457368Y-97906525D01*
X183250525Y-98113368D01*
X183088010Y-98356589D01*
X182976068Y-98626842D01*
X182919000Y-98913740D01*
X182919000Y-99206260D01*
X182976068Y-99493158D01*
X183088010Y-99763411D01*
X183250525Y-100006632D01*
X183457368Y-100213475D01*
X183631760Y-100330000D01*
X183457368Y-100446525D01*
X183250525Y-100653368D01*
X183088010Y-100896589D01*
X182976068Y-101166842D01*
X182919000Y-101453740D01*
X182919000Y-101746260D01*
X182976068Y-102033158D01*
X183088010Y-102303411D01*
X183250525Y-102546632D01*
X183457368Y-102753475D01*
X183631760Y-102870000D01*
X183457368Y-102986525D01*
X183250525Y-103193368D01*
X183088010Y-103436589D01*
X182976068Y-103706842D01*
X182919000Y-103993740D01*
X182919000Y-104286260D01*
X182976068Y-104573158D01*
X183088010Y-104843411D01*
X183250525Y-105086632D01*
X183457368Y-105293475D01*
X183631760Y-105410000D01*
X183457368Y-105526525D01*
X183250525Y-105733368D01*
X183088010Y-105976589D01*
X182976068Y-106246842D01*
X182919000Y-106533740D01*
X182919000Y-106826260D01*
X182976068Y-107113158D01*
X183088010Y-107383411D01*
X183250525Y-107626632D01*
X183457368Y-107833475D01*
X183631760Y-107950000D01*
X183457368Y-108066525D01*
X183250525Y-108273368D01*
X183088010Y-108516589D01*
X182976068Y-108786842D01*
X182919000Y-109073740D01*
X182919000Y-109366260D01*
X182976068Y-109653158D01*
X183088010Y-109923411D01*
X183250525Y-110166632D01*
X183457368Y-110373475D01*
X183631760Y-110490000D01*
X183457368Y-110606525D01*
X183250525Y-110813368D01*
X183088010Y-111056589D01*
X182976068Y-111326842D01*
X182919000Y-111613740D01*
X182919000Y-111906260D01*
X182976068Y-112193158D01*
X183088010Y-112463411D01*
X183250525Y-112706632D01*
X183457368Y-112913475D01*
X183631760Y-113030000D01*
X183457368Y-113146525D01*
X183250525Y-113353368D01*
X183088010Y-113596589D01*
X182976068Y-113866842D01*
X182919000Y-114153740D01*
X182919000Y-114446260D01*
X182976068Y-114733158D01*
X183088010Y-115003411D01*
X183250525Y-115246632D01*
X183457368Y-115453475D01*
X183631760Y-115570000D01*
X183457368Y-115686525D01*
X183250525Y-115893368D01*
X183088010Y-116136589D01*
X182976068Y-116406842D01*
X182919000Y-116693740D01*
X182919000Y-116986260D01*
X182976068Y-117273158D01*
X183088010Y-117543411D01*
X183250525Y-117786632D01*
X183457368Y-117993475D01*
X183631760Y-118110000D01*
X183457368Y-118226525D01*
X183250525Y-118433368D01*
X183088010Y-118676589D01*
X182976068Y-118946842D01*
X182919000Y-119233740D01*
X182919000Y-119526260D01*
X182976068Y-119813158D01*
X183055340Y-120004538D01*
X180662003Y-117611202D01*
X180662072Y-117610501D01*
X180662072Y-117085499D01*
X180645008Y-116912245D01*
X180594472Y-116745649D01*
X180512405Y-116592113D01*
X180401962Y-116457538D01*
X180267387Y-116347095D01*
X180113851Y-116265028D01*
X179947255Y-116214492D01*
X179774001Y-116197428D01*
X178873999Y-116197428D01*
X178700745Y-116214492D01*
X178534149Y-116265028D01*
X178380613Y-116347095D01*
X178246038Y-116457538D01*
X178135595Y-116592113D01*
X178053528Y-116745649D01*
X178002992Y-116912245D01*
X177985928Y-117085499D01*
X177985928Y-117610501D01*
X178002992Y-117783755D01*
X178053528Y-117950351D01*
X178135595Y-118103887D01*
X178246038Y-118238462D01*
X178272891Y-118260500D01*
X178246038Y-118282538D01*
X178138970Y-118413000D01*
X176282322Y-118413000D01*
X176244999Y-118409324D01*
X176207676Y-118413000D01*
X176207667Y-118413000D01*
X176096014Y-118423997D01*
X175952753Y-118467454D01*
X175820723Y-118538026D01*
X175737083Y-118606668D01*
X175704999Y-118632999D01*
X175681201Y-118661998D01*
X175002998Y-119340201D01*
X174974000Y-119363999D01*
X174950202Y-119392997D01*
X174950201Y-119392998D01*
X174879026Y-119479724D01*
X174855140Y-119524412D01*
X174769000Y-119515928D01*
X173719000Y-119515928D01*
X173594518Y-119528188D01*
X173474820Y-119564498D01*
X173364506Y-119623463D01*
X173267815Y-119702815D01*
X173188463Y-119799506D01*
X173129498Y-119909820D01*
X173093188Y-120029518D01*
X173080928Y-120154000D01*
X169464801Y-120154000D01*
X181359004Y-108259798D01*
X181388001Y-108236001D01*
X181482974Y-108120276D01*
X181553546Y-107988247D01*
X181597003Y-107844986D01*
X181608000Y-107733333D01*
X181608000Y-107733324D01*
X181611676Y-107696001D01*
X181608000Y-107658678D01*
X181608000Y-87690801D01*
X184718803Y-84580000D01*
X184923644Y-84580000D01*
X184893000Y-84734061D01*
X184893000Y-84937939D01*
X184932774Y-85137898D01*
X185010795Y-85326256D01*
X185124063Y-85495774D01*
X185268226Y-85639937D01*
X185437744Y-85753205D01*
X185626102Y-85831226D01*
X185826061Y-85871000D01*
X185888199Y-85871000D01*
X189428201Y-89411003D01*
X189451999Y-89440001D01*
X189480997Y-89463799D01*
X189567723Y-89534974D01*
X189695759Y-89603411D01*
X189699753Y-89605546D01*
X189843014Y-89649003D01*
X189954667Y-89660000D01*
X189954677Y-89660000D01*
X189992000Y-89663676D01*
X190029323Y-89660000D01*
X190491822Y-89660000D01*
X190616525Y-89846632D01*
X190823368Y-90053475D01*
X190997760Y-90170000D01*
X190823368Y-90286525D01*
X190616525Y-90493368D01*
X190493875Y-90676927D01*
X190462676Y-90680000D01*
X190462667Y-90680000D01*
X190351014Y-90690997D01*
X190207753Y-90734454D01*
X190075724Y-90805026D01*
X189959999Y-90899999D01*
X189936200Y-90928998D01*
X189480998Y-91384201D01*
X189452000Y-91407999D01*
X189428202Y-91436997D01*
X189428201Y-91436998D01*
X189357026Y-91523724D01*
X189286454Y-91655754D01*
X189242998Y-91799015D01*
X189228324Y-91948000D01*
X189232001Y-91985333D01*
X189232000Y-121930849D01*
X189182102Y-121940774D01*
X188993744Y-122018795D01*
X188824226Y-122132063D01*
X188680063Y-122276226D01*
X188566795Y-122445744D01*
X188488774Y-122634102D01*
X188449000Y-122834061D01*
X188449000Y-123037939D01*
X188488774Y-123237898D01*
X188566795Y-123426256D01*
X188680063Y-123595774D01*
X188824226Y-123739937D01*
X188993744Y-123853205D01*
X189182102Y-123931226D01*
X189382061Y-123971000D01*
X189585939Y-123971000D01*
X189785898Y-123931226D01*
X189974256Y-123853205D01*
X190143774Y-123739937D01*
X190287937Y-123595774D01*
X190401205Y-123426256D01*
X190479226Y-123237898D01*
X190519000Y-123037939D01*
X190519000Y-122978671D01*
X190532001Y-122968001D01*
X190615927Y-122865737D01*
X190616525Y-122866632D01*
X190823368Y-123073475D01*
X190997760Y-123190000D01*
X190823368Y-123306525D01*
X190616525Y-123513368D01*
X190454010Y-123756589D01*
X190342068Y-124026842D01*
X190285000Y-124313740D01*
X190285000Y-124606260D01*
X190342068Y-124893158D01*
X190454010Y-125163411D01*
X190616525Y-125406632D01*
X190823368Y-125613475D01*
X191066589Y-125775990D01*
X191336842Y-125887932D01*
X191623740Y-125945000D01*
X191916260Y-125945000D01*
X192203158Y-125887932D01*
X192473411Y-125775990D01*
X192716632Y-125613475D01*
X192923475Y-125406632D01*
X193085990Y-125163411D01*
X193197932Y-124893158D01*
X193255000Y-124606260D01*
X193255000Y-124313740D01*
X193197932Y-124026842D01*
X193085990Y-123756589D01*
X192923475Y-123513368D01*
X192716632Y-123306525D01*
X192542240Y-123190000D01*
X192716632Y-123073475D01*
X192923475Y-122866632D01*
X193085990Y-122623411D01*
X193197932Y-122353158D01*
X193255000Y-122066260D01*
X193255000Y-121773740D01*
X193197932Y-121486842D01*
X193085990Y-121216589D01*
X192923475Y-120973368D01*
X192716632Y-120766525D01*
X192542240Y-120650000D01*
X192716632Y-120533475D01*
X192923475Y-120326632D01*
X193085990Y-120083411D01*
X193197932Y-119813158D01*
X193255000Y-119526260D01*
X193255000Y-119233740D01*
X193197932Y-118946842D01*
X193085990Y-118676589D01*
X192923475Y-118433368D01*
X192716632Y-118226525D01*
X192542240Y-118110000D01*
X192716632Y-117993475D01*
X192923475Y-117786632D01*
X193085990Y-117543411D01*
X193197932Y-117273158D01*
X193255000Y-116986260D01*
X193255000Y-116693740D01*
X193197932Y-116406842D01*
X193085990Y-116136589D01*
X192923475Y-115893368D01*
X192716632Y-115686525D01*
X192542240Y-115570000D01*
X192716632Y-115453475D01*
X192923475Y-115246632D01*
X193085990Y-115003411D01*
X193197932Y-114733158D01*
X193255000Y-114446260D01*
X193255000Y-114153740D01*
X193197932Y-113866842D01*
X193085990Y-113596589D01*
X192923475Y-113353368D01*
X192716632Y-113146525D01*
X192542240Y-113030000D01*
X192716632Y-112913475D01*
X192923475Y-112706632D01*
X193085990Y-112463411D01*
X193197932Y-112193158D01*
X193255000Y-111906260D01*
X193255000Y-111613740D01*
X193197932Y-111326842D01*
X193085990Y-111056589D01*
X192923475Y-110813368D01*
X192716632Y-110606525D01*
X192542240Y-110490000D01*
X192716632Y-110373475D01*
X192923475Y-110166632D01*
X193085990Y-109923411D01*
X193197932Y-109653158D01*
X193255000Y-109366260D01*
X193255000Y-109073740D01*
X193197932Y-108786842D01*
X193085990Y-108516589D01*
X192923475Y-108273368D01*
X192716632Y-108066525D01*
X192542240Y-107950000D01*
X192716632Y-107833475D01*
X192923475Y-107626632D01*
X193085990Y-107383411D01*
X193197932Y-107113158D01*
X193255000Y-106826260D01*
X193255000Y-106533740D01*
X193197932Y-106246842D01*
X193085990Y-105976589D01*
X192923475Y-105733368D01*
X192716632Y-105526525D01*
X192542240Y-105410000D01*
X192716632Y-105293475D01*
X192923475Y-105086632D01*
X193085990Y-104843411D01*
X193197932Y-104573158D01*
X193255000Y-104286260D01*
X193255000Y-103993740D01*
X193197932Y-103706842D01*
X193085990Y-103436589D01*
X192923475Y-103193368D01*
X192716632Y-102986525D01*
X192542240Y-102870000D01*
X192716632Y-102753475D01*
X192923475Y-102546632D01*
X193085990Y-102303411D01*
X193197932Y-102033158D01*
X193255000Y-101746260D01*
X193255000Y-101453740D01*
X193197932Y-101166842D01*
X193085990Y-100896589D01*
X192923475Y-100653368D01*
X192716632Y-100446525D01*
X192542240Y-100330000D01*
X192716632Y-100213475D01*
X192923475Y-100006632D01*
X193085990Y-99763411D01*
X193197932Y-99493158D01*
X193255000Y-99206260D01*
X193255000Y-98913740D01*
X193197932Y-98626842D01*
X193085990Y-98356589D01*
X192923475Y-98113368D01*
X192716632Y-97906525D01*
X192542240Y-97790000D01*
X192716632Y-97673475D01*
X192923475Y-97466632D01*
X193085990Y-97223411D01*
X193197932Y-96953158D01*
X193255000Y-96666260D01*
X193255000Y-96373740D01*
X193197932Y-96086842D01*
X193085990Y-95816589D01*
X192923475Y-95573368D01*
X192716632Y-95366525D01*
X192542240Y-95250000D01*
X192716632Y-95133475D01*
X192923475Y-94926632D01*
X193085990Y-94683411D01*
X193197932Y-94413158D01*
X193255000Y-94126260D01*
X193255000Y-93833740D01*
X193197932Y-93546842D01*
X193085990Y-93276589D01*
X192923475Y-93033368D01*
X192716632Y-92826525D01*
X192542240Y-92710000D01*
X192716632Y-92593475D01*
X192923475Y-92386632D01*
X193085990Y-92143411D01*
X193197932Y-91873158D01*
X193255000Y-91586260D01*
X193255000Y-91293740D01*
X193197932Y-91006842D01*
X193085990Y-90736589D01*
X192923475Y-90493368D01*
X192716632Y-90286525D01*
X192542240Y-90170000D01*
X192716632Y-90053475D01*
X192923475Y-89846632D01*
X193085990Y-89603411D01*
X193197932Y-89333158D01*
X193255000Y-89046260D01*
X193255000Y-88753740D01*
X193197932Y-88466842D01*
X193085990Y-88196589D01*
X192923475Y-87953368D01*
X192716632Y-87746525D01*
X192542240Y-87630000D01*
X192716632Y-87513475D01*
X192923475Y-87306632D01*
X193085990Y-87063411D01*
X193197932Y-86793158D01*
X193255000Y-86506260D01*
X193255000Y-86213740D01*
X193197932Y-85926842D01*
X193085990Y-85656589D01*
X192923475Y-85413368D01*
X192716632Y-85206525D01*
X192542240Y-85090000D01*
X192716632Y-84973475D01*
X192923475Y-84766632D01*
X193085990Y-84523411D01*
X193197932Y-84253158D01*
X193255000Y-83966260D01*
X193255000Y-83673740D01*
X193197932Y-83386842D01*
X193085990Y-83116589D01*
X192923475Y-82873368D01*
X192716632Y-82666525D01*
X192542240Y-82550000D01*
X192716632Y-82433475D01*
X192923475Y-82226632D01*
X193085990Y-81983411D01*
X193197932Y-81713158D01*
X193255000Y-81426260D01*
X193255000Y-81133740D01*
X193197932Y-80846842D01*
X193085990Y-80576589D01*
X192923475Y-80333368D01*
X192716632Y-80126525D01*
X192542240Y-80010000D01*
X192716632Y-79893475D01*
X192923475Y-79686632D01*
X193085990Y-79443411D01*
X193197932Y-79173158D01*
X193255000Y-78886260D01*
X193255000Y-78593740D01*
X193197932Y-78306842D01*
X193085990Y-78036589D01*
X192923475Y-77793368D01*
X192791620Y-77661513D01*
X192864180Y-77639502D01*
X192974494Y-77580537D01*
X193071185Y-77501185D01*
X193150537Y-77404494D01*
X193209502Y-77294180D01*
X193245812Y-77174482D01*
X193258072Y-77050000D01*
X193255000Y-76485750D01*
X193096250Y-76327000D01*
X191897000Y-76327000D01*
X191897000Y-76347000D01*
X191643000Y-76347000D01*
X191643000Y-76327000D01*
X190443750Y-76327000D01*
X190285000Y-76485750D01*
X190281928Y-77050000D01*
X190294188Y-77174482D01*
X190330498Y-77294180D01*
X190389463Y-77404494D01*
X190468815Y-77501185D01*
X190565506Y-77580537D01*
X190675820Y-77639502D01*
X190748380Y-77661513D01*
X190616525Y-77793368D01*
X190454010Y-78036589D01*
X190342068Y-78306842D01*
X190285000Y-78593740D01*
X190285000Y-78886260D01*
X190342068Y-79173158D01*
X190454010Y-79443411D01*
X190616525Y-79686632D01*
X190823368Y-79893475D01*
X190997760Y-80010000D01*
X190823368Y-80126525D01*
X190616525Y-80333368D01*
X190454010Y-80576589D01*
X190342068Y-80846842D01*
X190285000Y-81133740D01*
X190285000Y-81426260D01*
X190342068Y-81713158D01*
X190454010Y-81983411D01*
X190616525Y-82226632D01*
X190823368Y-82433475D01*
X190997760Y-82550000D01*
X190823368Y-82666525D01*
X190616525Y-82873368D01*
X190491822Y-83060000D01*
X184441322Y-83060000D01*
X184403999Y-83056324D01*
X184366676Y-83060000D01*
X184366667Y-83060000D01*
X184255014Y-83070997D01*
X184111753Y-83114454D01*
X183979724Y-83185026D01*
X183963685Y-83198189D01*
X183892996Y-83256201D01*
X183892992Y-83256205D01*
X183863999Y-83279999D01*
X183840205Y-83308992D01*
X180336998Y-86812201D01*
X180308000Y-86835999D01*
X180284202Y-86864997D01*
X180284201Y-86864998D01*
X180213026Y-86951724D01*
X180142454Y-87083754D01*
X180098998Y-87227015D01*
X180084324Y-87376000D01*
X180088001Y-87413333D01*
X180088000Y-107381198D01*
X166817199Y-120652000D01*
X161073323Y-120652000D01*
X161036000Y-120648324D01*
X160998677Y-120652000D01*
X160998667Y-120652000D01*
X160887014Y-120662997D01*
X160743753Y-120706454D01*
X160611723Y-120777026D01*
X160528083Y-120845668D01*
X160495999Y-120871999D01*
X160472201Y-120900997D01*
X158492998Y-122880201D01*
X158464000Y-122903999D01*
X158440202Y-122932997D01*
X158440201Y-122932998D01*
X158369026Y-123019724D01*
X158298454Y-123151754D01*
X158254998Y-123295015D01*
X158240324Y-123444000D01*
X158244001Y-123481332D01*
X158244000Y-126737821D01*
X158057368Y-126862525D01*
X157925513Y-126994380D01*
X157903502Y-126921820D01*
X157844537Y-126811506D01*
X157765185Y-126714815D01*
X157668494Y-126635463D01*
X157558180Y-126576498D01*
X157438482Y-126540188D01*
X157314000Y-126527928D01*
X155614000Y-126527928D01*
X155489518Y-126540188D01*
X155369820Y-126576498D01*
X155259506Y-126635463D01*
X155162815Y-126714815D01*
X155083463Y-126811506D01*
X155024498Y-126921820D01*
X154988188Y-127041518D01*
X154975928Y-127166000D01*
X138557000Y-127166000D01*
X138557000Y-110910000D01*
X140751928Y-110910000D01*
X140751928Y-112610000D01*
X140764188Y-112734482D01*
X140800498Y-112854180D01*
X140859463Y-112964494D01*
X140938815Y-113061185D01*
X141035506Y-113140537D01*
X141145820Y-113199502D01*
X141218380Y-113221513D01*
X141086525Y-113353368D01*
X140924010Y-113596589D01*
X140812068Y-113866842D01*
X140755000Y-114153740D01*
X140755000Y-114446260D01*
X140812068Y-114733158D01*
X140924010Y-115003411D01*
X141086525Y-115246632D01*
X141293368Y-115453475D01*
X141467760Y-115570000D01*
X141293368Y-115686525D01*
X141086525Y-115893368D01*
X140924010Y-116136589D01*
X140812068Y-116406842D01*
X140755000Y-116693740D01*
X140755000Y-116986260D01*
X140812068Y-117273158D01*
X140924010Y-117543411D01*
X141086525Y-117786632D01*
X141293368Y-117993475D01*
X141467760Y-118110000D01*
X141293368Y-118226525D01*
X141086525Y-118433368D01*
X140924010Y-118676589D01*
X140812068Y-118946842D01*
X140755000Y-119233740D01*
X140755000Y-119526260D01*
X140812068Y-119813158D01*
X140924010Y-120083411D01*
X141086525Y-120326632D01*
X141293368Y-120533475D01*
X141467760Y-120650000D01*
X141293368Y-120766525D01*
X141086525Y-120973368D01*
X140924010Y-121216589D01*
X140812068Y-121486842D01*
X140755000Y-121773740D01*
X140755000Y-122066260D01*
X140812068Y-122353158D01*
X140924010Y-122623411D01*
X141086525Y-122866632D01*
X141293368Y-123073475D01*
X141467760Y-123190000D01*
X141293368Y-123306525D01*
X141086525Y-123513368D01*
X140924010Y-123756589D01*
X140812068Y-124026842D01*
X140755000Y-124313740D01*
X140755000Y-124606260D01*
X140812068Y-124893158D01*
X140924010Y-125163411D01*
X141086525Y-125406632D01*
X141293368Y-125613475D01*
X141536589Y-125775990D01*
X141806842Y-125887932D01*
X142093740Y-125945000D01*
X142386260Y-125945000D01*
X142673158Y-125887932D01*
X142943411Y-125775990D01*
X143186632Y-125613475D01*
X143393475Y-125406632D01*
X143555990Y-125163411D01*
X143667932Y-124893158D01*
X143725000Y-124606260D01*
X143725000Y-124313740D01*
X143667932Y-124026842D01*
X143555990Y-123756589D01*
X143393475Y-123513368D01*
X143186632Y-123306525D01*
X143012240Y-123190000D01*
X143186632Y-123073475D01*
X143393475Y-122866632D01*
X143555990Y-122623411D01*
X143667932Y-122353158D01*
X143725000Y-122066260D01*
X143725000Y-121773740D01*
X143667932Y-121486842D01*
X143555990Y-121216589D01*
X143393475Y-120973368D01*
X143186632Y-120766525D01*
X143012240Y-120650000D01*
X143186632Y-120533475D01*
X143393475Y-120326632D01*
X143555990Y-120083411D01*
X143667932Y-119813158D01*
X143725000Y-119526260D01*
X143725000Y-119233740D01*
X143667932Y-118946842D01*
X143555990Y-118676589D01*
X143393475Y-118433368D01*
X143186632Y-118226525D01*
X143012240Y-118110000D01*
X143186632Y-117993475D01*
X143393475Y-117786632D01*
X143555990Y-117543411D01*
X143667932Y-117273158D01*
X143725000Y-116986260D01*
X143725000Y-116693740D01*
X143667932Y-116406842D01*
X143555990Y-116136589D01*
X143393475Y-115893368D01*
X143186632Y-115686525D01*
X143012240Y-115570000D01*
X143186632Y-115453475D01*
X143393475Y-115246632D01*
X143555990Y-115003411D01*
X143667932Y-114733158D01*
X143725000Y-114446260D01*
X143725000Y-114153740D01*
X143667932Y-113866842D01*
X143555990Y-113596589D01*
X143393475Y-113353368D01*
X143261620Y-113221513D01*
X143334180Y-113199502D01*
X143444494Y-113140537D01*
X143541185Y-113061185D01*
X143620537Y-112964494D01*
X143679502Y-112854180D01*
X143715812Y-112734482D01*
X143728072Y-112610000D01*
X143728072Y-110910000D01*
X143715812Y-110785518D01*
X143679502Y-110665820D01*
X143620537Y-110555506D01*
X143541185Y-110458815D01*
X143444494Y-110379463D01*
X143334180Y-110320498D01*
X143214482Y-110284188D01*
X143090000Y-110271928D01*
X141390000Y-110271928D01*
X141265518Y-110284188D01*
X141145820Y-110320498D01*
X141035506Y-110379463D01*
X140938815Y-110458815D01*
X140859463Y-110555506D01*
X140800498Y-110665820D01*
X140764188Y-110785518D01*
X140751928Y-110910000D01*
X138557000Y-110910000D01*
X138557000Y-105009740D01*
X139739000Y-105009740D01*
X139739000Y-105302260D01*
X139796068Y-105589158D01*
X139908010Y-105859411D01*
X140070525Y-106102632D01*
X140277368Y-106309475D01*
X140520589Y-106471990D01*
X140790842Y-106583932D01*
X141077740Y-106641000D01*
X141370260Y-106641000D01*
X141657158Y-106583932D01*
X141927411Y-106471990D01*
X142170632Y-106309475D01*
X142377475Y-106102632D01*
X142494000Y-105928240D01*
X142610525Y-106102632D01*
X142817368Y-106309475D01*
X143060589Y-106471990D01*
X143330842Y-106583932D01*
X143617740Y-106641000D01*
X143910260Y-106641000D01*
X144197158Y-106583932D01*
X144467411Y-106471990D01*
X144710632Y-106309475D01*
X144842487Y-106177620D01*
X144864498Y-106250180D01*
X144923463Y-106360494D01*
X145002815Y-106457185D01*
X145099506Y-106536537D01*
X145209820Y-106595502D01*
X145329518Y-106631812D01*
X145454000Y-106644072D01*
X146018250Y-106641000D01*
X146177000Y-106482250D01*
X146177000Y-105283000D01*
X146431000Y-105283000D01*
X146431000Y-106482250D01*
X146589750Y-106641000D01*
X147154000Y-106644072D01*
X147278482Y-106631812D01*
X147398180Y-106595502D01*
X147508494Y-106536537D01*
X147605185Y-106457185D01*
X147684537Y-106360494D01*
X147743502Y-106250180D01*
X147779812Y-106130482D01*
X147792072Y-106006000D01*
X147789000Y-105441750D01*
X147630250Y-105283000D01*
X146431000Y-105283000D01*
X146177000Y-105283000D01*
X146157000Y-105283000D01*
X146157000Y-105029000D01*
X146177000Y-105029000D01*
X146177000Y-103829750D01*
X146431000Y-103829750D01*
X146431000Y-105029000D01*
X147630250Y-105029000D01*
X147789000Y-104870250D01*
X147792072Y-104306000D01*
X147779812Y-104181518D01*
X147743502Y-104061820D01*
X147684537Y-103951506D01*
X147605185Y-103854815D01*
X147508494Y-103775463D01*
X147398180Y-103716498D01*
X147278482Y-103680188D01*
X147154000Y-103667928D01*
X146589750Y-103671000D01*
X146431000Y-103829750D01*
X146177000Y-103829750D01*
X146018250Y-103671000D01*
X145454000Y-103667928D01*
X145329518Y-103680188D01*
X145209820Y-103716498D01*
X145099506Y-103775463D01*
X145002815Y-103854815D01*
X144923463Y-103951506D01*
X144864498Y-104061820D01*
X144842487Y-104134380D01*
X144710632Y-104002525D01*
X144467411Y-103840010D01*
X144197158Y-103728068D01*
X143910260Y-103671000D01*
X143617740Y-103671000D01*
X143397592Y-103714790D01*
X141476000Y-101793199D01*
X141476000Y-101567653D01*
X142451952Y-101567653D01*
X142607962Y-101883214D01*
X142982745Y-102074020D01*
X143387551Y-102188044D01*
X143806824Y-102220902D01*
X144224451Y-102171334D01*
X144624383Y-102041243D01*
X144920038Y-101883214D01*
X145076048Y-101567653D01*
X143764000Y-100255605D01*
X142451952Y-101567653D01*
X141476000Y-101567653D01*
X141476000Y-100118824D01*
X141619098Y-100118824D01*
X141668666Y-100536451D01*
X141798757Y-100936383D01*
X141956786Y-101232038D01*
X142272347Y-101388048D01*
X143584395Y-100076000D01*
X143943605Y-100076000D01*
X145255653Y-101388048D01*
X145571214Y-101232038D01*
X145762020Y-100857255D01*
X145876044Y-100452449D01*
X145908902Y-100033176D01*
X145859334Y-99615549D01*
X145729243Y-99215617D01*
X145571214Y-98919962D01*
X145255653Y-98763952D01*
X143943605Y-100076000D01*
X143584395Y-100076000D01*
X142272347Y-98763952D01*
X141956786Y-98919962D01*
X141765980Y-99294745D01*
X141651956Y-99699551D01*
X141619098Y-100118824D01*
X141476000Y-100118824D01*
X141476000Y-98584347D01*
X142451952Y-98584347D01*
X143764000Y-99896395D01*
X145076048Y-98584347D01*
X144920038Y-98268786D01*
X144545255Y-98077980D01*
X144140449Y-97963956D01*
X143721176Y-97931098D01*
X143303549Y-97980666D01*
X142903617Y-98110757D01*
X142607962Y-98268786D01*
X142451952Y-98584347D01*
X141476000Y-98584347D01*
X141476000Y-96326801D01*
X141849585Y-95953217D01*
X141871988Y-96007302D01*
X142105637Y-96356983D01*
X142403017Y-96654363D01*
X142752698Y-96888012D01*
X143141244Y-97048953D01*
X143553721Y-97131000D01*
X143974279Y-97131000D01*
X144386756Y-97048953D01*
X144775302Y-96888012D01*
X145124983Y-96654363D01*
X145422363Y-96356983D01*
X145656012Y-96007302D01*
X145816953Y-95618756D01*
X145899000Y-95206279D01*
X145899000Y-94785721D01*
X145816953Y-94373244D01*
X145656012Y-93984698D01*
X145422363Y-93635017D01*
X145124983Y-93337637D01*
X144775302Y-93103988D01*
X144386756Y-92943047D01*
X143974279Y-92861000D01*
X143553721Y-92861000D01*
X143141244Y-92943047D01*
X142752698Y-93103988D01*
X142403017Y-93337637D01*
X142105637Y-93635017D01*
X141871988Y-93984698D01*
X141767951Y-94235865D01*
X141732000Y-94232324D01*
X141694677Y-94236000D01*
X141694667Y-94236000D01*
X141583014Y-94246997D01*
X141439753Y-94290454D01*
X141307723Y-94361026D01*
X141244201Y-94413158D01*
X141191999Y-94455999D01*
X141168201Y-94484997D01*
X140204998Y-95448201D01*
X140176000Y-95471999D01*
X140152202Y-95500997D01*
X140152201Y-95500998D01*
X140081026Y-95587724D01*
X140010454Y-95719754D01*
X139966998Y-95863015D01*
X139952324Y-96012000D01*
X139956001Y-96049332D01*
X139956000Y-102070677D01*
X139952324Y-102108000D01*
X139956000Y-102145322D01*
X139956000Y-102145332D01*
X139966997Y-102256985D01*
X140010454Y-102400246D01*
X140081026Y-102532276D01*
X140092808Y-102546632D01*
X140175999Y-102648001D01*
X140205003Y-102671804D01*
X141204199Y-103671000D01*
X141077740Y-103671000D01*
X140790842Y-103728068D01*
X140520589Y-103840010D01*
X140277368Y-104002525D01*
X140070525Y-104209368D01*
X139908010Y-104452589D01*
X139796068Y-104722842D01*
X139739000Y-105009740D01*
X138557000Y-105009740D01*
X138557000Y-88416000D01*
X141625928Y-88416000D01*
X141625928Y-91416000D01*
X141638188Y-91540482D01*
X141674498Y-91660180D01*
X141733463Y-91770494D01*
X141812815Y-91867185D01*
X141909506Y-91946537D01*
X142019820Y-92005502D01*
X142139518Y-92041812D01*
X142264000Y-92054072D01*
X145264000Y-92054072D01*
X145388482Y-92041812D01*
X145508180Y-92005502D01*
X145618494Y-91946537D01*
X145715185Y-91867185D01*
X145794537Y-91770494D01*
X145853502Y-91660180D01*
X145889812Y-91540482D01*
X145902072Y-91416000D01*
X145902072Y-88416000D01*
X145889812Y-88291518D01*
X145853502Y-88171820D01*
X145845633Y-88157098D01*
X154079000Y-88157098D01*
X154079000Y-88626902D01*
X154170654Y-89087679D01*
X154350440Y-89521721D01*
X154611450Y-89912349D01*
X154943651Y-90244550D01*
X155334279Y-90505560D01*
X155768321Y-90685346D01*
X156229098Y-90777000D01*
X156698902Y-90777000D01*
X157159679Y-90685346D01*
X157593721Y-90505560D01*
X157984349Y-90244550D01*
X158316550Y-89912349D01*
X158577560Y-89521721D01*
X158757346Y-89087679D01*
X158849000Y-88626902D01*
X158849000Y-88157098D01*
X158757346Y-87696321D01*
X158577560Y-87262279D01*
X158316550Y-86871651D01*
X157984349Y-86539450D01*
X157593721Y-86278440D01*
X157159679Y-86098654D01*
X156698902Y-86007000D01*
X156229098Y-86007000D01*
X155768321Y-86098654D01*
X155334279Y-86278440D01*
X154943651Y-86539450D01*
X154611450Y-86871651D01*
X154350440Y-87262279D01*
X154170654Y-87696321D01*
X154079000Y-88157098D01*
X145845633Y-88157098D01*
X145794537Y-88061506D01*
X145715185Y-87964815D01*
X145618494Y-87885463D01*
X145508180Y-87826498D01*
X145388482Y-87790188D01*
X145264000Y-87777928D01*
X142264000Y-87777928D01*
X142139518Y-87790188D01*
X142019820Y-87826498D01*
X141909506Y-87885463D01*
X141812815Y-87964815D01*
X141733463Y-88061506D01*
X141674498Y-88171820D01*
X141638188Y-88291518D01*
X141625928Y-88416000D01*
X138557000Y-88416000D01*
X138557000Y-77259721D01*
X140105000Y-77259721D01*
X140105000Y-77680279D01*
X140187047Y-78092756D01*
X140347988Y-78481302D01*
X140581637Y-78830983D01*
X140879017Y-79128363D01*
X141228698Y-79362012D01*
X141617244Y-79522953D01*
X142029721Y-79605000D01*
X142450279Y-79605000D01*
X142716845Y-79551977D01*
X146224013Y-83059146D01*
X146259551Y-83102449D01*
X146302854Y-83137987D01*
X146302856Y-83137989D01*
X146432377Y-83244284D01*
X146629553Y-83349676D01*
X146843501Y-83414577D01*
X147066000Y-83436491D01*
X147121752Y-83431000D01*
X166661869Y-83431000D01*
X168029000Y-84798132D01*
X168029001Y-87320239D01*
X168023509Y-87376000D01*
X168045423Y-87598498D01*
X168110324Y-87812446D01*
X168159384Y-87904230D01*
X168215717Y-88009623D01*
X168357552Y-88182449D01*
X168400860Y-88217991D01*
X169338008Y-89155140D01*
X169373551Y-89198449D01*
X169546377Y-89340284D01*
X169732936Y-89440001D01*
X169743553Y-89445676D01*
X169957501Y-89510577D01*
X170180000Y-89532491D01*
X170235751Y-89527000D01*
X171674417Y-89527000D01*
X171672815Y-89528315D01*
X171593463Y-89625006D01*
X171534498Y-89735320D01*
X171498188Y-89855018D01*
X171485928Y-89979500D01*
X171485928Y-91884500D01*
X171498188Y-92008982D01*
X171534498Y-92128680D01*
X171593463Y-92238994D01*
X171672815Y-92335685D01*
X171769506Y-92415037D01*
X171879820Y-92474002D01*
X171999518Y-92510312D01*
X172124000Y-92522572D01*
X174124000Y-92522572D01*
X174248482Y-92510312D01*
X174368180Y-92474002D01*
X174478494Y-92415037D01*
X174575185Y-92335685D01*
X174654537Y-92238994D01*
X174713502Y-92128680D01*
X174749812Y-92008982D01*
X174762072Y-91884500D01*
X174762072Y-89979500D01*
X174749812Y-89855018D01*
X174713502Y-89735320D01*
X174654537Y-89625006D01*
X174575185Y-89528315D01*
X174478494Y-89448963D01*
X174394554Y-89404095D01*
X174497845Y-89278235D01*
X174645255Y-89002449D01*
X174736030Y-88703204D01*
X174766681Y-88392000D01*
X174736030Y-88080796D01*
X174645255Y-87781551D01*
X174497845Y-87505765D01*
X174299463Y-87264037D01*
X174126391Y-87122000D01*
X174290888Y-86987000D01*
X175712249Y-86987000D01*
X175768000Y-86992491D01*
X175823751Y-86987000D01*
X175823752Y-86987000D01*
X175990499Y-86970577D01*
X176204447Y-86905676D01*
X176401623Y-86800284D01*
X176574449Y-86658449D01*
X176609996Y-86615135D01*
X183363060Y-79862072D01*
X185396000Y-79862072D01*
X185520482Y-79849812D01*
X185640180Y-79813502D01*
X185750494Y-79754537D01*
X185847185Y-79675185D01*
X185926537Y-79578494D01*
X185985502Y-79468180D01*
X186021812Y-79348482D01*
X186034072Y-79224000D01*
X186034072Y-76224000D01*
X186021812Y-76099518D01*
X185985502Y-75979820D01*
X185926537Y-75869506D01*
X185847185Y-75772815D01*
X185750494Y-75693463D01*
X185640180Y-75634498D01*
X185520482Y-75598188D01*
X185396000Y-75585928D01*
X182396000Y-75585928D01*
X182271518Y-75598188D01*
X182151820Y-75634498D01*
X182041506Y-75693463D01*
X181944815Y-75772815D01*
X181865463Y-75869506D01*
X181806498Y-75979820D01*
X181770188Y-76099518D01*
X181757928Y-76224000D01*
X181757928Y-78256940D01*
X175297869Y-84717000D01*
X174290888Y-84717000D01*
X174057735Y-84525655D01*
X173781949Y-84378245D01*
X173482704Y-84287470D01*
X173249486Y-84264500D01*
X172998514Y-84264500D01*
X172765296Y-84287470D01*
X172466051Y-84378245D01*
X172190265Y-84525655D01*
X171948537Y-84724037D01*
X171750155Y-84965765D01*
X171602745Y-85241551D01*
X171511970Y-85540796D01*
X171481319Y-85852000D01*
X171511970Y-86163204D01*
X171602745Y-86462449D01*
X171750155Y-86738235D01*
X171948537Y-86979963D01*
X172121609Y-87122000D01*
X171957112Y-87257000D01*
X170650132Y-87257000D01*
X170299000Y-86905869D01*
X170299000Y-84383751D01*
X170304491Y-84328000D01*
X170282577Y-84105501D01*
X170217676Y-83891553D01*
X170179430Y-83820000D01*
X170112284Y-83694377D01*
X169970449Y-83521551D01*
X169927141Y-83486009D01*
X167973996Y-81532865D01*
X167938449Y-81489551D01*
X167765623Y-81347716D01*
X167568447Y-81242324D01*
X167354499Y-81177423D01*
X167187752Y-81161000D01*
X167187751Y-81161000D01*
X167132000Y-81155509D01*
X167076249Y-81161000D01*
X147536133Y-81161000D01*
X145982792Y-79607660D01*
X147034250Y-79605000D01*
X147193000Y-79446250D01*
X147193000Y-77597000D01*
X147447000Y-77597000D01*
X147447000Y-79446250D01*
X147605750Y-79605000D01*
X148820000Y-79608072D01*
X148944482Y-79595812D01*
X149064180Y-79559502D01*
X149174494Y-79500537D01*
X149271185Y-79421185D01*
X149350537Y-79324494D01*
X149408714Y-79215653D01*
X177503952Y-79215653D01*
X177659962Y-79531214D01*
X178034745Y-79722020D01*
X178439551Y-79836044D01*
X178858824Y-79868902D01*
X179276451Y-79819334D01*
X179676383Y-79689243D01*
X179972038Y-79531214D01*
X180128048Y-79215653D01*
X178816000Y-77903605D01*
X177503952Y-79215653D01*
X149408714Y-79215653D01*
X149409502Y-79214180D01*
X149445812Y-79094482D01*
X149458072Y-78970000D01*
X149455029Y-77766824D01*
X176671098Y-77766824D01*
X176720666Y-78184451D01*
X176850757Y-78584383D01*
X177008786Y-78880038D01*
X177324347Y-79036048D01*
X178636395Y-77724000D01*
X178995605Y-77724000D01*
X180307653Y-79036048D01*
X180623214Y-78880038D01*
X180814020Y-78505255D01*
X180928044Y-78100449D01*
X180960902Y-77681176D01*
X180911334Y-77263549D01*
X180781243Y-76863617D01*
X180623214Y-76567962D01*
X180307653Y-76411952D01*
X178995605Y-77724000D01*
X178636395Y-77724000D01*
X177324347Y-76411952D01*
X177008786Y-76567962D01*
X176817980Y-76942745D01*
X176703956Y-77347551D01*
X176671098Y-77766824D01*
X149455029Y-77766824D01*
X149455000Y-77755750D01*
X149296250Y-77597000D01*
X147447000Y-77597000D01*
X147193000Y-77597000D01*
X145343750Y-77597000D01*
X145185000Y-77755750D01*
X145182340Y-78807208D01*
X144321977Y-77946845D01*
X144375000Y-77680279D01*
X144375000Y-77259721D01*
X144292953Y-76847244D01*
X144132012Y-76458698D01*
X143898363Y-76109017D01*
X143759346Y-75970000D01*
X145181928Y-75970000D01*
X145185000Y-77184250D01*
X145343750Y-77343000D01*
X147193000Y-77343000D01*
X147193000Y-75493750D01*
X147447000Y-75493750D01*
X147447000Y-77343000D01*
X149296250Y-77343000D01*
X149455000Y-77184250D01*
X149457408Y-76232347D01*
X177503952Y-76232347D01*
X178816000Y-77544395D01*
X180128048Y-76232347D01*
X179972038Y-75916786D01*
X179597255Y-75725980D01*
X179192449Y-75611956D01*
X178773176Y-75579098D01*
X178355549Y-75628666D01*
X177955617Y-75758757D01*
X177659962Y-75916786D01*
X177503952Y-76232347D01*
X149457408Y-76232347D01*
X149458072Y-75970000D01*
X149445812Y-75845518D01*
X149409502Y-75725820D01*
X149350537Y-75615506D01*
X149271185Y-75518815D01*
X149174494Y-75439463D01*
X149064180Y-75380498D01*
X148963642Y-75350000D01*
X190281928Y-75350000D01*
X190285000Y-75914250D01*
X190443750Y-76073000D01*
X191643000Y-76073000D01*
X191643000Y-74873750D01*
X191897000Y-74873750D01*
X191897000Y-76073000D01*
X193096250Y-76073000D01*
X193255000Y-75914250D01*
X193258072Y-75350000D01*
X193245812Y-75225518D01*
X193209502Y-75105820D01*
X193150537Y-74995506D01*
X193071185Y-74898815D01*
X192974494Y-74819463D01*
X192864180Y-74760498D01*
X192744482Y-74724188D01*
X192620000Y-74711928D01*
X192055750Y-74715000D01*
X191897000Y-74873750D01*
X191643000Y-74873750D01*
X191484250Y-74715000D01*
X190920000Y-74711928D01*
X190795518Y-74724188D01*
X190675820Y-74760498D01*
X190565506Y-74819463D01*
X190468815Y-74898815D01*
X190389463Y-74995506D01*
X190330498Y-75105820D01*
X190294188Y-75225518D01*
X190281928Y-75350000D01*
X148963642Y-75350000D01*
X148944482Y-75344188D01*
X148820000Y-75331928D01*
X147605750Y-75335000D01*
X147447000Y-75493750D01*
X147193000Y-75493750D01*
X147034250Y-75335000D01*
X145820000Y-75331928D01*
X145695518Y-75344188D01*
X145575820Y-75380498D01*
X145465506Y-75439463D01*
X145368815Y-75518815D01*
X145289463Y-75615506D01*
X145230498Y-75725820D01*
X145194188Y-75845518D01*
X145181928Y-75970000D01*
X143759346Y-75970000D01*
X143600983Y-75811637D01*
X143251302Y-75577988D01*
X142862756Y-75417047D01*
X142450279Y-75335000D01*
X142029721Y-75335000D01*
X141617244Y-75417047D01*
X141228698Y-75577988D01*
X140879017Y-75811637D01*
X140581637Y-76109017D01*
X140347988Y-76458698D01*
X140187047Y-76847244D01*
X140105000Y-77259721D01*
X138557000Y-77259721D01*
X138557000Y-73787000D01*
X195453000Y-73787000D01*
X195453000Y-130683000D01*
%TA.AperFunction,Conductor*%
D24*
G36*
X195453000Y-130683000D02*
G01*
X138557000Y-130683000D01*
X138557000Y-127166000D01*
X154975928Y-127166000D01*
X154975928Y-128866000D01*
X154988188Y-128990482D01*
X155024498Y-129110180D01*
X155083463Y-129220494D01*
X155162815Y-129317185D01*
X155259506Y-129396537D01*
X155369820Y-129455502D01*
X155489518Y-129491812D01*
X155614000Y-129504072D01*
X157314000Y-129504072D01*
X157438482Y-129491812D01*
X157558180Y-129455502D01*
X157668494Y-129396537D01*
X157765185Y-129317185D01*
X157844537Y-129220494D01*
X157903502Y-129110180D01*
X157925513Y-129037620D01*
X158057368Y-129169475D01*
X158300589Y-129331990D01*
X158570842Y-129443932D01*
X158857740Y-129501000D01*
X159150260Y-129501000D01*
X159437158Y-129443932D01*
X159707411Y-129331990D01*
X159950632Y-129169475D01*
X160157475Y-128962632D01*
X160279195Y-128780466D01*
X160348822Y-128897355D01*
X160543731Y-129113588D01*
X160777080Y-129287641D01*
X161039901Y-129412825D01*
X161187110Y-129457476D01*
X161417000Y-129336155D01*
X161417000Y-128143000D01*
X161671000Y-128143000D01*
X161671000Y-129336155D01*
X161900890Y-129457476D01*
X162048099Y-129412825D01*
X162310920Y-129287641D01*
X162544269Y-129113588D01*
X162739178Y-128897355D01*
X162888157Y-128647252D01*
X162973026Y-128408000D01*
X167117928Y-128408000D01*
X167130188Y-128532482D01*
X167166498Y-128652180D01*
X167225463Y-128762494D01*
X167304815Y-128859185D01*
X167401506Y-128938537D01*
X167511820Y-128997502D01*
X167631518Y-129033812D01*
X167756000Y-129046072D01*
X168370250Y-129043000D01*
X168529000Y-128884250D01*
X168529000Y-127635000D01*
X167279750Y-127635000D01*
X167121000Y-127793750D01*
X167117928Y-128408000D01*
X162973026Y-128408000D01*
X162985481Y-128372891D01*
X162864814Y-128143000D01*
X161671000Y-128143000D01*
X161417000Y-128143000D01*
X161397000Y-128143000D01*
X161397000Y-127889000D01*
X161417000Y-127889000D01*
X161417000Y-126695845D01*
X161671000Y-126695845D01*
X161671000Y-127889000D01*
X162864814Y-127889000D01*
X162985481Y-127659109D01*
X162888157Y-127384748D01*
X162739178Y-127134645D01*
X162544269Y-126918412D01*
X162310920Y-126744359D01*
X162048099Y-126619175D01*
X162011257Y-126608000D01*
X167117928Y-126608000D01*
X167121000Y-127222250D01*
X167279750Y-127381000D01*
X168529000Y-127381000D01*
X168529000Y-126131750D01*
X168783000Y-126131750D01*
X168783000Y-127381000D01*
X168803000Y-127381000D01*
X168803000Y-127635000D01*
X168783000Y-127635000D01*
X168783000Y-128884250D01*
X168941750Y-129043000D01*
X169556000Y-129046072D01*
X169680482Y-129033812D01*
X169800180Y-128997502D01*
X169910494Y-128938537D01*
X170007185Y-128859185D01*
X170086537Y-128762494D01*
X170145502Y-128652180D01*
X170151056Y-128633873D01*
X170217495Y-128700312D01*
X170468905Y-128868299D01*
X170748257Y-128984011D01*
X171044816Y-129043000D01*
X171347184Y-129043000D01*
X171604930Y-128991731D01*
X172094701Y-129481503D01*
X172118499Y-129510501D01*
X172234224Y-129605474D01*
X172366253Y-129676046D01*
X172509514Y-129719503D01*
X172621167Y-129730500D01*
X172621176Y-129730500D01*
X172658499Y-129734176D01*
X172695822Y-129730500D01*
X174380068Y-129730500D01*
X174404595Y-129776387D01*
X174515038Y-129910962D01*
X174649613Y-130021405D01*
X174803149Y-130103472D01*
X174969745Y-130154008D01*
X175142999Y-130171072D01*
X176393001Y-130171072D01*
X176566255Y-130154008D01*
X176732851Y-130103472D01*
X176886387Y-130021405D01*
X177020962Y-129910962D01*
X177131405Y-129776387D01*
X177213472Y-129622851D01*
X177264008Y-129456255D01*
X177281072Y-129283001D01*
X177281072Y-128657999D01*
X177264008Y-128484745D01*
X177240728Y-128408000D01*
X178293928Y-128408000D01*
X178306188Y-128532482D01*
X178342498Y-128652180D01*
X178401463Y-128762494D01*
X178480815Y-128859185D01*
X178577506Y-128938537D01*
X178687820Y-128997502D01*
X178807518Y-129033812D01*
X178932000Y-129046072D01*
X179546250Y-129043000D01*
X179705000Y-128884250D01*
X179705000Y-127635000D01*
X178455750Y-127635000D01*
X178297000Y-127793750D01*
X178293928Y-128408000D01*
X177240728Y-128408000D01*
X177213472Y-128318149D01*
X177131405Y-128164613D01*
X177020962Y-128030038D01*
X176886387Y-127919595D01*
X176732851Y-127837528D01*
X176566255Y-127786992D01*
X176393001Y-127769928D01*
X175142999Y-127769928D01*
X174969745Y-127786992D01*
X174803149Y-127837528D01*
X174649613Y-127919595D01*
X174515038Y-128030038D01*
X174404595Y-128164613D01*
X174380068Y-128210500D01*
X172973302Y-128210500D01*
X172679731Y-127916930D01*
X172731000Y-127659184D01*
X172731000Y-127356816D01*
X172672011Y-127060257D01*
X172556299Y-126780905D01*
X172388312Y-126529495D01*
X172174505Y-126315688D01*
X171923095Y-126147701D01*
X171643743Y-126031989D01*
X171347184Y-125973000D01*
X171044816Y-125973000D01*
X170748257Y-126031989D01*
X170468905Y-126147701D01*
X170217495Y-126315688D01*
X170151056Y-126382127D01*
X170145502Y-126363820D01*
X170086537Y-126253506D01*
X170007185Y-126156815D01*
X169910494Y-126077463D01*
X169800180Y-126018498D01*
X169680482Y-125982188D01*
X169556000Y-125969928D01*
X168941750Y-125973000D01*
X168783000Y-126131750D01*
X168529000Y-126131750D01*
X168370250Y-125973000D01*
X167756000Y-125969928D01*
X167631518Y-125982188D01*
X167511820Y-126018498D01*
X167401506Y-126077463D01*
X167304815Y-126156815D01*
X167225463Y-126253506D01*
X167166498Y-126363820D01*
X167130188Y-126483518D01*
X167117928Y-126608000D01*
X162011257Y-126608000D01*
X161900890Y-126574524D01*
X161671000Y-126695845D01*
X161417000Y-126695845D01*
X161187110Y-126574524D01*
X161039901Y-126619175D01*
X160777080Y-126744359D01*
X160543731Y-126918412D01*
X160348822Y-127134645D01*
X160279195Y-127251534D01*
X160157475Y-127069368D01*
X159950632Y-126862525D01*
X159764000Y-126737822D01*
X159764000Y-123758801D01*
X161350802Y-122172000D01*
X167094678Y-122172000D01*
X167132000Y-122175676D01*
X167169322Y-122172000D01*
X167169333Y-122172000D01*
X167280986Y-122161003D01*
X167424247Y-122117546D01*
X167556276Y-122046974D01*
X167672001Y-121952001D01*
X167695804Y-121922997D01*
X169464801Y-120154000D01*
X173080928Y-120154000D01*
X173080928Y-121654000D01*
X173093188Y-121778482D01*
X173129498Y-121898180D01*
X173188463Y-122008494D01*
X173267815Y-122105185D01*
X173364506Y-122184537D01*
X173474820Y-122243502D01*
X173594518Y-122279812D01*
X173719000Y-122292072D01*
X174769000Y-122292072D01*
X174893482Y-122279812D01*
X175013180Y-122243502D01*
X175077902Y-122208907D01*
X175286601Y-122272215D01*
X175514000Y-122294612D01*
X175741400Y-122272215D01*
X175960060Y-122205885D01*
X176149000Y-122104894D01*
X176337941Y-122205885D01*
X176556601Y-122272215D01*
X176784000Y-122294612D01*
X177011400Y-122272215D01*
X177062049Y-122256851D01*
X178252200Y-123447002D01*
X178275999Y-123476001D01*
X178304997Y-123499799D01*
X178391723Y-123570974D01*
X178523751Y-123641545D01*
X178523753Y-123641546D01*
X178642670Y-123677619D01*
X178520063Y-123800226D01*
X178406795Y-123969744D01*
X178328774Y-124158102D01*
X178289000Y-124358061D01*
X178289000Y-124420198D01*
X177423699Y-125285500D01*
X177155932Y-125285500D01*
X177131405Y-125239613D01*
X177020962Y-125105038D01*
X176886387Y-124994595D01*
X176732851Y-124912528D01*
X176566255Y-124861992D01*
X176393001Y-124844928D01*
X175142999Y-124844928D01*
X174969745Y-124861992D01*
X174803149Y-124912528D01*
X174649613Y-124994595D01*
X174515038Y-125105038D01*
X174404595Y-125239613D01*
X174322528Y-125393149D01*
X174271992Y-125559745D01*
X174254928Y-125732999D01*
X174254928Y-126358001D01*
X174271992Y-126531255D01*
X174322528Y-126697851D01*
X174404595Y-126851387D01*
X174515038Y-126985962D01*
X174649613Y-127096405D01*
X174803149Y-127178472D01*
X174969745Y-127229008D01*
X175142999Y-127246072D01*
X176393001Y-127246072D01*
X176566255Y-127229008D01*
X176732851Y-127178472D01*
X176886387Y-127096405D01*
X177020962Y-126985962D01*
X177131405Y-126851387D01*
X177155932Y-126805500D01*
X177701178Y-126805500D01*
X177738500Y-126809176D01*
X177775822Y-126805500D01*
X177775833Y-126805500D01*
X177887486Y-126794503D01*
X178030747Y-126751046D01*
X178162776Y-126680474D01*
X178278501Y-126585501D01*
X178298550Y-126561071D01*
X178293928Y-126608000D01*
X178297000Y-127222250D01*
X178455750Y-127381000D01*
X179705000Y-127381000D01*
X179705000Y-126131750D01*
X179546250Y-125973000D01*
X178932000Y-125969928D01*
X178884162Y-125974639D01*
X179363802Y-125495000D01*
X179425939Y-125495000D01*
X179625898Y-125455226D01*
X179814256Y-125377205D01*
X179983774Y-125263937D01*
X180127937Y-125119774D01*
X180241205Y-124950256D01*
X180319226Y-124761898D01*
X180359000Y-124561939D01*
X180359000Y-124435991D01*
X181949897Y-126026889D01*
X181924257Y-126031989D01*
X181644905Y-126147701D01*
X181393495Y-126315688D01*
X181327056Y-126382127D01*
X181321502Y-126363820D01*
X181262537Y-126253506D01*
X181183185Y-126156815D01*
X181086494Y-126077463D01*
X180976180Y-126018498D01*
X180856482Y-125982188D01*
X180732000Y-125969928D01*
X180117750Y-125973000D01*
X179959000Y-126131750D01*
X179959000Y-127381000D01*
X179979000Y-127381000D01*
X179979000Y-127635000D01*
X179959000Y-127635000D01*
X179959000Y-128884250D01*
X180117750Y-129043000D01*
X180732000Y-129046072D01*
X180856482Y-129033812D01*
X180976180Y-128997502D01*
X181086494Y-128938537D01*
X181183185Y-128859185D01*
X181262537Y-128762494D01*
X181321502Y-128652180D01*
X181327056Y-128633873D01*
X181393495Y-128700312D01*
X181644905Y-128868299D01*
X181924257Y-128984011D01*
X182220816Y-129043000D01*
X182523184Y-129043000D01*
X182780929Y-128991731D01*
X183332205Y-129543008D01*
X183355999Y-129572001D01*
X183384992Y-129595795D01*
X183384996Y-129595799D01*
X183455685Y-129653811D01*
X183471724Y-129666974D01*
X183603753Y-129737546D01*
X183747014Y-129781003D01*
X183858667Y-129792000D01*
X183858676Y-129792000D01*
X183895999Y-129795676D01*
X183933322Y-129792000D01*
X185048068Y-129792000D01*
X185072595Y-129837887D01*
X185183038Y-129972462D01*
X185317613Y-130082905D01*
X185471149Y-130164972D01*
X185637745Y-130215508D01*
X185810999Y-130232572D01*
X187061001Y-130232572D01*
X187234255Y-130215508D01*
X187400851Y-130164972D01*
X187554387Y-130082905D01*
X187688962Y-129972462D01*
X187799405Y-129837887D01*
X187881472Y-129684351D01*
X187932008Y-129517755D01*
X187949072Y-129344501D01*
X187949072Y-128719499D01*
X187932008Y-128546245D01*
X187881472Y-128379649D01*
X187799405Y-128226113D01*
X187688962Y-128091538D01*
X187554387Y-127981095D01*
X187400851Y-127899028D01*
X187234255Y-127848492D01*
X187061001Y-127831428D01*
X185810999Y-127831428D01*
X185637745Y-127848492D01*
X185471149Y-127899028D01*
X185317613Y-127981095D01*
X185183038Y-128091538D01*
X185072595Y-128226113D01*
X185048068Y-128272000D01*
X184210803Y-128272000D01*
X183855731Y-127916929D01*
X183907000Y-127659184D01*
X183907000Y-127356816D01*
X183848011Y-127060257D01*
X183767961Y-126867000D01*
X185048068Y-126867000D01*
X185072595Y-126912887D01*
X185183038Y-127047462D01*
X185317613Y-127157905D01*
X185471149Y-127239972D01*
X185637745Y-127290508D01*
X185810999Y-127307572D01*
X187061001Y-127307572D01*
X187234255Y-127290508D01*
X187400851Y-127239972D01*
X187554387Y-127157905D01*
X187688962Y-127047462D01*
X187799405Y-126912887D01*
X187881472Y-126759351D01*
X187932008Y-126592755D01*
X187949072Y-126419501D01*
X187949072Y-125794499D01*
X187932008Y-125621245D01*
X187881472Y-125454649D01*
X187799405Y-125301113D01*
X187688962Y-125166538D01*
X187554387Y-125056095D01*
X187400851Y-124974028D01*
X187234255Y-124923492D01*
X187061001Y-124906428D01*
X185810999Y-124906428D01*
X185637745Y-124923492D01*
X185471149Y-124974028D01*
X185317613Y-125056095D01*
X185183038Y-125166538D01*
X185072595Y-125301113D01*
X185048068Y-125347000D01*
X183419612Y-125347000D01*
X180497614Y-122425003D01*
X180473811Y-122395999D01*
X180358086Y-122301026D01*
X180226057Y-122230454D01*
X180082796Y-122186997D01*
X179971143Y-122176000D01*
X179971132Y-122176000D01*
X179933810Y-122172324D01*
X179896488Y-122176000D01*
X179130802Y-122176000D01*
X177944000Y-120989199D01*
X177944000Y-120622021D01*
X177927215Y-120451600D01*
X177860885Y-120232940D01*
X177753171Y-120031421D01*
X177672399Y-119933000D01*
X178138970Y-119933000D01*
X178246038Y-120063462D01*
X178380613Y-120173905D01*
X178534149Y-120255972D01*
X178700745Y-120306508D01*
X178873999Y-120323572D01*
X179774001Y-120323572D01*
X179947255Y-120306508D01*
X180113851Y-120255972D01*
X180267387Y-120173905D01*
X180401962Y-120063462D01*
X180512405Y-119928887D01*
X180594472Y-119775351D01*
X180613575Y-119712377D01*
X184348205Y-123447008D01*
X184371999Y-123476001D01*
X184400992Y-123499795D01*
X184400996Y-123499799D01*
X184453388Y-123542795D01*
X184487724Y-123570974D01*
X184619753Y-123641546D01*
X184763014Y-123685003D01*
X184874667Y-123696000D01*
X184874676Y-123696000D01*
X184911999Y-123699676D01*
X184949322Y-123696000D01*
X185890678Y-123696000D01*
X185928000Y-123699676D01*
X185965322Y-123696000D01*
X185965333Y-123696000D01*
X186076986Y-123685003D01*
X186220247Y-123641546D01*
X186352276Y-123570974D01*
X186468001Y-123476001D01*
X186491804Y-123446997D01*
X188471004Y-121467798D01*
X188500001Y-121444001D01*
X188526332Y-121411917D01*
X188594974Y-121328277D01*
X188665546Y-121196247D01*
X188688749Y-121119754D01*
X188709003Y-121052986D01*
X188720000Y-120941333D01*
X188720000Y-120941323D01*
X188723676Y-120904000D01*
X188720000Y-120866677D01*
X188720000Y-96207711D01*
X188763937Y-96163774D01*
X188877205Y-95994256D01*
X188955226Y-95805898D01*
X188995000Y-95605939D01*
X188995000Y-95402061D01*
X188955226Y-95202102D01*
X188877205Y-95013744D01*
X188763937Y-94844226D01*
X188619774Y-94700063D01*
X188450256Y-94586795D01*
X188261898Y-94508774D01*
X188061939Y-94469000D01*
X187858061Y-94469000D01*
X187658102Y-94508774D01*
X187469744Y-94586795D01*
X187300226Y-94700063D01*
X187156063Y-94844226D01*
X187042795Y-95013744D01*
X186964774Y-95202102D01*
X186925000Y-95402061D01*
X186925000Y-95605939D01*
X186964774Y-95805898D01*
X187042795Y-95994256D01*
X187156063Y-96163774D01*
X187200001Y-96207712D01*
X187200000Y-120589198D01*
X185613199Y-122176000D01*
X185226803Y-122176000D01*
X183779463Y-120728661D01*
X183970842Y-120807932D01*
X184257740Y-120865000D01*
X184550260Y-120865000D01*
X184837158Y-120807932D01*
X185107411Y-120695990D01*
X185350632Y-120533475D01*
X185557475Y-120326632D01*
X185719990Y-120083411D01*
X185831932Y-119813158D01*
X185889000Y-119526260D01*
X185889000Y-119233740D01*
X185831932Y-118946842D01*
X185719990Y-118676589D01*
X185557475Y-118433368D01*
X185350632Y-118226525D01*
X185176240Y-118110000D01*
X185350632Y-117993475D01*
X185557475Y-117786632D01*
X185719990Y-117543411D01*
X185831932Y-117273158D01*
X185889000Y-116986260D01*
X185889000Y-116693740D01*
X185831932Y-116406842D01*
X185719990Y-116136589D01*
X185557475Y-115893368D01*
X185350632Y-115686525D01*
X185176240Y-115570000D01*
X185350632Y-115453475D01*
X185557475Y-115246632D01*
X185719990Y-115003411D01*
X185831932Y-114733158D01*
X185889000Y-114446260D01*
X185889000Y-114153740D01*
X185831932Y-113866842D01*
X185719990Y-113596589D01*
X185557475Y-113353368D01*
X185350632Y-113146525D01*
X185176240Y-113030000D01*
X185350632Y-112913475D01*
X185557475Y-112706632D01*
X185719990Y-112463411D01*
X185831932Y-112193158D01*
X185889000Y-111906260D01*
X185889000Y-111613740D01*
X185831932Y-111326842D01*
X185719990Y-111056589D01*
X185557475Y-110813368D01*
X185350632Y-110606525D01*
X185176240Y-110490000D01*
X185350632Y-110373475D01*
X185557475Y-110166632D01*
X185719990Y-109923411D01*
X185831932Y-109653158D01*
X185889000Y-109366260D01*
X185889000Y-109073740D01*
X185831932Y-108786842D01*
X185719990Y-108516589D01*
X185557475Y-108273368D01*
X185350632Y-108066525D01*
X185176240Y-107950000D01*
X185350632Y-107833475D01*
X185557475Y-107626632D01*
X185719990Y-107383411D01*
X185831932Y-107113158D01*
X185889000Y-106826260D01*
X185889000Y-106533740D01*
X185831932Y-106246842D01*
X185719990Y-105976589D01*
X185557475Y-105733368D01*
X185350632Y-105526525D01*
X185176240Y-105410000D01*
X185350632Y-105293475D01*
X185557475Y-105086632D01*
X185719990Y-104843411D01*
X185831932Y-104573158D01*
X185889000Y-104286260D01*
X185889000Y-103993740D01*
X185831932Y-103706842D01*
X185719990Y-103436589D01*
X185557475Y-103193368D01*
X185350632Y-102986525D01*
X185176240Y-102870000D01*
X185350632Y-102753475D01*
X185557475Y-102546632D01*
X185719990Y-102303411D01*
X185831932Y-102033158D01*
X185889000Y-101746260D01*
X185889000Y-101453740D01*
X185831932Y-101166842D01*
X185719990Y-100896589D01*
X185557475Y-100653368D01*
X185350632Y-100446525D01*
X185176240Y-100330000D01*
X185350632Y-100213475D01*
X185557475Y-100006632D01*
X185719990Y-99763411D01*
X185831932Y-99493158D01*
X185889000Y-99206260D01*
X185889000Y-98913740D01*
X185831932Y-98626842D01*
X185719990Y-98356589D01*
X185557475Y-98113368D01*
X185350632Y-97906525D01*
X185176240Y-97790000D01*
X185350632Y-97673475D01*
X185557475Y-97466632D01*
X185719990Y-97223411D01*
X185831932Y-96953158D01*
X185889000Y-96666260D01*
X185889000Y-96373740D01*
X185831932Y-96086842D01*
X185719990Y-95816589D01*
X185557475Y-95573368D01*
X185350632Y-95366525D01*
X185176240Y-95250000D01*
X185350632Y-95133475D01*
X185557475Y-94926632D01*
X185719990Y-94683411D01*
X185831932Y-94413158D01*
X185889000Y-94126260D01*
X185889000Y-93833740D01*
X185831932Y-93546842D01*
X185719990Y-93276589D01*
X185557475Y-93033368D01*
X185350632Y-92826525D01*
X185176240Y-92710000D01*
X185350632Y-92593475D01*
X185557475Y-92386632D01*
X185719990Y-92143411D01*
X185831932Y-91873158D01*
X185889000Y-91586260D01*
X185889000Y-91293740D01*
X185831932Y-91006842D01*
X185719990Y-90736589D01*
X185557475Y-90493368D01*
X185425620Y-90361513D01*
X185498180Y-90339502D01*
X185608494Y-90280537D01*
X185705185Y-90201185D01*
X185784537Y-90104494D01*
X185843502Y-89994180D01*
X185879812Y-89874482D01*
X185892072Y-89750000D01*
X185892072Y-88050000D01*
X185879812Y-87925518D01*
X185843502Y-87805820D01*
X185784537Y-87695506D01*
X185705185Y-87598815D01*
X185608494Y-87519463D01*
X185498180Y-87460498D01*
X185378482Y-87424188D01*
X185254000Y-87411928D01*
X183554000Y-87411928D01*
X183429518Y-87424188D01*
X183309820Y-87460498D01*
X183199506Y-87519463D01*
X183102815Y-87598815D01*
X183023463Y-87695506D01*
X182964498Y-87805820D01*
X182928188Y-87925518D01*
X182915928Y-88050000D01*
X182915928Y-89750000D01*
X182928188Y-89874482D01*
X182964498Y-89994180D01*
X183023463Y-90104494D01*
X183102815Y-90201185D01*
X183199506Y-90280537D01*
X183309820Y-90339502D01*
X183382380Y-90361513D01*
X183250525Y-90493368D01*
X183088010Y-90736589D01*
X182976068Y-91006842D01*
X182919000Y-91293740D01*
X182919000Y-91586260D01*
X182976068Y-91873158D01*
X183088010Y-92143411D01*
X183250525Y-92386632D01*
X183457368Y-92593475D01*
X183631760Y-92710000D01*
X183457368Y-92826525D01*
X183250525Y-93033368D01*
X183088010Y-93276589D01*
X182976068Y-93546842D01*
X182919000Y-93833740D01*
X182919000Y-94126260D01*
X182976068Y-94413158D01*
X183088010Y-94683411D01*
X183250525Y-94926632D01*
X183457368Y-95133475D01*
X183631760Y-95250000D01*
X183457368Y-95366525D01*
X183250525Y-95573368D01*
X183088010Y-95816589D01*
X182976068Y-96086842D01*
X182919000Y-96373740D01*
X182919000Y-96666260D01*
X182976068Y-96953158D01*
X183088010Y-97223411D01*
X183250525Y-97466632D01*
X183457368Y-97673475D01*
X183631760Y-97790000D01*
X183457368Y-97906525D01*
X183250525Y-98113368D01*
X183088010Y-98356589D01*
X182976068Y-98626842D01*
X182919000Y-98913740D01*
X182919000Y-99206260D01*
X182976068Y-99493158D01*
X183088010Y-99763411D01*
X183250525Y-100006632D01*
X183457368Y-100213475D01*
X183631760Y-100330000D01*
X183457368Y-100446525D01*
X183250525Y-100653368D01*
X183088010Y-100896589D01*
X182976068Y-101166842D01*
X182919000Y-101453740D01*
X182919000Y-101746260D01*
X182976068Y-102033158D01*
X183088010Y-102303411D01*
X183250525Y-102546632D01*
X183457368Y-102753475D01*
X183631760Y-102870000D01*
X183457368Y-102986525D01*
X183250525Y-103193368D01*
X183088010Y-103436589D01*
X182976068Y-103706842D01*
X182919000Y-103993740D01*
X182919000Y-104286260D01*
X182976068Y-104573158D01*
X183088010Y-104843411D01*
X183250525Y-105086632D01*
X183457368Y-105293475D01*
X183631760Y-105410000D01*
X183457368Y-105526525D01*
X183250525Y-105733368D01*
X183088010Y-105976589D01*
X182976068Y-106246842D01*
X182919000Y-106533740D01*
X182919000Y-106826260D01*
X182976068Y-107113158D01*
X183088010Y-107383411D01*
X183250525Y-107626632D01*
X183457368Y-107833475D01*
X183631760Y-107950000D01*
X183457368Y-108066525D01*
X183250525Y-108273368D01*
X183088010Y-108516589D01*
X182976068Y-108786842D01*
X182919000Y-109073740D01*
X182919000Y-109366260D01*
X182976068Y-109653158D01*
X183088010Y-109923411D01*
X183250525Y-110166632D01*
X183457368Y-110373475D01*
X183631760Y-110490000D01*
X183457368Y-110606525D01*
X183250525Y-110813368D01*
X183088010Y-111056589D01*
X182976068Y-111326842D01*
X182919000Y-111613740D01*
X182919000Y-111906260D01*
X182976068Y-112193158D01*
X183088010Y-112463411D01*
X183250525Y-112706632D01*
X183457368Y-112913475D01*
X183631760Y-113030000D01*
X183457368Y-113146525D01*
X183250525Y-113353368D01*
X183088010Y-113596589D01*
X182976068Y-113866842D01*
X182919000Y-114153740D01*
X182919000Y-114446260D01*
X182976068Y-114733158D01*
X183088010Y-115003411D01*
X183250525Y-115246632D01*
X183457368Y-115453475D01*
X183631760Y-115570000D01*
X183457368Y-115686525D01*
X183250525Y-115893368D01*
X183088010Y-116136589D01*
X182976068Y-116406842D01*
X182919000Y-116693740D01*
X182919000Y-116986260D01*
X182976068Y-117273158D01*
X183088010Y-117543411D01*
X183250525Y-117786632D01*
X183457368Y-117993475D01*
X183631760Y-118110000D01*
X183457368Y-118226525D01*
X183250525Y-118433368D01*
X183088010Y-118676589D01*
X182976068Y-118946842D01*
X182919000Y-119233740D01*
X182919000Y-119526260D01*
X182976068Y-119813158D01*
X183055340Y-120004538D01*
X180662003Y-117611202D01*
X180662072Y-117610501D01*
X180662072Y-117085499D01*
X180645008Y-116912245D01*
X180594472Y-116745649D01*
X180512405Y-116592113D01*
X180401962Y-116457538D01*
X180267387Y-116347095D01*
X180113851Y-116265028D01*
X179947255Y-116214492D01*
X179774001Y-116197428D01*
X178873999Y-116197428D01*
X178700745Y-116214492D01*
X178534149Y-116265028D01*
X178380613Y-116347095D01*
X178246038Y-116457538D01*
X178135595Y-116592113D01*
X178053528Y-116745649D01*
X178002992Y-116912245D01*
X177985928Y-117085499D01*
X177985928Y-117610501D01*
X178002992Y-117783755D01*
X178053528Y-117950351D01*
X178135595Y-118103887D01*
X178246038Y-118238462D01*
X178272891Y-118260500D01*
X178246038Y-118282538D01*
X178138970Y-118413000D01*
X176282322Y-118413000D01*
X176244999Y-118409324D01*
X176207676Y-118413000D01*
X176207667Y-118413000D01*
X176096014Y-118423997D01*
X175952753Y-118467454D01*
X175820723Y-118538026D01*
X175737083Y-118606668D01*
X175704999Y-118632999D01*
X175681201Y-118661998D01*
X175002998Y-119340201D01*
X174974000Y-119363999D01*
X174950202Y-119392997D01*
X174950201Y-119392998D01*
X174879026Y-119479724D01*
X174855140Y-119524412D01*
X174769000Y-119515928D01*
X173719000Y-119515928D01*
X173594518Y-119528188D01*
X173474820Y-119564498D01*
X173364506Y-119623463D01*
X173267815Y-119702815D01*
X173188463Y-119799506D01*
X173129498Y-119909820D01*
X173093188Y-120029518D01*
X173080928Y-120154000D01*
X169464801Y-120154000D01*
X181359004Y-108259798D01*
X181388001Y-108236001D01*
X181482974Y-108120276D01*
X181553546Y-107988247D01*
X181597003Y-107844986D01*
X181608000Y-107733333D01*
X181608000Y-107733324D01*
X181611676Y-107696001D01*
X181608000Y-107658678D01*
X181608000Y-87690801D01*
X184718803Y-84580000D01*
X184923644Y-84580000D01*
X184893000Y-84734061D01*
X184893000Y-84937939D01*
X184932774Y-85137898D01*
X185010795Y-85326256D01*
X185124063Y-85495774D01*
X185268226Y-85639937D01*
X185437744Y-85753205D01*
X185626102Y-85831226D01*
X185826061Y-85871000D01*
X185888199Y-85871000D01*
X189428201Y-89411003D01*
X189451999Y-89440001D01*
X189480997Y-89463799D01*
X189567723Y-89534974D01*
X189695759Y-89603411D01*
X189699753Y-89605546D01*
X189843014Y-89649003D01*
X189954667Y-89660000D01*
X189954677Y-89660000D01*
X189992000Y-89663676D01*
X190029323Y-89660000D01*
X190491822Y-89660000D01*
X190616525Y-89846632D01*
X190823368Y-90053475D01*
X190997760Y-90170000D01*
X190823368Y-90286525D01*
X190616525Y-90493368D01*
X190493875Y-90676927D01*
X190462676Y-90680000D01*
X190462667Y-90680000D01*
X190351014Y-90690997D01*
X190207753Y-90734454D01*
X190075724Y-90805026D01*
X189959999Y-90899999D01*
X189936200Y-90928998D01*
X189480998Y-91384201D01*
X189452000Y-91407999D01*
X189428202Y-91436997D01*
X189428201Y-91436998D01*
X189357026Y-91523724D01*
X189286454Y-91655754D01*
X189242998Y-91799015D01*
X189228324Y-91948000D01*
X189232001Y-91985333D01*
X189232000Y-121930849D01*
X189182102Y-121940774D01*
X188993744Y-122018795D01*
X188824226Y-122132063D01*
X188680063Y-122276226D01*
X188566795Y-122445744D01*
X188488774Y-122634102D01*
X188449000Y-122834061D01*
X188449000Y-123037939D01*
X188488774Y-123237898D01*
X188566795Y-123426256D01*
X188680063Y-123595774D01*
X188824226Y-123739937D01*
X188993744Y-123853205D01*
X189182102Y-123931226D01*
X189382061Y-123971000D01*
X189585939Y-123971000D01*
X189785898Y-123931226D01*
X189974256Y-123853205D01*
X190143774Y-123739937D01*
X190287937Y-123595774D01*
X190401205Y-123426256D01*
X190479226Y-123237898D01*
X190519000Y-123037939D01*
X190519000Y-122978671D01*
X190532001Y-122968001D01*
X190615927Y-122865737D01*
X190616525Y-122866632D01*
X190823368Y-123073475D01*
X190997760Y-123190000D01*
X190823368Y-123306525D01*
X190616525Y-123513368D01*
X190454010Y-123756589D01*
X190342068Y-124026842D01*
X190285000Y-124313740D01*
X190285000Y-124606260D01*
X190342068Y-124893158D01*
X190454010Y-125163411D01*
X190616525Y-125406632D01*
X190823368Y-125613475D01*
X191066589Y-125775990D01*
X191336842Y-125887932D01*
X191623740Y-125945000D01*
X191916260Y-125945000D01*
X192203158Y-125887932D01*
X192473411Y-125775990D01*
X192716632Y-125613475D01*
X192923475Y-125406632D01*
X193085990Y-125163411D01*
X193197932Y-124893158D01*
X193255000Y-124606260D01*
X193255000Y-124313740D01*
X193197932Y-124026842D01*
X193085990Y-123756589D01*
X192923475Y-123513368D01*
X192716632Y-123306525D01*
X192542240Y-123190000D01*
X192716632Y-123073475D01*
X192923475Y-122866632D01*
X193085990Y-122623411D01*
X193197932Y-122353158D01*
X193255000Y-122066260D01*
X193255000Y-121773740D01*
X193197932Y-121486842D01*
X193085990Y-121216589D01*
X192923475Y-120973368D01*
X192716632Y-120766525D01*
X192542240Y-120650000D01*
X192716632Y-120533475D01*
X192923475Y-120326632D01*
X193085990Y-120083411D01*
X193197932Y-119813158D01*
X193255000Y-119526260D01*
X193255000Y-119233740D01*
X193197932Y-118946842D01*
X193085990Y-118676589D01*
X192923475Y-118433368D01*
X192716632Y-118226525D01*
X192542240Y-118110000D01*
X192716632Y-117993475D01*
X192923475Y-117786632D01*
X193085990Y-117543411D01*
X193197932Y-117273158D01*
X193255000Y-116986260D01*
X193255000Y-116693740D01*
X193197932Y-116406842D01*
X193085990Y-116136589D01*
X192923475Y-115893368D01*
X192716632Y-115686525D01*
X192542240Y-115570000D01*
X192716632Y-115453475D01*
X192923475Y-115246632D01*
X193085990Y-115003411D01*
X193197932Y-114733158D01*
X193255000Y-114446260D01*
X193255000Y-114153740D01*
X193197932Y-113866842D01*
X193085990Y-113596589D01*
X192923475Y-113353368D01*
X192716632Y-113146525D01*
X192542240Y-113030000D01*
X192716632Y-112913475D01*
X192923475Y-112706632D01*
X193085990Y-112463411D01*
X193197932Y-112193158D01*
X193255000Y-111906260D01*
X193255000Y-111613740D01*
X193197932Y-111326842D01*
X193085990Y-111056589D01*
X192923475Y-110813368D01*
X192716632Y-110606525D01*
X192542240Y-110490000D01*
X192716632Y-110373475D01*
X192923475Y-110166632D01*
X193085990Y-109923411D01*
X193197932Y-109653158D01*
X193255000Y-109366260D01*
X193255000Y-109073740D01*
X193197932Y-108786842D01*
X193085990Y-108516589D01*
X192923475Y-108273368D01*
X192716632Y-108066525D01*
X192542240Y-107950000D01*
X192716632Y-107833475D01*
X192923475Y-107626632D01*
X193085990Y-107383411D01*
X193197932Y-107113158D01*
X193255000Y-106826260D01*
X193255000Y-106533740D01*
X193197932Y-106246842D01*
X193085990Y-105976589D01*
X192923475Y-105733368D01*
X192716632Y-105526525D01*
X192542240Y-105410000D01*
X192716632Y-105293475D01*
X192923475Y-105086632D01*
X193085990Y-104843411D01*
X193197932Y-104573158D01*
X193255000Y-104286260D01*
X193255000Y-103993740D01*
X193197932Y-103706842D01*
X193085990Y-103436589D01*
X192923475Y-103193368D01*
X192716632Y-102986525D01*
X192542240Y-102870000D01*
X192716632Y-102753475D01*
X192923475Y-102546632D01*
X193085990Y-102303411D01*
X193197932Y-102033158D01*
X193255000Y-101746260D01*
X193255000Y-101453740D01*
X193197932Y-101166842D01*
X193085990Y-100896589D01*
X192923475Y-100653368D01*
X192716632Y-100446525D01*
X192542240Y-100330000D01*
X192716632Y-100213475D01*
X192923475Y-100006632D01*
X193085990Y-99763411D01*
X193197932Y-99493158D01*
X193255000Y-99206260D01*
X193255000Y-98913740D01*
X193197932Y-98626842D01*
X193085990Y-98356589D01*
X192923475Y-98113368D01*
X192716632Y-97906525D01*
X192542240Y-97790000D01*
X192716632Y-97673475D01*
X192923475Y-97466632D01*
X193085990Y-97223411D01*
X193197932Y-96953158D01*
X193255000Y-96666260D01*
X193255000Y-96373740D01*
X193197932Y-96086842D01*
X193085990Y-95816589D01*
X192923475Y-95573368D01*
X192716632Y-95366525D01*
X192542240Y-95250000D01*
X192716632Y-95133475D01*
X192923475Y-94926632D01*
X193085990Y-94683411D01*
X193197932Y-94413158D01*
X193255000Y-94126260D01*
X193255000Y-93833740D01*
X193197932Y-93546842D01*
X193085990Y-93276589D01*
X192923475Y-93033368D01*
X192716632Y-92826525D01*
X192542240Y-92710000D01*
X192716632Y-92593475D01*
X192923475Y-92386632D01*
X193085990Y-92143411D01*
X193197932Y-91873158D01*
X193255000Y-91586260D01*
X193255000Y-91293740D01*
X193197932Y-91006842D01*
X193085990Y-90736589D01*
X192923475Y-90493368D01*
X192716632Y-90286525D01*
X192542240Y-90170000D01*
X192716632Y-90053475D01*
X192923475Y-89846632D01*
X193085990Y-89603411D01*
X193197932Y-89333158D01*
X193255000Y-89046260D01*
X193255000Y-88753740D01*
X193197932Y-88466842D01*
X193085990Y-88196589D01*
X192923475Y-87953368D01*
X192716632Y-87746525D01*
X192542240Y-87630000D01*
X192716632Y-87513475D01*
X192923475Y-87306632D01*
X193085990Y-87063411D01*
X193197932Y-86793158D01*
X193255000Y-86506260D01*
X193255000Y-86213740D01*
X193197932Y-85926842D01*
X193085990Y-85656589D01*
X192923475Y-85413368D01*
X192716632Y-85206525D01*
X192542240Y-85090000D01*
X192716632Y-84973475D01*
X192923475Y-84766632D01*
X193085990Y-84523411D01*
X193197932Y-84253158D01*
X193255000Y-83966260D01*
X193255000Y-83673740D01*
X193197932Y-83386842D01*
X193085990Y-83116589D01*
X192923475Y-82873368D01*
X192716632Y-82666525D01*
X192542240Y-82550000D01*
X192716632Y-82433475D01*
X192923475Y-82226632D01*
X193085990Y-81983411D01*
X193197932Y-81713158D01*
X193255000Y-81426260D01*
X193255000Y-81133740D01*
X193197932Y-80846842D01*
X193085990Y-80576589D01*
X192923475Y-80333368D01*
X192716632Y-80126525D01*
X192542240Y-80010000D01*
X192716632Y-79893475D01*
X192923475Y-79686632D01*
X193085990Y-79443411D01*
X193197932Y-79173158D01*
X193255000Y-78886260D01*
X193255000Y-78593740D01*
X193197932Y-78306842D01*
X193085990Y-78036589D01*
X192923475Y-77793368D01*
X192791620Y-77661513D01*
X192864180Y-77639502D01*
X192974494Y-77580537D01*
X193071185Y-77501185D01*
X193150537Y-77404494D01*
X193209502Y-77294180D01*
X193245812Y-77174482D01*
X193258072Y-77050000D01*
X193255000Y-76485750D01*
X193096250Y-76327000D01*
X191897000Y-76327000D01*
X191897000Y-76347000D01*
X191643000Y-76347000D01*
X191643000Y-76327000D01*
X190443750Y-76327000D01*
X190285000Y-76485750D01*
X190281928Y-77050000D01*
X190294188Y-77174482D01*
X190330498Y-77294180D01*
X190389463Y-77404494D01*
X190468815Y-77501185D01*
X190565506Y-77580537D01*
X190675820Y-77639502D01*
X190748380Y-77661513D01*
X190616525Y-77793368D01*
X190454010Y-78036589D01*
X190342068Y-78306842D01*
X190285000Y-78593740D01*
X190285000Y-78886260D01*
X190342068Y-79173158D01*
X190454010Y-79443411D01*
X190616525Y-79686632D01*
X190823368Y-79893475D01*
X190997760Y-80010000D01*
X190823368Y-80126525D01*
X190616525Y-80333368D01*
X190454010Y-80576589D01*
X190342068Y-80846842D01*
X190285000Y-81133740D01*
X190285000Y-81426260D01*
X190342068Y-81713158D01*
X190454010Y-81983411D01*
X190616525Y-82226632D01*
X190823368Y-82433475D01*
X190997760Y-82550000D01*
X190823368Y-82666525D01*
X190616525Y-82873368D01*
X190491822Y-83060000D01*
X184441322Y-83060000D01*
X184403999Y-83056324D01*
X184366676Y-83060000D01*
X184366667Y-83060000D01*
X184255014Y-83070997D01*
X184111753Y-83114454D01*
X183979724Y-83185026D01*
X183963685Y-83198189D01*
X183892996Y-83256201D01*
X183892992Y-83256205D01*
X183863999Y-83279999D01*
X183840205Y-83308992D01*
X180336998Y-86812201D01*
X180308000Y-86835999D01*
X180284202Y-86864997D01*
X180284201Y-86864998D01*
X180213026Y-86951724D01*
X180142454Y-87083754D01*
X180098998Y-87227015D01*
X180084324Y-87376000D01*
X180088001Y-87413333D01*
X180088000Y-107381198D01*
X166817199Y-120652000D01*
X161073323Y-120652000D01*
X161036000Y-120648324D01*
X160998677Y-120652000D01*
X160998667Y-120652000D01*
X160887014Y-120662997D01*
X160743753Y-120706454D01*
X160611723Y-120777026D01*
X160528083Y-120845668D01*
X160495999Y-120871999D01*
X160472201Y-120900997D01*
X158492998Y-122880201D01*
X158464000Y-122903999D01*
X158440202Y-122932997D01*
X158440201Y-122932998D01*
X158369026Y-123019724D01*
X158298454Y-123151754D01*
X158254998Y-123295015D01*
X158240324Y-123444000D01*
X158244001Y-123481332D01*
X158244000Y-126737821D01*
X158057368Y-126862525D01*
X157925513Y-126994380D01*
X157903502Y-126921820D01*
X157844537Y-126811506D01*
X157765185Y-126714815D01*
X157668494Y-126635463D01*
X157558180Y-126576498D01*
X157438482Y-126540188D01*
X157314000Y-126527928D01*
X155614000Y-126527928D01*
X155489518Y-126540188D01*
X155369820Y-126576498D01*
X155259506Y-126635463D01*
X155162815Y-126714815D01*
X155083463Y-126811506D01*
X155024498Y-126921820D01*
X154988188Y-127041518D01*
X154975928Y-127166000D01*
X138557000Y-127166000D01*
X138557000Y-110910000D01*
X140751928Y-110910000D01*
X140751928Y-112610000D01*
X140764188Y-112734482D01*
X140800498Y-112854180D01*
X140859463Y-112964494D01*
X140938815Y-113061185D01*
X141035506Y-113140537D01*
X141145820Y-113199502D01*
X141218380Y-113221513D01*
X141086525Y-113353368D01*
X140924010Y-113596589D01*
X140812068Y-113866842D01*
X140755000Y-114153740D01*
X140755000Y-114446260D01*
X140812068Y-114733158D01*
X140924010Y-115003411D01*
X141086525Y-115246632D01*
X141293368Y-115453475D01*
X141467760Y-115570000D01*
X141293368Y-115686525D01*
X141086525Y-115893368D01*
X140924010Y-116136589D01*
X140812068Y-116406842D01*
X140755000Y-116693740D01*
X140755000Y-116986260D01*
X140812068Y-117273158D01*
X140924010Y-117543411D01*
X141086525Y-117786632D01*
X141293368Y-117993475D01*
X141467760Y-118110000D01*
X141293368Y-118226525D01*
X141086525Y-118433368D01*
X140924010Y-118676589D01*
X140812068Y-118946842D01*
X140755000Y-119233740D01*
X140755000Y-119526260D01*
X140812068Y-119813158D01*
X140924010Y-120083411D01*
X141086525Y-120326632D01*
X141293368Y-120533475D01*
X141467760Y-120650000D01*
X141293368Y-120766525D01*
X141086525Y-120973368D01*
X140924010Y-121216589D01*
X140812068Y-121486842D01*
X140755000Y-121773740D01*
X140755000Y-122066260D01*
X140812068Y-122353158D01*
X140924010Y-122623411D01*
X141086525Y-122866632D01*
X141293368Y-123073475D01*
X141467760Y-123190000D01*
X141293368Y-123306525D01*
X141086525Y-123513368D01*
X140924010Y-123756589D01*
X140812068Y-124026842D01*
X140755000Y-124313740D01*
X140755000Y-124606260D01*
X140812068Y-124893158D01*
X140924010Y-125163411D01*
X141086525Y-125406632D01*
X141293368Y-125613475D01*
X141536589Y-125775990D01*
X141806842Y-125887932D01*
X142093740Y-125945000D01*
X142386260Y-125945000D01*
X142673158Y-125887932D01*
X142943411Y-125775990D01*
X143186632Y-125613475D01*
X143393475Y-125406632D01*
X143555990Y-125163411D01*
X143667932Y-124893158D01*
X143725000Y-124606260D01*
X143725000Y-124313740D01*
X143667932Y-124026842D01*
X143555990Y-123756589D01*
X143393475Y-123513368D01*
X143186632Y-123306525D01*
X143012240Y-123190000D01*
X143186632Y-123073475D01*
X143393475Y-122866632D01*
X143555990Y-122623411D01*
X143667932Y-122353158D01*
X143725000Y-122066260D01*
X143725000Y-121773740D01*
X143667932Y-121486842D01*
X143555990Y-121216589D01*
X143393475Y-120973368D01*
X143186632Y-120766525D01*
X143012240Y-120650000D01*
X143186632Y-120533475D01*
X143393475Y-120326632D01*
X143555990Y-120083411D01*
X143667932Y-119813158D01*
X143725000Y-119526260D01*
X143725000Y-119233740D01*
X143667932Y-118946842D01*
X143555990Y-118676589D01*
X143393475Y-118433368D01*
X143186632Y-118226525D01*
X143012240Y-118110000D01*
X143186632Y-117993475D01*
X143393475Y-117786632D01*
X143555990Y-117543411D01*
X143667932Y-117273158D01*
X143725000Y-116986260D01*
X143725000Y-116693740D01*
X143667932Y-116406842D01*
X143555990Y-116136589D01*
X143393475Y-115893368D01*
X143186632Y-115686525D01*
X143012240Y-115570000D01*
X143186632Y-115453475D01*
X143393475Y-115246632D01*
X143555990Y-115003411D01*
X143667932Y-114733158D01*
X143725000Y-114446260D01*
X143725000Y-114153740D01*
X143667932Y-113866842D01*
X143555990Y-113596589D01*
X143393475Y-113353368D01*
X143261620Y-113221513D01*
X143334180Y-113199502D01*
X143444494Y-113140537D01*
X143541185Y-113061185D01*
X143620537Y-112964494D01*
X143679502Y-112854180D01*
X143715812Y-112734482D01*
X143728072Y-112610000D01*
X143728072Y-110910000D01*
X143715812Y-110785518D01*
X143679502Y-110665820D01*
X143620537Y-110555506D01*
X143541185Y-110458815D01*
X143444494Y-110379463D01*
X143334180Y-110320498D01*
X143214482Y-110284188D01*
X143090000Y-110271928D01*
X141390000Y-110271928D01*
X141265518Y-110284188D01*
X141145820Y-110320498D01*
X141035506Y-110379463D01*
X140938815Y-110458815D01*
X140859463Y-110555506D01*
X140800498Y-110665820D01*
X140764188Y-110785518D01*
X140751928Y-110910000D01*
X138557000Y-110910000D01*
X138557000Y-105009740D01*
X139739000Y-105009740D01*
X139739000Y-105302260D01*
X139796068Y-105589158D01*
X139908010Y-105859411D01*
X140070525Y-106102632D01*
X140277368Y-106309475D01*
X140520589Y-106471990D01*
X140790842Y-106583932D01*
X141077740Y-106641000D01*
X141370260Y-106641000D01*
X141657158Y-106583932D01*
X141927411Y-106471990D01*
X142170632Y-106309475D01*
X142377475Y-106102632D01*
X142494000Y-105928240D01*
X142610525Y-106102632D01*
X142817368Y-106309475D01*
X143060589Y-106471990D01*
X143330842Y-106583932D01*
X143617740Y-106641000D01*
X143910260Y-106641000D01*
X144197158Y-106583932D01*
X144467411Y-106471990D01*
X144710632Y-106309475D01*
X144842487Y-106177620D01*
X144864498Y-106250180D01*
X144923463Y-106360494D01*
X145002815Y-106457185D01*
X145099506Y-106536537D01*
X145209820Y-106595502D01*
X145329518Y-106631812D01*
X145454000Y-106644072D01*
X146018250Y-106641000D01*
X146177000Y-106482250D01*
X146177000Y-105283000D01*
X146431000Y-105283000D01*
X146431000Y-106482250D01*
X146589750Y-106641000D01*
X147154000Y-106644072D01*
X147278482Y-106631812D01*
X147398180Y-106595502D01*
X147508494Y-106536537D01*
X147605185Y-106457185D01*
X147684537Y-106360494D01*
X147743502Y-106250180D01*
X147779812Y-106130482D01*
X147792072Y-106006000D01*
X147789000Y-105441750D01*
X147630250Y-105283000D01*
X146431000Y-105283000D01*
X146177000Y-105283000D01*
X146157000Y-105283000D01*
X146157000Y-105029000D01*
X146177000Y-105029000D01*
X146177000Y-103829750D01*
X146431000Y-103829750D01*
X146431000Y-105029000D01*
X147630250Y-105029000D01*
X147789000Y-104870250D01*
X147792072Y-104306000D01*
X147779812Y-104181518D01*
X147743502Y-104061820D01*
X147684537Y-103951506D01*
X147605185Y-103854815D01*
X147508494Y-103775463D01*
X147398180Y-103716498D01*
X147278482Y-103680188D01*
X147154000Y-103667928D01*
X146589750Y-103671000D01*
X146431000Y-103829750D01*
X146177000Y-103829750D01*
X146018250Y-103671000D01*
X145454000Y-103667928D01*
X145329518Y-103680188D01*
X145209820Y-103716498D01*
X145099506Y-103775463D01*
X145002815Y-103854815D01*
X144923463Y-103951506D01*
X144864498Y-104061820D01*
X144842487Y-104134380D01*
X144710632Y-104002525D01*
X144467411Y-103840010D01*
X144197158Y-103728068D01*
X143910260Y-103671000D01*
X143617740Y-103671000D01*
X143397592Y-103714790D01*
X141476000Y-101793199D01*
X141476000Y-101567653D01*
X142451952Y-101567653D01*
X142607962Y-101883214D01*
X142982745Y-102074020D01*
X143387551Y-102188044D01*
X143806824Y-102220902D01*
X144224451Y-102171334D01*
X144624383Y-102041243D01*
X144920038Y-101883214D01*
X145076048Y-101567653D01*
X143764000Y-100255605D01*
X142451952Y-101567653D01*
X141476000Y-101567653D01*
X141476000Y-100118824D01*
X141619098Y-100118824D01*
X141668666Y-100536451D01*
X141798757Y-100936383D01*
X141956786Y-101232038D01*
X142272347Y-101388048D01*
X143584395Y-100076000D01*
X143943605Y-100076000D01*
X145255653Y-101388048D01*
X145571214Y-101232038D01*
X145762020Y-100857255D01*
X145876044Y-100452449D01*
X145908902Y-100033176D01*
X145859334Y-99615549D01*
X145729243Y-99215617D01*
X145571214Y-98919962D01*
X145255653Y-98763952D01*
X143943605Y-100076000D01*
X143584395Y-100076000D01*
X142272347Y-98763952D01*
X141956786Y-98919962D01*
X141765980Y-99294745D01*
X141651956Y-99699551D01*
X141619098Y-100118824D01*
X141476000Y-100118824D01*
X141476000Y-98584347D01*
X142451952Y-98584347D01*
X143764000Y-99896395D01*
X145076048Y-98584347D01*
X144920038Y-98268786D01*
X144545255Y-98077980D01*
X144140449Y-97963956D01*
X143721176Y-97931098D01*
X143303549Y-97980666D01*
X142903617Y-98110757D01*
X142607962Y-98268786D01*
X142451952Y-98584347D01*
X141476000Y-98584347D01*
X141476000Y-96326801D01*
X141849585Y-95953217D01*
X141871988Y-96007302D01*
X142105637Y-96356983D01*
X142403017Y-96654363D01*
X142752698Y-96888012D01*
X143141244Y-97048953D01*
X143553721Y-97131000D01*
X143974279Y-97131000D01*
X144386756Y-97048953D01*
X144775302Y-96888012D01*
X145124983Y-96654363D01*
X145422363Y-96356983D01*
X145656012Y-96007302D01*
X145816953Y-95618756D01*
X145899000Y-95206279D01*
X145899000Y-94785721D01*
X145816953Y-94373244D01*
X145656012Y-93984698D01*
X145422363Y-93635017D01*
X145124983Y-93337637D01*
X144775302Y-93103988D01*
X144386756Y-92943047D01*
X143974279Y-92861000D01*
X143553721Y-92861000D01*
X143141244Y-92943047D01*
X142752698Y-93103988D01*
X142403017Y-93337637D01*
X142105637Y-93635017D01*
X141871988Y-93984698D01*
X141767951Y-94235865D01*
X141732000Y-94232324D01*
X141694677Y-94236000D01*
X141694667Y-94236000D01*
X141583014Y-94246997D01*
X141439753Y-94290454D01*
X141307723Y-94361026D01*
X141244201Y-94413158D01*
X141191999Y-94455999D01*
X141168201Y-94484997D01*
X140204998Y-95448201D01*
X140176000Y-95471999D01*
X140152202Y-95500997D01*
X140152201Y-95500998D01*
X140081026Y-95587724D01*
X140010454Y-95719754D01*
X139966998Y-95863015D01*
X139952324Y-96012000D01*
X139956001Y-96049332D01*
X139956000Y-102070677D01*
X139952324Y-102108000D01*
X139956000Y-102145322D01*
X139956000Y-102145332D01*
X139966997Y-102256985D01*
X140010454Y-102400246D01*
X140081026Y-102532276D01*
X140092808Y-102546632D01*
X140175999Y-102648001D01*
X140205003Y-102671804D01*
X141204199Y-103671000D01*
X141077740Y-103671000D01*
X140790842Y-103728068D01*
X140520589Y-103840010D01*
X140277368Y-104002525D01*
X140070525Y-104209368D01*
X139908010Y-104452589D01*
X139796068Y-104722842D01*
X139739000Y-105009740D01*
X138557000Y-105009740D01*
X138557000Y-88416000D01*
X141625928Y-88416000D01*
X141625928Y-91416000D01*
X141638188Y-91540482D01*
X141674498Y-91660180D01*
X141733463Y-91770494D01*
X141812815Y-91867185D01*
X141909506Y-91946537D01*
X142019820Y-92005502D01*
X142139518Y-92041812D01*
X142264000Y-92054072D01*
X145264000Y-92054072D01*
X145388482Y-92041812D01*
X145508180Y-92005502D01*
X145618494Y-91946537D01*
X145715185Y-91867185D01*
X145794537Y-91770494D01*
X145853502Y-91660180D01*
X145889812Y-91540482D01*
X145902072Y-91416000D01*
X145902072Y-88416000D01*
X145889812Y-88291518D01*
X145853502Y-88171820D01*
X145845633Y-88157098D01*
X154079000Y-88157098D01*
X154079000Y-88626902D01*
X154170654Y-89087679D01*
X154350440Y-89521721D01*
X154611450Y-89912349D01*
X154943651Y-90244550D01*
X155334279Y-90505560D01*
X155768321Y-90685346D01*
X156229098Y-90777000D01*
X156698902Y-90777000D01*
X157159679Y-90685346D01*
X157593721Y-90505560D01*
X157984349Y-90244550D01*
X158316550Y-89912349D01*
X158577560Y-89521721D01*
X158757346Y-89087679D01*
X158849000Y-88626902D01*
X158849000Y-88157098D01*
X158757346Y-87696321D01*
X158577560Y-87262279D01*
X158316550Y-86871651D01*
X157984349Y-86539450D01*
X157593721Y-86278440D01*
X157159679Y-86098654D01*
X156698902Y-86007000D01*
X156229098Y-86007000D01*
X155768321Y-86098654D01*
X155334279Y-86278440D01*
X154943651Y-86539450D01*
X154611450Y-86871651D01*
X154350440Y-87262279D01*
X154170654Y-87696321D01*
X154079000Y-88157098D01*
X145845633Y-88157098D01*
X145794537Y-88061506D01*
X145715185Y-87964815D01*
X145618494Y-87885463D01*
X145508180Y-87826498D01*
X145388482Y-87790188D01*
X145264000Y-87777928D01*
X142264000Y-87777928D01*
X142139518Y-87790188D01*
X142019820Y-87826498D01*
X141909506Y-87885463D01*
X141812815Y-87964815D01*
X141733463Y-88061506D01*
X141674498Y-88171820D01*
X141638188Y-88291518D01*
X141625928Y-88416000D01*
X138557000Y-88416000D01*
X138557000Y-77259721D01*
X140105000Y-77259721D01*
X140105000Y-77680279D01*
X140187047Y-78092756D01*
X140347988Y-78481302D01*
X140581637Y-78830983D01*
X140879017Y-79128363D01*
X141228698Y-79362012D01*
X141617244Y-79522953D01*
X142029721Y-79605000D01*
X142450279Y-79605000D01*
X142716845Y-79551977D01*
X146224013Y-83059146D01*
X146259551Y-83102449D01*
X146302854Y-83137987D01*
X146302856Y-83137989D01*
X146432377Y-83244284D01*
X146629553Y-83349676D01*
X146843501Y-83414577D01*
X147066000Y-83436491D01*
X147121752Y-83431000D01*
X166661869Y-83431000D01*
X168029000Y-84798132D01*
X168029001Y-87320239D01*
X168023509Y-87376000D01*
X168045423Y-87598498D01*
X168110324Y-87812446D01*
X168159384Y-87904230D01*
X168215717Y-88009623D01*
X168357552Y-88182449D01*
X168400860Y-88217991D01*
X169338008Y-89155140D01*
X169373551Y-89198449D01*
X169546377Y-89340284D01*
X169732936Y-89440001D01*
X169743553Y-89445676D01*
X169957501Y-89510577D01*
X170180000Y-89532491D01*
X170235751Y-89527000D01*
X171674417Y-89527000D01*
X171672815Y-89528315D01*
X171593463Y-89625006D01*
X171534498Y-89735320D01*
X171498188Y-89855018D01*
X171485928Y-89979500D01*
X171485928Y-91884500D01*
X171498188Y-92008982D01*
X171534498Y-92128680D01*
X171593463Y-92238994D01*
X171672815Y-92335685D01*
X171769506Y-92415037D01*
X171879820Y-92474002D01*
X171999518Y-92510312D01*
X172124000Y-92522572D01*
X174124000Y-92522572D01*
X174248482Y-92510312D01*
X174368180Y-92474002D01*
X174478494Y-92415037D01*
X174575185Y-92335685D01*
X174654537Y-92238994D01*
X174713502Y-92128680D01*
X174749812Y-92008982D01*
X174762072Y-91884500D01*
X174762072Y-89979500D01*
X174749812Y-89855018D01*
X174713502Y-89735320D01*
X174654537Y-89625006D01*
X174575185Y-89528315D01*
X174478494Y-89448963D01*
X174394554Y-89404095D01*
X174497845Y-89278235D01*
X174645255Y-89002449D01*
X174736030Y-88703204D01*
X174766681Y-88392000D01*
X174736030Y-88080796D01*
X174645255Y-87781551D01*
X174497845Y-87505765D01*
X174299463Y-87264037D01*
X174126391Y-87122000D01*
X174290888Y-86987000D01*
X175712249Y-86987000D01*
X175768000Y-86992491D01*
X175823751Y-86987000D01*
X175823752Y-86987000D01*
X175990499Y-86970577D01*
X176204447Y-86905676D01*
X176401623Y-86800284D01*
X176574449Y-86658449D01*
X176609996Y-86615135D01*
X183363060Y-79862072D01*
X185396000Y-79862072D01*
X185520482Y-79849812D01*
X185640180Y-79813502D01*
X185750494Y-79754537D01*
X185847185Y-79675185D01*
X185926537Y-79578494D01*
X185985502Y-79468180D01*
X186021812Y-79348482D01*
X186034072Y-79224000D01*
X186034072Y-76224000D01*
X186021812Y-76099518D01*
X185985502Y-75979820D01*
X185926537Y-75869506D01*
X185847185Y-75772815D01*
X185750494Y-75693463D01*
X185640180Y-75634498D01*
X185520482Y-75598188D01*
X185396000Y-75585928D01*
X182396000Y-75585928D01*
X182271518Y-75598188D01*
X182151820Y-75634498D01*
X182041506Y-75693463D01*
X181944815Y-75772815D01*
X181865463Y-75869506D01*
X181806498Y-75979820D01*
X181770188Y-76099518D01*
X181757928Y-76224000D01*
X181757928Y-78256940D01*
X175297869Y-84717000D01*
X174290888Y-84717000D01*
X174057735Y-84525655D01*
X173781949Y-84378245D01*
X173482704Y-84287470D01*
X173249486Y-84264500D01*
X172998514Y-84264500D01*
X172765296Y-84287470D01*
X172466051Y-84378245D01*
X172190265Y-84525655D01*
X171948537Y-84724037D01*
X171750155Y-84965765D01*
X171602745Y-85241551D01*
X171511970Y-85540796D01*
X171481319Y-85852000D01*
X171511970Y-86163204D01*
X171602745Y-86462449D01*
X171750155Y-86738235D01*
X171948537Y-86979963D01*
X172121609Y-87122000D01*
X171957112Y-87257000D01*
X170650132Y-87257000D01*
X170299000Y-86905869D01*
X170299000Y-84383751D01*
X170304491Y-84328000D01*
X170282577Y-84105501D01*
X170217676Y-83891553D01*
X170179430Y-83820000D01*
X170112284Y-83694377D01*
X169970449Y-83521551D01*
X169927141Y-83486009D01*
X167973996Y-81532865D01*
X167938449Y-81489551D01*
X167765623Y-81347716D01*
X167568447Y-81242324D01*
X167354499Y-81177423D01*
X167187752Y-81161000D01*
X167187751Y-81161000D01*
X167132000Y-81155509D01*
X167076249Y-81161000D01*
X147536133Y-81161000D01*
X145982792Y-79607660D01*
X147034250Y-79605000D01*
X147193000Y-79446250D01*
X147193000Y-77597000D01*
X147447000Y-77597000D01*
X147447000Y-79446250D01*
X147605750Y-79605000D01*
X148820000Y-79608072D01*
X148944482Y-79595812D01*
X149064180Y-79559502D01*
X149174494Y-79500537D01*
X149271185Y-79421185D01*
X149350537Y-79324494D01*
X149408714Y-79215653D01*
X177503952Y-79215653D01*
X177659962Y-79531214D01*
X178034745Y-79722020D01*
X178439551Y-79836044D01*
X178858824Y-79868902D01*
X179276451Y-79819334D01*
X179676383Y-79689243D01*
X179972038Y-79531214D01*
X180128048Y-79215653D01*
X178816000Y-77903605D01*
X177503952Y-79215653D01*
X149408714Y-79215653D01*
X149409502Y-79214180D01*
X149445812Y-79094482D01*
X149458072Y-78970000D01*
X149455029Y-77766824D01*
X176671098Y-77766824D01*
X176720666Y-78184451D01*
X176850757Y-78584383D01*
X177008786Y-78880038D01*
X177324347Y-79036048D01*
X178636395Y-77724000D01*
X178995605Y-77724000D01*
X180307653Y-79036048D01*
X180623214Y-78880038D01*
X180814020Y-78505255D01*
X180928044Y-78100449D01*
X180960902Y-77681176D01*
X180911334Y-77263549D01*
X180781243Y-76863617D01*
X180623214Y-76567962D01*
X180307653Y-76411952D01*
X178995605Y-77724000D01*
X178636395Y-77724000D01*
X177324347Y-76411952D01*
X177008786Y-76567962D01*
X176817980Y-76942745D01*
X176703956Y-77347551D01*
X176671098Y-77766824D01*
X149455029Y-77766824D01*
X149455000Y-77755750D01*
X149296250Y-77597000D01*
X147447000Y-77597000D01*
X147193000Y-77597000D01*
X145343750Y-77597000D01*
X145185000Y-77755750D01*
X145182340Y-78807208D01*
X144321977Y-77946845D01*
X144375000Y-77680279D01*
X144375000Y-77259721D01*
X144292953Y-76847244D01*
X144132012Y-76458698D01*
X143898363Y-76109017D01*
X143759346Y-75970000D01*
X145181928Y-75970000D01*
X145185000Y-77184250D01*
X145343750Y-77343000D01*
X147193000Y-77343000D01*
X147193000Y-75493750D01*
X147447000Y-75493750D01*
X147447000Y-77343000D01*
X149296250Y-77343000D01*
X149455000Y-77184250D01*
X149457408Y-76232347D01*
X177503952Y-76232347D01*
X178816000Y-77544395D01*
X180128048Y-76232347D01*
X179972038Y-75916786D01*
X179597255Y-75725980D01*
X179192449Y-75611956D01*
X178773176Y-75579098D01*
X178355549Y-75628666D01*
X177955617Y-75758757D01*
X177659962Y-75916786D01*
X177503952Y-76232347D01*
X149457408Y-76232347D01*
X149458072Y-75970000D01*
X149445812Y-75845518D01*
X149409502Y-75725820D01*
X149350537Y-75615506D01*
X149271185Y-75518815D01*
X149174494Y-75439463D01*
X149064180Y-75380498D01*
X148963642Y-75350000D01*
X190281928Y-75350000D01*
X190285000Y-75914250D01*
X190443750Y-76073000D01*
X191643000Y-76073000D01*
X191643000Y-74873750D01*
X191897000Y-74873750D01*
X191897000Y-76073000D01*
X193096250Y-76073000D01*
X193255000Y-75914250D01*
X193258072Y-75350000D01*
X193245812Y-75225518D01*
X193209502Y-75105820D01*
X193150537Y-74995506D01*
X193071185Y-74898815D01*
X192974494Y-74819463D01*
X192864180Y-74760498D01*
X192744482Y-74724188D01*
X192620000Y-74711928D01*
X192055750Y-74715000D01*
X191897000Y-74873750D01*
X191643000Y-74873750D01*
X191484250Y-74715000D01*
X190920000Y-74711928D01*
X190795518Y-74724188D01*
X190675820Y-74760498D01*
X190565506Y-74819463D01*
X190468815Y-74898815D01*
X190389463Y-74995506D01*
X190330498Y-75105820D01*
X190294188Y-75225518D01*
X190281928Y-75350000D01*
X148963642Y-75350000D01*
X148944482Y-75344188D01*
X148820000Y-75331928D01*
X147605750Y-75335000D01*
X147447000Y-75493750D01*
X147193000Y-75493750D01*
X147034250Y-75335000D01*
X145820000Y-75331928D01*
X145695518Y-75344188D01*
X145575820Y-75380498D01*
X145465506Y-75439463D01*
X145368815Y-75518815D01*
X145289463Y-75615506D01*
X145230498Y-75725820D01*
X145194188Y-75845518D01*
X145181928Y-75970000D01*
X143759346Y-75970000D01*
X143600983Y-75811637D01*
X143251302Y-75577988D01*
X142862756Y-75417047D01*
X142450279Y-75335000D01*
X142029721Y-75335000D01*
X141617244Y-75417047D01*
X141228698Y-75577988D01*
X140879017Y-75811637D01*
X140581637Y-76109017D01*
X140347988Y-76458698D01*
X140187047Y-76847244D01*
X140105000Y-77259721D01*
X138557000Y-77259721D01*
X138557000Y-73787000D01*
X195453000Y-73787000D01*
X195453000Y-130683000D01*
G37*
%TD.AperFunction*%
%TD*%
M02*
