%TF.GenerationSoftware,KiCad,Pcbnew,(5.1.10)-1*%
%TF.CreationDate,2021-08-05T17:27:16+03:00*%
%TF.ProjectId,YevgeniK,59657667-656e-4694-9b2e-6b696361645f,rev?*%
%TF.SameCoordinates,Original*%
%TF.FileFunction,Legend,Bot*%
%TF.FilePolarity,Positive*%
%FSLAX46Y46*%
G04 Gerber Fmt 4.6, Leading zero omitted, Abs format (unit mm)*
G04 Created by KiCad (PCBNEW (5.1.10)-1) date 2021-08-05 17:27:16*
%MOMM*%
%LPD*%
G01*
G04 APERTURE LIST*
%ADD10C,0.150000*%
%ADD11C,0.120000*%
G04 APERTURE END LIST*
D10*
X162813904Y-124976000D02*
X162909142Y-124928380D01*
X163052000Y-124928380D01*
X163194857Y-124976000D01*
X163290095Y-125071238D01*
X163337714Y-125166476D01*
X163385333Y-125356952D01*
X163385333Y-125499809D01*
X163337714Y-125690285D01*
X163290095Y-125785523D01*
X163194857Y-125880761D01*
X163052000Y-125928380D01*
X162956761Y-125928380D01*
X162813904Y-125880761D01*
X162766285Y-125833142D01*
X162766285Y-125499809D01*
X162956761Y-125499809D01*
X162337714Y-125928380D02*
X162337714Y-124928380D01*
X161766285Y-125928380D01*
X161766285Y-124928380D01*
X161290095Y-125928380D02*
X161290095Y-124928380D01*
X161052000Y-124928380D01*
X160909142Y-124976000D01*
X160813904Y-125071238D01*
X160766285Y-125166476D01*
X160718666Y-125356952D01*
X160718666Y-125499809D01*
X160766285Y-125690285D01*
X160813904Y-125785523D01*
X160909142Y-125880761D01*
X161052000Y-125928380D01*
X161290095Y-125928380D01*
X159742095Y-125928380D02*
X159742095Y-124928380D01*
X159504000Y-124928380D01*
X159361142Y-124976000D01*
X159265904Y-125071238D01*
X159218285Y-125166476D01*
X159170666Y-125356952D01*
X159170666Y-125499809D01*
X159218285Y-125690285D01*
X159265904Y-125785523D01*
X159361142Y-125880761D01*
X159504000Y-125928380D01*
X159742095Y-125928380D01*
X158789714Y-125023619D02*
X158742095Y-124976000D01*
X158646857Y-124928380D01*
X158408761Y-124928380D01*
X158313523Y-124976000D01*
X158265904Y-125023619D01*
X158218285Y-125118857D01*
X158218285Y-125214095D01*
X158265904Y-125356952D01*
X158837333Y-125928380D01*
X158218285Y-125928380D01*
X156146476Y-124928380D02*
X156622666Y-124928380D01*
X156670285Y-125404571D01*
X156622666Y-125356952D01*
X156527428Y-125309333D01*
X156289333Y-125309333D01*
X156194095Y-125356952D01*
X156146476Y-125404571D01*
X156098857Y-125499809D01*
X156098857Y-125737904D01*
X156146476Y-125833142D01*
X156194095Y-125880761D01*
X156289333Y-125928380D01*
X156527428Y-125928380D01*
X156622666Y-125880761D01*
X156670285Y-125833142D01*
X155813142Y-124928380D02*
X155479809Y-125928380D01*
X155146476Y-124928380D01*
X147359619Y-90106476D02*
X147359619Y-90582666D01*
X146883428Y-90630285D01*
X146931047Y-90582666D01*
X146978666Y-90487428D01*
X146978666Y-90249333D01*
X146931047Y-90154095D01*
X146883428Y-90106476D01*
X146788190Y-90058857D01*
X146550095Y-90058857D01*
X146454857Y-90106476D01*
X146407238Y-90154095D01*
X146359619Y-90249333D01*
X146359619Y-90487428D01*
X146407238Y-90582666D01*
X146454857Y-90630285D01*
X147359619Y-89773142D02*
X146359619Y-89439809D01*
X147359619Y-89106476D01*
X146359619Y-95734095D02*
X147359619Y-95734095D01*
X147359619Y-95496000D01*
X147312000Y-95353142D01*
X147216761Y-95257904D01*
X147121523Y-95210285D01*
X146931047Y-95162666D01*
X146788190Y-95162666D01*
X146597714Y-95210285D01*
X146502476Y-95257904D01*
X146407238Y-95353142D01*
X146359619Y-95496000D01*
X146359619Y-95734095D01*
X147359619Y-94829333D02*
X147359619Y-94210285D01*
X146978666Y-94543619D01*
X146978666Y-94400761D01*
X146931047Y-94305523D01*
X146883428Y-94257904D01*
X146788190Y-94210285D01*
X146550095Y-94210285D01*
X146454857Y-94257904D01*
X146407238Y-94305523D01*
X146359619Y-94400761D01*
X146359619Y-94686476D01*
X146407238Y-94781714D01*
X146454857Y-94829333D01*
X147312000Y-100837904D02*
X147359619Y-100933142D01*
X147359619Y-101076000D01*
X147312000Y-101218857D01*
X147216761Y-101314095D01*
X147121523Y-101361714D01*
X146931047Y-101409333D01*
X146788190Y-101409333D01*
X146597714Y-101361714D01*
X146502476Y-101314095D01*
X146407238Y-101218857D01*
X146359619Y-101076000D01*
X146359619Y-100980761D01*
X146407238Y-100837904D01*
X146454857Y-100790285D01*
X146788190Y-100790285D01*
X146788190Y-100980761D01*
X146359619Y-100361714D02*
X147359619Y-100361714D01*
X146359619Y-99790285D01*
X147359619Y-99790285D01*
X146359619Y-99314095D02*
X147359619Y-99314095D01*
X147359619Y-99076000D01*
X147312000Y-98933142D01*
X147216761Y-98837904D01*
X147121523Y-98790285D01*
X146931047Y-98742666D01*
X146788190Y-98742666D01*
X146597714Y-98790285D01*
X146502476Y-98837904D01*
X146407238Y-98933142D01*
X146359619Y-99076000D01*
X146359619Y-99314095D01*
D11*
%TO.C,R3*%
X180059000Y-118033436D02*
X180059000Y-118487564D01*
X178589000Y-118033436D02*
X178589000Y-118487564D01*
%TO.C,R2*%
X187346000Y-126842436D02*
X187346000Y-128296564D01*
X185526000Y-126842436D02*
X185526000Y-128296564D01*
%TO.C,R1*%
X176678000Y-126780936D02*
X176678000Y-128235064D01*
X174858000Y-126780936D02*
X174858000Y-128235064D01*
%TO.C,R3*%
D10*
X178126380Y-118093833D02*
X177650190Y-117760500D01*
X178126380Y-117522404D02*
X177126380Y-117522404D01*
X177126380Y-117903357D01*
X177174000Y-117998595D01*
X177221619Y-118046214D01*
X177316857Y-118093833D01*
X177459714Y-118093833D01*
X177554952Y-118046214D01*
X177602571Y-117998595D01*
X177650190Y-117903357D01*
X177650190Y-117522404D01*
X177126380Y-118427166D02*
X177126380Y-119046214D01*
X177507333Y-118712880D01*
X177507333Y-118855738D01*
X177554952Y-118950976D01*
X177602571Y-118998595D01*
X177697809Y-119046214D01*
X177935904Y-119046214D01*
X178031142Y-118998595D01*
X178078761Y-118950976D01*
X178126380Y-118855738D01*
X178126380Y-118570023D01*
X178078761Y-118474785D01*
X178031142Y-118427166D01*
%TO.C,R2*%
X185068380Y-127402833D02*
X184592190Y-127069500D01*
X185068380Y-126831404D02*
X184068380Y-126831404D01*
X184068380Y-127212357D01*
X184116000Y-127307595D01*
X184163619Y-127355214D01*
X184258857Y-127402833D01*
X184401714Y-127402833D01*
X184496952Y-127355214D01*
X184544571Y-127307595D01*
X184592190Y-127212357D01*
X184592190Y-126831404D01*
X184163619Y-127783785D02*
X184116000Y-127831404D01*
X184068380Y-127926642D01*
X184068380Y-128164738D01*
X184116000Y-128259976D01*
X184163619Y-128307595D01*
X184258857Y-128355214D01*
X184354095Y-128355214D01*
X184496952Y-128307595D01*
X185068380Y-127736166D01*
X185068380Y-128355214D01*
%TO.C,R1*%
X174400380Y-127341333D02*
X173924190Y-127008000D01*
X174400380Y-126769904D02*
X173400380Y-126769904D01*
X173400380Y-127150857D01*
X173448000Y-127246095D01*
X173495619Y-127293714D01*
X173590857Y-127341333D01*
X173733714Y-127341333D01*
X173828952Y-127293714D01*
X173876571Y-127246095D01*
X173924190Y-127150857D01*
X173924190Y-126769904D01*
X174400380Y-128293714D02*
X174400380Y-127722285D01*
X174400380Y-128008000D02*
X173400380Y-128008000D01*
X173543238Y-127912761D01*
X173638476Y-127817523D01*
X173686095Y-127722285D01*
%TD*%
M02*
