%TF.GenerationSoftware,KiCad,Pcbnew,(5.1.10)-1*%
%TF.CreationDate,2021-08-05T17:27:16+03:00*%
%TF.ProjectId,YevgeniK,59657667-656e-4694-9b2e-6b696361645f,rev?*%
%TF.SameCoordinates,Original*%
%TF.FileFunction,Soldermask,Top*%
%TF.FilePolarity,Negative*%
%FSLAX46Y46*%
G04 Gerber Fmt 4.6, Leading zero omitted, Abs format (unit mm)*
G04 Created by KiCad (PCBNEW (5.1.10)-1) date 2021-08-05 17:27:16*
%MOMM*%
%LPD*%
G01*
G04 APERTURE LIST*
%ADD10C,3.000000*%
%ADD11R,3.000000X3.000000*%
%ADD12O,2.000000X1.905000*%
%ADD13R,2.000000X1.905000*%
%ADD14O,3.500000X3.500000*%
%ADD15R,1.050000X1.500000*%
%ADD16O,1.050000X1.500000*%
%ADD17O,1.700000X1.700000*%
%ADD18R,1.700000X1.700000*%
%ADD19C,1.800000*%
%ADD20R,1.800000X1.800000*%
G04 APERTURE END LIST*
D10*
%TO.C,J6*%
X143764000Y-100076000D03*
X143764000Y-94996000D03*
D11*
X143764000Y-89916000D03*
%TD*%
D10*
%TO.C,J3*%
X178816000Y-77724000D03*
D11*
X183896000Y-77724000D03*
%TD*%
D12*
%TO.C,Q2*%
X173124000Y-85852000D03*
X173124000Y-88392000D03*
D13*
X173124000Y-90932000D03*
D14*
X156464000Y-88392000D03*
%TD*%
D15*
%TO.C,Q1*%
X174244000Y-120904000D03*
D16*
X176784000Y-120904000D03*
X175514000Y-120904000D03*
%TD*%
D17*
%TO.C,J8*%
X184404000Y-119380000D03*
X184404000Y-116840000D03*
X184404000Y-114300000D03*
X184404000Y-111760000D03*
X184404000Y-109220000D03*
X184404000Y-106680000D03*
X184404000Y-104140000D03*
X184404000Y-101600000D03*
X184404000Y-99060000D03*
X184404000Y-96520000D03*
X184404000Y-93980000D03*
X184404000Y-91440000D03*
D18*
X184404000Y-88900000D03*
%TD*%
D17*
%TO.C,J7*%
X161544000Y-128016000D03*
X159004000Y-128016000D03*
D18*
X156464000Y-128016000D03*
%TD*%
D17*
%TO.C,J5*%
X141224000Y-105156000D03*
X143764000Y-105156000D03*
D18*
X146304000Y-105156000D03*
%TD*%
D19*
%TO.C,D2*%
X182372000Y-127508000D03*
D20*
X179832000Y-127508000D03*
%TD*%
D19*
%TO.C,D1*%
X171196000Y-127508000D03*
D20*
X168656000Y-127508000D03*
%TD*%
D11*
%TO.C,J1*%
X147320000Y-77470000D03*
D10*
X142240000Y-77470000D03*
%TD*%
D18*
%TO.C,J2*%
X191770000Y-76200000D03*
D17*
X191770000Y-78740000D03*
X191770000Y-81280000D03*
X191770000Y-83820000D03*
X191770000Y-86360000D03*
X191770000Y-88900000D03*
X191770000Y-91440000D03*
X191770000Y-93980000D03*
X191770000Y-96520000D03*
X191770000Y-99060000D03*
X191770000Y-101600000D03*
X191770000Y-104140000D03*
X191770000Y-106680000D03*
X191770000Y-109220000D03*
X191770000Y-111760000D03*
X191770000Y-114300000D03*
X191770000Y-116840000D03*
X191770000Y-119380000D03*
X191770000Y-121920000D03*
X191770000Y-124460000D03*
%TD*%
D18*
%TO.C,J4*%
X142240000Y-111760000D03*
D17*
X142240000Y-114300000D03*
X142240000Y-116840000D03*
X142240000Y-119380000D03*
X142240000Y-121920000D03*
X142240000Y-124460000D03*
%TD*%
M02*
